<svg width="34" height="34" viewBox="0 0 34 34" fill="none" xmlns="http://www.w3.org/2000/svg">
<path d="M15.3 3.00061H12.5667C5.73333 3.00061 3 5.73394 3 12.5673V20.7673C3 27.6006 5.73333 30.3339 12.5667 30.3339H20.7667C27.6 30.3339 30.3333 27.6006 30.3333 20.7673V18.0339" stroke="white" stroke-width="2.05" stroke-linecap="round" stroke-linejoin="round"/>
<path d="M22.1901 4.3947L11.4208 15.164C11.0108 15.574 10.6008 16.3804 10.5188 16.968L9.93111 21.0817C9.71245 22.5714 10.7648 23.61 12.2544 23.405L16.3681 22.8174C16.9421 22.7354 17.7484 22.3254 18.1721 21.9154L28.9414 11.146C30.8001 9.28736 31.6748 7.12803 28.9414 4.3947C26.2081 1.66136 24.0488 2.53603 22.1901 4.3947Z" stroke="white" stroke-width="2.05" stroke-miterlimit="10" stroke-linecap="round" stroke-linejoin="round"/>
<path d="M20.6445 5.93909C21.5602 9.20542 24.1159 11.7611 27.3959 12.6904" stroke="white" stroke-width="2.05" stroke-miterlimit="10" stroke-linecap="round" stroke-linejoin="round"/>
</svg>
