<svg width="60" height="64" viewBox="0 0 60 64" fill="none" xmlns="http://www.w3.org/2000/svg">
<path d="M59.2027 36.0659C59.1597 35.8508 59.0306 35.6571 58.8477 35.5281C58.6649 35.4097 58.4282 35.3667 58.2239 35.4205C57.7721 35.5281 57.4064 35.5819 57.0622 35.5819C55.7392 35.5819 54.5022 35.0655 53.5664 34.1297C53.3298 33.9039 52.964 33.8393 52.6629 33.9684C52.0067 34.2588 51.3291 34.4094 50.6407 34.4094C48.7153 34.4094 46.9513 33.28 46.1445 31.516C46.1123 31.4514 46.08 31.3976 46.037 31.3439C46.8975 28.8484 47.3492 26.2776 47.3492 23.6746C47.3492 10.6272 36.7328 0 23.6746 0C18.5439 0 13.6713 1.61345 9.57311 4.65748C5.5395 7.64773 2.62454 11.7459 1.1079 16.4894C0.430252 18.3395 0.1721 20.7489 0.161344 20.835C0.161344 20.835 0.161344 20.835 0.161344 20.8457C0.161344 20.8457 0.161344 20.8457 0.161344 20.8565C0.0537811 21.7815 0 22.7281 0 23.6746C0 28.1385 1.24773 32.484 3.61412 36.2487C5.84067 39.7768 8.96 42.6595 12.6494 44.6064C14.6716 55.6208 24.3308 64 35.9261 64C39.0024 64 42.0034 63.4192 44.8323 62.2682C46.5963 61.6766 48.7691 60.2138 48.7691 60.2138C55.5563 55.8252 59.6007 48.3926 59.6007 40.3254C59.5899 38.9486 59.4716 37.518 59.2027 36.0659ZM12.359 42.6057C5.67933 38.6259 1.61345 31.5052 1.61345 23.6746C1.61345 22.8141 1.66723 21.9213 1.76403 21.0286C1.77479 21.0071 1.77479 20.9748 1.77479 20.9533C1.77479 20.9425 1.76403 20.9318 1.76403 20.9103C1.80706 19.8454 2.64605 16.9842 2.64605 16.9842C5.57176 7.78756 14.0262 1.61345 23.6746 1.61345C35.8185 1.63496 45.7143 11.5308 45.725 23.6746C45.725 26.1271 45.2948 28.5687 44.4666 30.9244C42.2292 30.4511 40.5835 28.4827 40.5835 26.1055C40.5835 25.2558 40.8202 24.4276 41.2719 23.6316C41.4225 23.3842 41.4225 23.0723 41.2719 22.8249C40.8202 22.0397 40.5835 21.2114 40.5835 20.3509C40.5835 19.6303 40.7556 18.9203 41.0783 18.2319C41.1859 18.0061 41.1859 17.7479 41.0676 17.522C40.96 17.2961 40.7556 17.1455 40.5082 17.1025C38.9808 16.8013 37.4319 16.6508 35.9045 16.6508C28.6978 16.6508 21.9751 19.8669 17.4575 25.4924C16.5002 26.4498 15.005 29.2034 15.005 29.2034C13.198 32.6024 12.2407 36.4424 12.2407 40.3254C12.2514 41.0891 12.2837 41.8528 12.359 42.6057ZM47.8871 58.8585C46.6716 59.6975 44.2084 60.7731 44.2084 60.7731C41.5731 61.8487 38.7872 62.3866 35.9153 62.3866C23.7714 62.365 13.8756 52.4692 13.8649 40.3254C13.8649 36.6575 14.7254 33.1724 16.4356 29.9671C16.5324 29.5045 18.716 26.5035 18.716 26.5035C22.9324 21.2652 29.2034 18.2642 35.9261 18.2534C37.0232 18.2534 38.1418 18.3395 39.2605 18.5116C39.0776 19.1247 38.9808 19.7378 38.9808 20.3509C38.9808 21.3405 39.2067 22.3086 39.6692 23.2336C39.2067 24.1587 38.9808 25.1267 38.9808 26.1055C38.9808 29.5045 41.5301 32.3012 44.9076 32.6239C46.0585 34.7213 48.2528 36.0229 50.6407 36.0229H50.6514C51.3829 36.0229 52.1143 35.8938 52.8242 35.6464C54.0074 36.6467 55.5133 37.1953 57.0622 37.1953C57.2773 37.1953 57.514 37.1738 57.7506 37.1523C57.9119 38.2279 57.9872 39.3035 57.9872 40.3254C57.9765 47.8333 54.201 54.7711 47.8871 58.8585Z" fill="#219EBC"/>
<path d="M23.7929 43.1865C21.3512 43.1865 19.3721 45.1764 19.3721 47.6074C19.3721 50.0383 21.3512 52.0282 23.7929 52.0282C26.2238 52.0282 28.203 50.0383 28.203 47.6074C28.203 45.1764 26.2238 43.1865 23.7929 43.1865ZM23.7929 50.4148C22.244 50.404 20.9855 49.1455 20.9855 47.6074C20.9855 46.0692 22.244 44.8107 23.7929 44.8C25.3311 44.8107 26.5896 46.0692 26.5896 47.6074C26.5896 49.1455 25.3311 50.404 23.7929 50.4148Z" fill="#219EBC"/>
<path d="M10.8847 15.3062C8.44303 15.3062 6.46387 17.2853 6.46387 19.727C6.46387 22.1579 8.44303 24.1371 10.8847 24.1371C13.3156 24.1371 15.2948 22.1579 15.2948 19.727C15.2948 17.2853 13.3156 15.3062 10.8847 15.3062ZM10.8847 22.5236C9.3358 22.5236 8.07731 21.2651 8.07731 19.727C8.07731 18.1781 9.3358 16.9196 10.8847 16.9196C12.4229 16.9196 13.6813 18.1781 13.6813 19.727C13.6813 21.2651 12.4229 22.5236 10.8847 22.5236Z" fill="#219EBC"/>
<path d="M35.9143 51.0708C34.1718 51.0708 32.752 52.4906 32.752 54.2439C32.752 55.9864 34.1718 57.4063 35.9143 57.4063C37.6568 57.4063 39.0767 55.9864 39.0767 54.2439C39.0874 52.4906 37.6568 51.0708 35.9143 51.0708ZM35.9143 55.7928C35.0646 55.7928 34.3654 55.0937 34.3654 54.2439C34.3654 53.3834 35.0646 52.695 35.9143 52.6842C36.7641 52.695 37.4632 53.3834 37.4632 54.2439C37.474 55.0937 36.7641 55.7928 35.9143 55.7928Z" fill="#219EBC"/>
<path d="M26.137 27.2778C24.3944 27.2778 22.9746 28.6977 22.9746 30.4402C22.9746 32.1827 24.3944 33.6025 26.137 33.6025C27.8795 33.6025 29.2993 32.1827 29.2993 30.4402C29.3101 28.6977 27.8902 27.2778 26.137 27.2778ZM26.137 31.9891C25.2765 31.9891 24.5881 31.2899 24.5773 30.4402C24.5881 29.5904 25.2765 28.8913 26.137 28.8913C26.9867 28.8913 27.6859 29.5904 27.6859 30.4402C27.6966 31.2899 26.9975 31.9891 26.137 31.9891Z" fill="#219EBC"/>
<path d="M23.9856 17.9199C25.7281 17.9199 27.1479 16.5001 27.1479 14.7576C27.1479 13.015 25.7281 11.5952 23.9856 11.5952C22.2431 11.5952 20.8232 13.015 20.8232 14.7576C20.834 16.5001 22.2431 17.9199 23.9856 17.9199ZM23.9856 13.2087C24.8353 13.2087 25.5345 13.9078 25.5345 14.7576C25.5345 15.6181 24.8353 16.3065 23.9856 16.3065C23.1251 16.3065 22.4367 15.6181 22.4259 14.7576C22.4474 13.9078 23.1358 13.2087 23.9856 13.2087Z" fill="#219EBC"/>
<path d="M49.8977 40.3145C48.1552 40.3145 46.7354 41.7343 46.7354 43.4876C46.7354 45.2301 48.1552 46.6499 49.8977 46.6499C51.6402 46.6499 53.0601 45.2301 53.0601 43.4876C53.0708 41.7343 51.6402 40.3145 49.8977 40.3145ZM49.8977 45.0365C49.048 45.0365 48.3488 44.3373 48.3488 43.4876C48.3488 42.6271 49.048 41.9387 49.8977 41.9279C50.7475 41.9387 51.4466 42.6271 51.4466 43.4876C51.4574 44.3373 50.7475 45.0365 49.8977 45.0365Z" fill="#219EBC"/>
<path d="M39.1403 33.5811C37.613 33.5811 36.376 34.8288 36.376 36.3454C36.376 37.8728 37.613 39.1205 39.1403 39.1205C40.6677 39.1205 41.9047 37.8728 41.9047 36.3454C41.9155 34.8288 40.6677 33.5811 39.1403 33.5811ZM39.1403 37.5071C38.5057 37.5071 37.9894 36.98 37.9894 36.3454C37.9894 35.7108 38.5057 35.1945 39.1403 35.1945C39.775 35.1945 40.2913 35.7108 40.302 36.3454C40.302 36.98 39.775 37.5071 39.1403 37.5071Z" fill="#219EBC"/>
<path d="M24.9743 8.09955C26.5017 8.09955 27.7387 6.86258 27.7387 5.33518C27.7387 3.80779 26.5017 2.56006 24.9743 2.56006C23.4469 2.56006 22.21 3.80779 22.21 5.33518C22.21 6.86258 23.4469 8.09955 24.9743 8.09955ZM24.9743 4.1735C25.609 4.1735 26.1253 4.70056 26.1253 5.33518C26.1253 5.96981 25.609 6.48611 24.9743 6.48611C24.3397 6.48611 23.8234 5.96981 23.8234 5.33518C23.8234 4.70056 24.3397 4.1735 24.9743 4.1735Z" fill="#219EBC"/>
</svg>
