<svg width="54" height="64" viewBox="0 0 54 64" fill="none" xmlns="http://www.w3.org/2000/svg">
<path d="M40.9837 32.08V12.1849C40.9837 11.8777 40.8627 11.5838 40.6456 11.365L29.7211 0.344395C29.5032 0.124106 29.2061 0 28.8957 0H1.1635C0.520472 0 0 0.521245 0 1.1635V54.4957C0 55.1381 0.520472 55.6592 1.1635 55.6592H22.647C25.427 60.6283 30.7365 64 36.8245 64C45.7797 64 53.064 56.7149 53.064 47.76C53.064 40.2445 47.9267 33.9237 40.9837 32.08ZM30.0592 3.9908L37.0277 11.0214H30.0592V3.9908ZM21.5898 53.3323H2.32699V2.32699H27.7315V12.1849C27.7315 12.8271 28.2528 13.3484 28.8949 13.3484H38.656V31.6301C38.0533 31.5619 37.4437 31.5192 36.8245 31.5192C27.8696 31.5192 20.5838 38.8048 20.5838 47.76C20.5846 49.72 20.9507 51.5917 21.5898 53.3323ZM36.8253 61.6731C29.1533 61.6731 22.9115 55.432 22.9115 47.76C22.9115 40.0877 29.1533 33.8461 36.8253 33.8461C44.4976 33.8461 50.7376 40.0877 50.7376 47.76C50.7376 55.432 44.4968 61.6731 36.8253 61.6731Z" fill="#219EBC"/>
<path d="M33.0872 54.4491H41.1755C41.9608 54.4491 42.6675 53.8208 42.6675 52.9571V47.2245C42.6675 46.4392 42.0392 45.8109 41.3325 45.8109V44.1619C41.3325 41.8845 39.4477 40 37.1707 40C34.8933 40 33.0085 41.8845 33.0085 44.1619V45.8109C32.3019 45.8896 31.6736 46.5179 31.6736 47.2245V52.9571C31.5952 53.8208 32.2232 54.4491 33.0872 54.4491ZM38.2699 51.0723C38.2699 51.7005 37.7203 52.2504 37.092 52.2504C36.4637 52.2504 35.9141 51.7005 35.9141 51.0723V49.2661C35.9141 48.6381 36.4637 48.0883 37.092 48.0883C37.7203 48.0883 38.2699 48.6381 38.2699 49.2661V51.0723ZM35.5213 44.2405C35.5213 43.9264 35.5213 43.5339 35.6 43.2981C35.6 43.2197 35.6 43.2197 35.6784 43.2197C35.6784 43.1411 35.6784 43.1411 35.7571 43.1411C35.8355 43.0627 35.8355 42.984 35.8355 42.9056C35.8355 42.9056 35.8355 42.9056 35.8355 42.8269C36.1496 42.3557 36.5424 42.0416 37.1707 42.0416C37.7203 42.1203 38.1915 42.3557 38.5056 42.8269C38.5056 42.8269 38.5056 42.8269 38.5056 42.9056C38.584 42.984 38.584 43.0627 38.584 43.1411C38.584 43.2197 38.584 43.2197 38.6627 43.2197C38.6627 43.2981 38.6627 43.2981 38.7411 43.2981C38.6627 43.6123 38.7411 43.9264 38.7411 44.2405V45.8109H37.1707H35.6V44.2405H35.5213Z" fill="#219EBC"/>
</svg>
