<svg width="64" height="57" viewBox="0 0 72 64" fill="none" xmlns="http://www.w3.org/2000/svg">
<path fill-rule="evenodd" clip-rule="evenodd" d="M2.45169 56.3153C14.4255 56.3207 26.3948 56.3207 38.374 56.3153C38.6407 58.5847 39.7821 60.5775 41.4471 61.9668H8.70037C5.38834 61.9668 2.99861 59.4585 2.45169 56.3153ZM62.388 2.0341C65.7 2.0341 68.0942 4.54147 68.6412 7.68467H55.8016C56.2875 4.46783 59.0239 2.0341 62.388 2.0341ZM17.9441 2.0341H56.7985C54.918 3.61109 53.6885 5.96759 53.6885 8.60159L53.6831 55.296C53.6831 58.9969 50.742 61.947 47.0456 61.9668C47.0402 61.9668 47.0366 61.9668 47.0312 61.9668C47.0258 61.9668 47.0222 61.9668 47.0124 61.9668C43.3267 61.9668 40.3892 59.0427 40.347 55.3715C40.3856 54.8326 40.0488 54.2669 39.3223 54.2821H11.2778V8.70576C11.2778 4.99589 14.2288 2.0341 17.9441 2.0341ZM17.9441 0C13.1395 0 9.23921 3.90116 9.23921 8.70486V54.2812H1.01031C0.308931 54.2812 0 54.8183 0 55.2951C0 60.0997 3.89667 64 8.70037 64H47.0133C52.3648 64 55.5924 59.4163 55.7181 55.2951V9.71877H70.078C70.6393 9.71877 71.0973 9.26525 71.0973 8.70486C71.0973 3.90026 67.1962 0 62.3889 0H17.9441Z" fill="#219EBC"/>
<path d="M62.6913 21.8849H65.6154L65.6612 58.6459L64.2261 60.5723L62.7389 58.6028L62.6913 21.8849ZM61.5741 19.8517C61.0497 19.9029 60.6572 20.342 60.6572 20.862L60.7048 58.9468C60.7048 59.1641 60.7749 59.3797 60.9105 59.5575L63.408 62.8794C63.8202 63.4263 64.6338 63.4218 65.0406 62.874L67.4995 59.5871C67.6306 59.4084 67.7016 59.1991 67.6962 58.9782L67.6504 20.862C67.6504 20.3007 67.1906 19.8463 66.6293 19.8517H61.672C61.6388 19.8463 61.6056 19.8463 61.5741 19.8517Z" fill="#219EBC"/>
<path d="M61.8643 16.165C60.5082 16.165 60.6106 18.1991 61.9711 18.1991H66.3878C67.7941 18.1991 67.7941 16.165 66.3878 16.165H61.8643Z" fill="#219EBC"/>
<path d="M20.7683 14.7388C18.5043 14.7388 16.6436 16.587 16.6436 18.8501V25.0018C16.6436 27.2613 18.5043 29.1032 20.7683 29.1032H26.7754C29.0385 29.1032 30.9047 27.2604 30.9047 25.0018V23.3359C30.9047 21.9762 28.8661 21.9762 28.8661 23.3359V25.0018C28.8661 26.162 27.9519 27.07 26.7754 27.07H20.7683C19.5901 27.07 18.683 26.162 18.683 25.0018V18.8501C18.683 17.6862 19.591 16.7783 20.7683 16.7783H26.392C27.7534 16.7783 27.7534 14.7388 26.392 14.7388H20.7683Z" fill="#219EBC"/>
<path d="M31.5165 15.5803C31.2497 15.5848 30.9974 15.6962 30.8115 15.8839L24.3095 22.3624L22.2746 20.3409C21.8812 19.9107 21.2122 19.8919 20.8008 20.3041C20.3886 20.7154 20.403 21.3845 20.8341 21.7787L23.5929 24.5241C23.9889 24.9165 24.6275 24.9165 25.0244 24.5241L32.2511 17.3252C32.9075 16.675 32.4334 15.5615 31.5165 15.5803Z" fill="#219EBC"/>
<path d="M35.0491 27.0692C34.4735 27.0459 33.9912 27.5084 33.9912 28.0885C33.9912 28.6651 34.4735 29.1258 35.0491 29.1033H47.2798C47.8554 29.1258 48.3377 28.6651 48.3377 28.0885C48.3377 27.5084 47.8554 27.0459 47.2798 27.0692H35.0491Z" fill="#219EBC"/>
<path d="M38.636 14.7388C38.0711 14.7388 37.6113 15.1968 37.6113 15.7581C37.6113 16.3247 38.0711 16.7783 38.636 16.7783H47.2798C48.6413 16.7783 48.6413 14.7388 47.2798 14.7388H38.636Z" fill="#219EBC"/>
<path d="M35.0491 22.9571C34.4735 22.9382 33.9912 23.3972 33.9912 23.9764C33.9912 24.553 34.4735 25.0155 35.0491 24.9921H47.2798C47.8554 25.0155 48.3377 24.553 48.3377 23.9764C48.3377 23.3972 47.8554 22.9382 47.2798 22.9571H35.0491Z" fill="#219EBC"/>
<path d="M35.0491 18.8504C34.4735 18.8279 33.9912 19.2895 33.9912 19.8661C33.9912 20.4453 34.4735 20.9087 35.0491 20.8854H47.2798C47.8554 20.9087 48.3377 20.4453 48.3377 19.8661C48.3377 19.2895 47.8554 18.8279 47.2798 18.8504H35.0491Z" fill="#219EBC"/>
<path d="M35.0487 45.9839C33.6882 45.9839 33.6882 48.0234 35.0487 48.0234H47.2794C48.6408 48.0234 48.6408 45.9839 47.2794 45.9839H35.0487Z" fill="#219EBC"/>
<path d="M38.6363 33.6504C37.2749 33.6504 37.2749 35.6935 38.6363 35.6935H47.2801C48.6416 35.6935 48.6416 33.6504 47.2801 33.6504H38.6363Z" fill="#219EBC"/>
<path d="M35.0494 41.8726C34.4827 41.8726 34.0283 42.3324 34.0283 42.8919C34.0283 43.4585 34.4827 43.9165 35.0494 43.9165H47.28C48.6415 43.9165 48.6415 41.8735 47.28 41.8735H35.0494V41.8726Z" fill="#219EBC"/>
<path d="M35.0494 37.7617C34.4827 37.7617 34.0283 38.2197 34.0283 38.7864C34.0283 39.3477 34.4827 39.8057 35.0494 39.8057H47.28C48.6415 39.8057 48.6415 37.7626 47.28 37.7626L35.0494 37.7617Z" fill="#219EBC"/>
<path d="M20.7683 33.6582C18.5043 33.6582 16.6436 35.5055 16.6436 37.7695V43.9212C16.6436 46.1807 18.5043 48.0235 20.7683 48.0235H26.7754C29.0385 48.0235 30.9047 46.1798 30.9047 43.9212V42.2562C30.9047 40.8929 28.8661 40.8929 28.8661 42.2562V43.9212C28.8661 45.0806 27.9519 45.9876 26.7754 45.9876H20.7683C19.5901 45.9876 18.683 45.0806 18.683 43.9212V37.7695C18.683 36.6047 19.591 35.6977 20.7683 35.6977H26.392C27.7534 35.6977 27.7534 33.6582 26.392 33.6582H20.7683Z" fill="#219EBC"/>
<path d="M31.5165 34.5022C31.2497 34.5058 30.9974 34.6181 30.8115 34.804L24.3095 41.2834L22.2746 39.2628C21.8812 38.8326 21.2122 38.8138 20.8008 39.226C20.3886 39.6382 20.403 40.3046 20.8341 40.6979L23.5929 43.4451C23.9889 43.8384 24.6275 43.8384 25.0244 43.4451L32.2511 36.2462C32.9075 35.596 32.4334 34.4825 31.5165 34.5022Z" fill="#219EBC"/>
</svg>
