<svg width="33" height="42" viewBox="0 0 33 42" fill="none" xmlns="http://www.w3.org/2000/svg">
<path d="M0 36V6C0 4.4087 0.632141 2.88258 1.75736 1.75736C2.88258 0.632141 4.4087 0 6 0H27C28.5913 0 30.1174 0.632141 31.2426 1.75736C32.3679 2.88258 33 4.4087 33 6V33.375C33 34.0712 32.7234 34.7389 32.2312 35.2312C31.7389 35.7234 31.0712 36 30.375 36H3C3 36.7957 3.31607 37.5587 3.87868 38.1213C4.44129 38.6839 5.20435 39 6 39H31.5C31.8978 39 32.2794 39.158 32.5607 39.4393C32.842 39.7206 33 40.1022 33 40.5C33 40.8978 32.842 41.2794 32.5607 41.5607C32.2794 41.842 31.8978 42 31.5 42H6C4.4087 42 2.88258 41.3679 1.75736 40.2426C0.632141 39.1174 0 37.5913 0 36ZM8.625 6C7.92881 6 7.26113 6.27656 6.76884 6.76884C6.27656 7.26113 6 7.92881 6 8.625V10.875C6 12.324 7.176 13.5 8.625 13.5H24.375C25.0712 13.5 25.7389 13.2234 26.2312 12.7312C26.7234 12.2389 27 11.5712 27 10.875V8.625C27 7.92881 26.7234 7.26113 26.2312 6.76884C25.7389 6.27656 25.0712 6 24.375 6H8.625Z" fill="#219EBC"/>
</svg>
