<svg width="32" height="32" viewBox="0 0 32 32" fill="none" xmlns="http://www.w3.org/2000/svg">
<path d="M29.3337 22.3199V6.22659C29.3337 4.62659 28.027 3.43993 26.4403 3.57326H26.3603C23.5603 3.81326 19.307 5.23993 16.9337 6.73326L16.707 6.87993C16.3203 7.11993 15.6803 7.11993 15.2937 6.87993L14.9603 6.67993C12.587 5.19993 8.34699 3.78659 5.54699 3.55993C3.96033 3.42659 2.66699 4.62659 2.66699 6.21326V22.3199C2.66699 23.5999 3.70699 24.7999 4.98699 24.9599L5.37366 25.0133C8.26699 25.3999 12.7337 26.8666 15.2937 28.2666L15.347 28.2933C15.707 28.4933 16.2803 28.4933 16.627 28.2933C19.187 26.8799 23.667 25.3999 26.5737 25.0133L27.0137 24.9599C28.2937 24.7999 29.3337 23.5999 29.3337 22.3199Z" stroke="white" stroke-width="1.5" stroke-linecap="round" stroke-linejoin="round"/>
<path d="M16 7.32031V27.3203" stroke="white" stroke-width="1.5" stroke-linecap="round" stroke-linejoin="round"/>
<path d="M10.333 11.3203H7.33301" stroke="white" stroke-width="1.5" stroke-linecap="round" stroke-linejoin="round"/>
<path d="M11.333 15.3203H7.33301" stroke="white" stroke-width="1.5" stroke-linecap="round" stroke-linejoin="round"/>
</svg>
