<svg width="24" height="25" viewBox="0 0 24 25" fill="none" xmlns="http://www.w3.org/2000/svg">
<path d="M22 16.8017V4.73171C22 3.53171 21.02 2.64171 19.83 2.74171H19.77C17.67 2.92171 14.48 3.99171 12.7 5.11171L12.53 5.22171C12.24 5.40171 11.76 5.40171 11.47 5.22171L11.22 5.07171C9.44 3.96171 6.26 2.90171 4.16 2.73171C2.97 2.63171 2 3.53171 2 4.72171V16.8017C2 17.7617 2.78 18.6617 3.74 18.7817L4.03 18.8217C6.2 19.1117 9.55 20.2117 11.47 21.2617L11.51 21.2817C11.78 21.4317 12.21 21.4317 12.47 21.2817C14.39 20.2217 17.75 19.1117 19.93 18.8217L20.26 18.7817C21.22 18.6617 22 17.7617 22 16.8017Z" stroke="#989FAD" stroke-width="1.5" stroke-linecap="round" stroke-linejoin="round"/>
<path d="M12 5.55176V20.5518" stroke="#989FAD" stroke-width="1.5" stroke-linecap="round" stroke-linejoin="round"/>
<path d="M7.75 8.55176H5.5" stroke="#989FAD" stroke-width="1.5" stroke-linecap="round" stroke-linejoin="round"/>
<path d="M8.5 11.5518H5.5" stroke="#989FAD" stroke-width="1.5" stroke-linecap="round" stroke-linejoin="round"/>
</svg>
