<svg width="32" height="33" viewBox="0 0 32 33" fill="none" xmlns="http://www.w3.org/2000/svg">
<rect x="1" y="1.5" width="30" height="30" rx="15" stroke="#FFC862" stroke-width="2"/>
<path d="M14.9531 10.5906L15.6469 9.89683C15.9406 9.60308 16.4156 9.60308 16.7063 9.89683L22.7812 15.9687C23.075 16.2625 23.075 16.7375 22.7812 17.0281L16.7063 23.1031C16.4125 23.3968 15.9375 23.3968 15.6469 23.1031L14.9531 22.4093C14.6562 22.1125 14.6625 21.6281 14.9656 21.3375L18.7312 17.75H9.75C9.33437 17.75 9 17.4156 9 17V16C9 15.5843 9.33437 15.25 9.75 15.25H18.7312L14.9656 11.6625C14.6594 11.3718 14.6531 10.8875 14.9531 10.5906Z" fill="#323232"/>
</svg>
