<svg width="32" height="33" viewBox="0 0 32 33" fill="none" xmlns="http://www.w3.org/2000/svg">
<rect x="1" y="1.5" width="30" height="30" rx="15" stroke="#FFC862" stroke-width="2"/>
<path d="M17.047 22.4093L16.3532 23.1031C16.0595 23.3968 15.5845 23.3968 15.2938 23.1031L9.21885 17.0312C8.9251 16.7375 8.9251 16.2625 9.21885 15.9718L15.2938 9.89683C15.5876 9.60308 16.0626 9.60308 16.3532 9.89683L17.047 10.5906C17.3438 10.8875 17.3376 11.3718 17.0345 11.6625L13.2688 15.25H22.2501C22.6657 15.25 23.0001 15.5843 23.0001 16V17C23.0001 17.4156 22.6657 17.75 22.2501 17.75H13.2688L17.0345 21.3375C17.3407 21.6281 17.347 22.1125 17.047 22.4093Z" fill="#323232"/>
</svg>
