<svg width="24" height="25" viewBox="0 0 24 25" fill="none" xmlns="http://www.w3.org/2000/svg">
<path fill-rule="evenodd" clip-rule="evenodd" d="M14.062 6.45342C11.6967 6.20496 9.31285 6.18654 6.94398 6.39842L5.36198 6.53942C4.72717 6.59635 4.13007 6.86554 3.66704 7.30352C3.20401 7.74151 2.90208 8.32275 2.80998 8.95342C2.43378 11.5264 2.43378 14.1404 2.80998 16.7134C2.9023 17.3442 3.20442 17.9254 3.66762 18.3634C4.13081 18.8014 4.72806 19.0705 5.36298 19.1274L6.94498 19.2674C9.31381 19.4797 11.6976 19.4616 14.063 19.2134L14.671 19.1494C15.2745 19.0861 15.842 18.8315 16.2905 18.4227C16.739 18.014 17.0451 17.4725 17.164 16.8774L20.211 18.4954C20.3204 18.5535 20.4425 18.5836 20.5663 18.5831C20.6902 18.5825 20.812 18.5512 20.9208 18.4921C21.0297 18.433 21.1222 18.3478 21.1901 18.2442C21.258 18.1406 21.2992 18.0218 21.31 17.8984L21.335 17.6144C21.6139 14.4328 21.6139 11.233 21.335 8.05142L21.31 7.76742C21.2991 7.64396 21.2578 7.52513 21.1898 7.42153C21.1218 7.31794 21.0291 7.23282 20.9202 7.17378C20.8112 7.11474 20.6893 7.08362 20.5654 7.08321C20.4414 7.0828 20.3193 7.1131 20.21 7.17142L17.164 8.78942C17.0451 8.19434 16.739 7.65288 16.2905 7.24413C15.842 6.83537 15.2745 6.58073 14.671 6.51742L14.062 6.45342ZM7.07798 7.89242C9.35001 7.6893 11.6364 7.70705 13.905 7.94542L14.513 8.00942C14.8101 8.04087 15.0882 8.17026 15.3037 8.37719C15.5191 8.58413 15.6596 8.85686 15.703 9.15242C16.061 11.5934 16.061 14.0724 15.703 16.5144C15.6596 16.81 15.5191 17.0827 15.3037 17.2896C15.0882 17.4966 14.8101 17.626 14.513 17.6574L13.905 17.7214C11.6364 17.9598 9.35001 17.9775 7.07798 17.7744L5.49598 17.6324C5.197 17.6057 4.91571 17.4792 4.69746 17.2731C4.47921 17.067 4.33673 16.7934 4.29298 16.4964C3.93782 14.0673 3.93782 11.5995 4.29298 9.17042C4.33636 8.87319 4.4787 8.59928 4.69699 8.39296C4.91529 8.18664 5.19679 8.05997 5.49598 8.03342L7.07798 7.89242ZM17.36 10.3834C17.509 12.0134 17.509 13.6534 17.36 15.2834L19.907 16.6364C20.0883 14.1043 20.0883 11.5625 19.907 9.03042L17.36 10.3834Z" fill="#7A5AF8"/>
</svg>
