<svg width="12" height="14" viewBox="0 0 12 14" fill="none" xmlns="http://www.w3.org/2000/svg">
<path d="M10.6667 1.99996H7.88C7.6 1.22663 6.86667 0.666626 6 0.666626C5.13333 0.666626 4.4 1.22663 4.12 1.99996H1.33333C0.6 1.99996 0 2.59996 0 3.33329V12.6666C0 13.4 0.6 14 1.33333 14H10.6667C11.4 14 12 13.4 12 12.6666V3.33329C12 2.59996 11.4 1.99996 10.6667 1.99996ZM6 1.99996C6.36667 1.99996 6.66667 2.29996 6.66667 2.66663C6.66667 3.03329 6.36667 3.33329 6 3.33329C5.63333 3.33329 5.33333 3.03329 5.33333 2.66663C5.33333 2.29996 5.63333 1.99996 6 1.99996ZM4.19333 10.86L2.46667 9.13329C2.20667 8.87329 2.20667 8.45329 2.46667 8.19329C2.72667 7.93329 3.14667 7.93329 3.40667 8.19329L4.66667 9.44663L8.58667 5.52663C8.84667 5.26663 9.26667 5.26663 9.52667 5.52663C9.78667 5.78663 9.78667 6.20663 9.52667 6.46663L5.13333 10.86C4.88 11.12 4.45333 11.12 4.19333 10.86Z" fill="#12B76A"/>
</svg>
