<svg width="16" height="16" viewBox="0 0 16 16" fill="none" xmlns="http://www.w3.org/2000/svg">
<g clip-path="url(#clip0_2685_27164)">
<path d="M12.6667 1.99996H9.88C9.6 1.22663 8.86667 0.666626 8 0.666626C7.13333 0.666626 6.4 1.22663 6.12 1.99996H3.33333C2.6 1.99996 2 2.59996 2 3.33329V12.6666C2 13.4 2.6 14 3.33333 14H12.6667C13.4 14 14 13.4 14 12.6666V3.33329C14 2.59996 13.4 1.99996 12.6667 1.99996ZM8 1.99996C8.36667 1.99996 8.66667 2.29996 8.66667 2.66663C8.66667 3.03329 8.36667 3.33329 8 3.33329C7.63333 3.33329 7.33333 3.03329 7.33333 2.66663C7.33333 2.29996 7.63333 1.99996 8 1.99996ZM6.19333 10.86L4.46667 9.13329C4.20667 8.87329 4.20667 8.45329 4.46667 8.19329C4.72667 7.93329 5.14667 7.93329 5.40667 8.19329L6.66667 9.44663L10.5867 5.52663C10.8467 5.26663 11.2667 5.26663 11.5267 5.52663C11.7867 5.78663 11.7867 6.20663 11.5267 6.46663L7.13333 10.86C6.88 11.12 6.45333 11.12 6.19333 10.86Z" fill="#12B76A"/>
</g>
<defs>
<clipPath id="clip0_2685_27164">
<rect width="16" height="16" fill="white"/>
</clipPath>
</defs>
</svg>
