<svg width="32" height="32" viewBox="0 0 32 32" fill="none" xmlns="http://www.w3.org/2000/svg">
<path d="M12.0003 29.3337H20.0003C26.667 29.3337 29.3337 26.667 29.3337 20.0003V12.0003C29.3337 5.33366 26.667 2.66699 20.0003 2.66699H12.0003C5.33366 2.66699 2.66699 5.33366 2.66699 12.0003V20.0003C2.66699 26.667 5.33366 29.3337 12.0003 29.3337Z" stroke="white" stroke-width="1.5" stroke-linecap="round" stroke-linejoin="round"/>
<path d="M2.66699 17.3336H7.68033C8.69366 17.3336 9.61366 17.907 10.067 18.8136L11.2537 21.2003C12.0003 22.667 13.3337 22.667 13.6537 22.667H18.3603C19.3737 22.667 20.2937 22.0936 20.747 21.187L21.9337 18.8003C22.387 17.8936 23.307 17.3203 24.3203 17.3203H29.307" stroke="white" stroke-width="1.5" stroke-linecap="round" stroke-linejoin="round"/>
<path d="M13.7861 9.33301H18.2261" stroke="white" stroke-width="1.5" stroke-linecap="round" stroke-linejoin="round"/>
<path d="M12.667 13.333H19.3337" stroke="white" stroke-width="1.5" stroke-linecap="round" stroke-linejoin="round"/>
</svg>
