<svg width="24" height="25" viewBox="0 0 24 25" fill="none" xmlns="http://www.w3.org/2000/svg">
<path d="M14.3517 2.06152H9.65172C8.61172 2.06152 7.76172 2.90152 7.76172 3.94152V4.88152C7.76172 5.92152 8.60172 6.76152 9.64172 6.76152H14.3517C15.3917 6.76152 16.2317 5.92152 16.2317 4.88152V3.94152C16.2417 2.90152 15.3917 2.06152 14.3517 2.06152Z" fill="#219EBC"/>
<path d="M17.2391 4.8815C17.2391 6.4715 15.9391 7.7715 14.3491 7.7715H9.64906C8.05906 7.7715 6.75906 6.4715 6.75906 4.8815C6.75906 4.3215 6.15906 3.9715 5.65906 4.2315C4.24906 4.9815 3.28906 6.4715 3.28906 8.1815V17.5915C3.28906 20.0515 5.29906 22.0615 7.75906 22.0615H16.2391C18.6991 22.0615 20.7091 20.0515 20.7091 17.5915V8.1815C20.7091 6.4715 19.7491 4.9815 18.3391 4.2315C17.8391 3.9715 17.2391 4.3215 17.2391 4.8815ZM15.3391 12.7915L11.3391 16.7915C11.1891 16.9415 10.9991 17.0115 10.8091 17.0115C10.6191 17.0115 10.4291 16.9415 10.2791 16.7915L8.77906 15.2915C8.48906 15.0015 8.48906 14.5215 8.77906 14.2315C9.06906 13.9415 9.54906 13.9415 9.83906 14.2315L10.8091 15.2015L14.2791 11.7315C14.5691 11.4415 15.0491 11.4415 15.3391 11.7315C15.6291 12.0215 15.6291 12.5015 15.3391 12.7915Z" fill="#219EBC"/>
</svg>
