<svg width="61" height="60" viewBox="0 0 61 60" fill="none" xmlns="http://www.w3.org/2000/svg">
<g clip-path="url(#clip0_3725_32116)">
<path d="M48.875 25.1C47.175 16.475 39.6 10 30.5 10C23.275 10 17 14.1 13.875 20.1C6.35 20.9 0.5 27.275 0.5 35C0.5 43.275 7.225 50 15.5 50H48C54.9 50 60.5 44.4 60.5 37.5C60.5 30.9 55.375 25.55 48.875 25.1ZM48 45H15.5C9.975 45 5.5 40.525 5.5 35C5.5 29.875 9.325 25.6 14.4 25.075L17.075 24.8L18.325 22.425C20.7 17.85 25.35 15 30.5 15C37.05 15 42.7 19.65 43.975 26.075L44.725 29.825L48.55 30.1C52.45 30.35 55.5 33.625 55.5 37.5C55.5 41.625 52.125 45 48 45ZM20.5 32.5H26.875V40H34.125V32.5H40.5L30.5 22.5L20.5 32.5Z" fill="#989FAD"/>
</g>
<defs>
<clipPath id="clip0_3725_32116">
<rect width="60" height="60" fill="white" transform="translate(0.5)"/>
</clipPath>
</defs>
</svg>
