<svg width="16" height="17" viewBox="0 0 16 17" fill="none" xmlns="http://www.w3.org/2000/svg">
<path d="M10.6667 9.10016V11.9002C10.6667 14.2335 9.73337 15.1668 7.40004 15.1668H4.60004C2.26671 15.1668 1.33337 14.2335 1.33337 11.9002V9.10016C1.33337 6.76683 2.26671 5.8335 4.60004 5.8335H7.40004C9.73337 5.8335 10.6667 6.76683 10.6667 9.10016Z" stroke="#292D32" stroke-width="1.5" stroke-linecap="round" stroke-linejoin="round"/>
<path d="M14.6667 5.10016V7.90016C14.6667 10.2335 13.7334 11.1668 11.4 11.1668H10.6667V9.10016C10.6667 6.76683 9.73337 5.8335 7.40004 5.8335H5.33337V5.10016C5.33337 2.76683 6.26671 1.8335 8.60004 1.8335H11.4C13.7334 1.8335 14.6667 2.76683 14.6667 5.10016Z" stroke="#292D32" stroke-width="1.5" stroke-linecap="round" stroke-linejoin="round"/>
</svg>
