<svg width="24" height="25" viewBox="0 0 24 25" fill="none" xmlns="http://www.w3.org/2000/svg">
<path fill-rule="evenodd" clip-rule="evenodd" d="M12.25 3.00063C11.79 2.92263 11.162 2.91663 10.03 2.91663C8.113 2.91663 6.75 2.91863 5.718 3.05663C4.706 3.19163 4.125 3.44663 3.702 3.86863C3.279 4.29163 3.025 4.87163 2.89 5.87763C2.752 6.90563 2.75 8.25963 2.75 10.1676V14.1676C2.75 16.0736 2.752 17.4276 2.89 18.4556C3.025 19.4616 3.279 20.0416 3.702 20.4656C4.125 20.8876 4.705 21.1416 5.711 21.2766C6.739 21.4156 8.093 21.4166 10 21.4166H14C15.907 21.4166 17.262 21.4146 18.29 21.2766C19.295 21.1416 19.875 20.8876 20.298 20.4646C20.721 20.0416 20.975 19.4616 21.11 18.4556C21.248 17.4286 21.25 16.0736 21.25 14.1666V13.7296C21.25 12.1936 21.24 11.4656 21.076 10.9166H17.946C16.813 10.9166 15.888 10.9166 15.156 10.8186C14.393 10.7156 13.731 10.4936 13.202 9.96463C12.673 9.43563 12.451 8.77463 12.348 8.00963C12.25 7.27963 12.25 6.35363 12.25 5.21963V3.00063ZM13.75 3.77663V5.16663C13.75 6.36663 13.752 7.19063 13.835 7.80963C13.915 8.40763 14.059 8.70063 14.263 8.90363C14.466 9.10763 14.759 9.25163 15.357 9.33163C15.976 9.41463 16.8 9.41663 18 9.41663H20.02C19.6363 9.05122 19.2462 8.6925 18.85 8.34063L14.891 4.77763C14.5175 4.43623 14.1371 4.1025 13.75 3.77663ZM10.175 1.41663C11.56 1.41663 12.455 1.41663 13.278 1.73163C14.101 2.04763 14.763 2.64363 15.788 3.56663L15.895 3.66263L19.853 7.22563L19.978 7.33763C21.162 8.40263 21.928 9.09163 22.339 10.0156C22.751 10.9396 22.751 11.9696 22.75 13.5616V14.2226C22.75 16.0606 22.75 17.5166 22.597 18.6556C22.439 19.8276 22.107 20.7766 21.359 21.5256C20.61 22.2736 19.661 22.6056 18.489 22.7636C17.349 22.9166 15.894 22.9166 14.056 22.9166H9.944C8.106 22.9166 6.65 22.9166 5.511 22.7636C4.339 22.6056 3.39 22.2736 2.641 21.5256C1.893 20.7766 1.561 19.8276 1.403 18.6556C1.25 17.5156 1.25 16.0606 1.25 14.2226V10.1116C1.25 8.27363 1.25 6.81763 1.403 5.67863C1.561 4.50663 1.893 3.55763 2.641 2.80863C3.391 2.05963 4.342 1.72863 5.519 1.57063C6.663 1.41763 8.126 1.41763 9.974 1.41763H10.03L10.175 1.41663Z" fill="#44C5B1"/>
</svg>
