<svg width="24" height="25" viewBox="0 0 24 25" fill="none" xmlns="http://www.w3.org/2000/svg">
<g clip-path="url(#clip0_7864_29560)">
<path d="M16.59 9.6001H15V4.6001C15 4.0501 14.55 3.6001 14 3.6001H10C9.45 3.6001 9 4.0501 9 4.6001V9.6001H7.41C6.52 9.6001 6.07 10.6801 6.7 11.3101L11.29 15.9001C11.68 16.2901 12.31 16.2901 12.7 15.9001L17.29 11.3101C17.92 10.6801 17.48 9.6001 16.59 9.6001ZM5 19.6001C5 20.1501 5.45 20.6001 6 20.6001H18C18.55 20.6001 19 20.1501 19 19.6001C19 19.0501 18.55 18.6001 18 18.6001H6C5.45 18.6001 5 19.0501 5 19.6001Z" fill="#323232"/>
</g>
<defs>
<clipPath id="clip0_7864_29560">
<rect width="24" height="24" fill="white" transform="translate(0 0.600098)"/>
</clipPath>
</defs>
</svg>
