<svg width="24" height="25" viewBox="0 0 24 25" fill="none" xmlns="http://www.w3.org/2000/svg">
<path d="M21 22.0616H3C2.59 22.0616 2.25 21.7216 2.25 21.3116C2.25 20.9016 2.59 20.5616 3 20.5616H21C21.41 20.5616 21.75 20.9016 21.75 21.3116C21.75 21.7216 21.41 22.0616 21 22.0616Z" fill="#219EBC"/>
<path d="M19.0201 3.54168C17.0801 1.60168 15.1801 1.55168 13.1901 3.54168L11.9801 4.75168C11.8801 4.85168 11.8401 5.01168 11.8801 5.15168C12.6401 7.80168 14.7601 9.92168 17.4101 10.6817C17.4501 10.6917 17.4901 10.7017 17.5301 10.7017C17.6401 10.7017 17.7401 10.6617 17.8201 10.5817L19.0201 9.37168C20.0101 8.39168 20.4901 7.44168 20.4901 6.48168C20.5001 5.49168 20.0201 4.53168 19.0201 3.54168Z" fill="#219EBC"/>
<path d="M15.6098 11.5917C15.3198 11.4517 15.0398 11.3117 14.7698 11.1517C14.5498 11.0217 14.3398 10.8817 14.1298 10.7317C13.9598 10.6217 13.7598 10.4617 13.5698 10.3017C13.5498 10.2917 13.4798 10.2317 13.3998 10.1517C13.0698 9.87169 12.6998 9.51169 12.3698 9.11169C12.3398 9.09169 12.2898 9.02169 12.2198 8.93169C12.1198 8.81169 11.9498 8.61169 11.7998 8.38169C11.6798 8.23169 11.5398 8.01169 11.4098 7.79169C11.2498 7.52169 11.1098 7.25169 10.9698 6.97169C10.9486 6.9263 10.9281 6.88113 10.9083 6.83623C10.7607 6.50291 10.3261 6.40547 10.0683 6.66322L4.33983 12.3917C4.20983 12.5217 4.08983 12.7717 4.05983 12.9417L3.51983 16.7717C3.41983 17.4517 3.60983 18.0917 4.02983 18.5217C4.38983 18.8717 4.88983 19.0617 5.42983 19.0617C5.54983 19.0617 5.66983 19.0517 5.78983 19.0317L9.62983 18.4917C9.80983 18.4617 10.0598 18.3417 10.1798 18.2117L15.9011 12.4904C16.1607 12.2308 16.0628 11.7854 15.7252 11.6413C15.6872 11.6251 15.6488 11.6086 15.6098 11.5917Z" fill="#219EBC"/>
</svg>
