<svg width="32" height="33" viewBox="0 0 32 33" fill="none" xmlns="http://www.w3.org/2000/svg">
<rect y="0.5" width="32" height="32" rx="8" fill="#D3ECF2"/>
<g clip-path="url(#clip0_3548_50389)">
<path d="M10 20.14V22.1666C10 22.3533 10.1467 22.5 10.3333 22.5H12.36C12.4467 22.5 12.5333 22.4666 12.5933 22.4L19.8733 15.1266L17.3733 12.6266L10.1 19.9C10.0333 19.9666 10 20.0466 10 20.14ZM21.8067 13.1933C22.0667 12.9333 22.0667 12.5133 21.8067 12.2533L20.2467 10.6933C19.9867 10.4333 19.5667 10.4333 19.3067 10.6933L18.0867 11.9133L20.5867 14.4133L21.8067 13.1933Z" fill="#219EBC"/>
</g>
<defs>
<clipPath id="clip0_3548_50389">
<rect width="16" height="16" fill="white" transform="translate(8 8.5)"/>
</clipPath>
</defs>
</svg>
