<svg width="20" height="21" viewBox="0 0 20 21" fill="none" xmlns="http://www.w3.org/2000/svg">
<g clip-path="url(#clip0_3144_33230)">
<path d="M17.9606 3.83324C17.8849 3.82544 17.8085 3.82544 17.7328 3.83324H2.17726C2.07756 3.83478 1.97852 3.84973 1.88281 3.87769L9.91059 11.8721L17.9606 3.83324Z" fill="#667085"/>
<path d="M18.7814 4.60547L10.6925 12.661C10.4844 12.868 10.2027 12.9841 9.9092 12.9841C9.61566 12.9841 9.33405 12.868 9.12587 12.661L1.1092 4.66658C1.08456 4.75716 1.07149 4.85049 1.07031 4.94436V16.0555C1.07031 16.3502 1.18738 16.6328 1.39575 16.8411C1.60412 17.0495 1.88674 17.1666 2.18142 17.1666H17.737C18.0317 17.1666 18.3143 17.0495 18.5227 16.8411C18.731 16.6328 18.8481 16.3502 18.8481 16.0555V4.94436C18.8437 4.82861 18.8212 4.71427 18.7814 4.60547ZM2.94254 16.0555H2.17031V15.261L6.2092 11.2555L6.99254 12.0388L2.94254 16.0555ZM17.7259 16.0555H16.9481L12.8981 12.0388L13.6814 11.2555L17.7203 15.261L17.7259 16.0555Z" fill="#667085"/>
</g>
<defs>
<clipPath id="clip0_3144_33230">
<rect width="20" height="20" fill="white" transform="translate(0 0.5)"/>
</clipPath>
</defs>
</svg>
