<svg xmlns="http://www.w3.org/2000/svg" xmlns:xlink="http://www.w3.org/1999/xlink" width="80" zoomAndPan="magnify" viewBox="0 0 37.5 37.499999" height="80" preserveAspectRatio="xMidYMid meet" version="1.0"><path fill="#737373" d="M 21.597656 14.632812 C 21.597656 14.203125 21.25 13.859375 20.824219 13.859375 C 20.394531 13.859375 20.046875 14.203125 20.046875 14.632812 C 20.046875 15.058594 20.394531 15.40625 20.824219 15.40625 C 21.25 15.40625 21.597656 15.058594 21.597656 14.632812 Z M 20.824219 12.308594 C 22.105469 12.308594 23.144531 13.347656 23.144531 14.632812 C 23.144531 15.914062 22.105469 16.953125 20.824219 16.953125 C 19.539062 16.953125 18.5 15.914062 18.5 14.632812 C 18.5 13.347656 19.539062 12.308594 20.824219 12.308594 Z M 20.824219 12.308594 " fill-opacity="1" fill-rule="evenodd"/><path fill="#737373" d="M 16.953125 22.371094 C 16.953125 21.941406 16.605469 21.597656 16.179688 21.597656 C 15.753906 21.597656 15.40625 21.941406 15.40625 22.371094 C 15.40625 22.796875 15.753906 23.144531 16.179688 23.144531 C 16.605469 23.144531 16.953125 22.796875 16.953125 22.371094 Z M 16.179688 20.046875 C 17.460938 20.046875 18.5 21.089844 18.5 22.371094 C 18.5 23.652344 17.460938 24.691406 16.179688 24.691406 C 14.898438 24.691406 13.859375 23.652344 13.859375 22.371094 C 13.859375 21.089844 14.898438 20.046875 16.179688 20.046875 Z M 16.179688 20.046875 " fill-opacity="1" fill-rule="evenodd"/><path fill="#737373" d="M 20.046875 14.632812 C 20.046875 15.058594 19.703125 15.40625 19.273438 15.40625 L 12.308594 15.40625 C 11.882812 15.40625 11.535156 15.058594 11.535156 14.632812 C 11.535156 14.203125 11.882812 13.859375 12.308594 13.859375 L 19.273438 13.859375 C 19.703125 13.859375 20.046875 14.203125 20.046875 14.632812 Z M 20.046875 14.632812 " fill-opacity="1" fill-rule="evenodd"/><path fill="#737373" d="M 25.464844 14.632812 C 25.464844 15.058594 25.121094 15.40625 24.691406 15.40625 L 22.371094 15.40625 C 21.941406 15.40625 21.597656 15.058594 21.597656 14.632812 C 21.597656 14.203125 21.941406 13.859375 22.371094 13.859375 L 24.691406 13.859375 C 25.121094 13.859375 25.464844 14.203125 25.464844 14.632812 Z M 25.464844 14.632812 " fill-opacity="1" fill-rule="evenodd"/><path fill="#737373" d="M 15.40625 22.371094 C 15.40625 22.796875 15.058594 23.144531 14.632812 23.144531 L 12.308594 23.144531 C 11.882812 23.144531 11.535156 22.796875 11.535156 22.371094 C 11.535156 21.941406 11.882812 21.597656 12.308594 21.597656 L 14.632812 21.597656 C 15.058594 21.597656 15.40625 21.941406 15.40625 22.371094 Z M 15.40625 22.371094 " fill-opacity="1" fill-rule="evenodd"/><path fill="#737373" d="M 25.464844 22.371094 C 25.464844 22.796875 25.121094 23.144531 24.691406 23.144531 L 17.726562 23.144531 C 17.300781 23.144531 16.953125 22.796875 16.953125 22.371094 C 16.953125 21.941406 17.300781 21.597656 17.726562 21.597656 L 24.691406 21.597656 C 25.121094 21.597656 25.464844 21.941406 25.464844 22.371094 Z M 25.464844 22.371094 " fill-opacity="1" fill-rule="evenodd"/></svg>