<svg width="16" height="17" viewBox="0 0 16 17" fill="none" xmlns="http://www.w3.org/2000/svg">
<path d="M8 16.0615C12.4183 16.0615 16 12.4798 16 8.06152C16 3.64325 12.4183 0.0615234 8 0.0615234C3.58172 0.0615234 0 3.64325 0 8.06152C0 12.4798 3.58172 16.0615 8 16.0615Z" fill="white"/>
<path d="M4.5 7.06152L7.394 9.95552C7.42213 9.98361 7.46025 9.99939 7.5 9.99939C7.53975 9.99939 7.57787 9.98361 7.606 9.95552L15.5 2.06152" stroke="#12B76A" stroke-width="1.2"/>
<path d="M15.3579 6.6085C15.6899 8.28969 15.4362 10.0339 14.639 11.5508C13.8418 13.0678 12.5492 14.266 10.9762 14.946C9.40325 15.626 7.64485 15.7469 5.99364 15.2884C4.34244 14.83 2.89802 13.8199 1.90077 12.4263C0.903518 11.0327 0.413588 9.33963 0.512513 7.62883C0.611437 5.91802 1.29325 4.29269 2.44448 3.02331C3.59571 1.75394 5.14693 0.917091 6.83997 0.652036C8.53301 0.386981 10.2658 0.709707 11.7499 1.5665" stroke="#12B76A" stroke-linecap="round"/>
</svg>
