<svg width="41" height="40" viewBox="0 0 41 40" fill="none" xmlns="http://www.w3.org/2000/svg">
<path d="M20.5 0C9.472 0 0.5 8.972 0.5 20V28.286C0.5 30.334 2.294 32 4.5 32H6.5C7.03043 32 7.53914 31.7893 7.91421 31.4142C8.28929 31.0391 8.5 30.5304 8.5 30V19.714C8.5 19.1836 8.28929 18.6749 7.91421 18.2998C7.53914 17.9247 7.03043 17.714 6.5 17.714H4.684C5.796 9.974 12.456 4 20.5 4C28.544 4 35.204 9.974 36.316 17.714H34.5C33.9696 17.714 33.4609 17.9247 33.0858 18.2998C32.7107 18.6749 32.5 19.1836 32.5 19.714V32C32.5 34.206 30.706 36 28.5 36H24.5V34H16.5V40H28.5C32.912 40 36.5 36.412 36.5 32C38.706 32 40.5 30.334 40.5 28.286V20C40.5 8.972 31.528 0 20.5 0Z" fill="#219EBC"/>
</svg>
