<svg width="12" height="14" viewBox="0 0 12 14" fill="none" xmlns="http://www.w3.org/2000/svg">
<path d="M7.33268 0.333252H1.99935C1.64573 0.333252 1.30659 0.473728 1.05654 0.723776C0.806491 0.973825 0.666016 1.31296 0.666016 1.66659V12.3333C0.666016 12.6869 0.806491 13.026 1.05654 13.2761C1.30659 13.5261 1.64573 13.6666 1.99935 13.6666H9.99935C10.353 13.6666 10.6921 13.5261 10.9422 13.2761C11.1922 13.026 11.3327 12.6869 11.3327 12.3333V4.33325L7.33268 0.333252ZM4.33135 9.79325C4.12535 9.98659 3.82135 10.0733 3.46735 10.0733C3.39871 10.074 3.3301 10.07 3.26202 10.0613V11.0119H2.66602V8.38792C2.93499 8.3478 3.20676 8.32951 3.47868 8.33325C3.85002 8.33325 4.11402 8.40392 4.29202 8.54592C4.46135 8.68059 4.57602 8.90125 4.57602 9.16125C4.57535 9.42259 4.48868 9.64325 4.33135 9.79325ZM6.86935 10.6966C6.58935 10.9293 6.16335 11.0399 5.64268 11.0399C5.33068 11.0399 5.11002 11.0199 4.96002 10.9999V8.38859C5.22908 8.34931 5.50077 8.33081 5.77268 8.33325C6.27735 8.33325 6.60535 8.42392 6.86135 8.61725C7.13802 8.82259 7.31135 9.14992 7.31135 9.61992C7.31135 10.1286 7.12535 10.4799 6.86935 10.6966ZM9.33268 8.84659H8.31135V9.45392H9.26602V9.94325H8.31135V11.0126H7.70735V8.35325H9.33268V8.84659ZM7.33268 4.99992H6.66602V1.66659L9.99935 4.99992H7.33268Z" fill="#F04438"/>
</svg>
