<svg width="101" height="100" viewBox="0 0 101 100" fill="none" xmlns="http://www.w3.org/2000/svg">
<rect x="0.5" width="100" height="100" rx="50" fill="#FEF0C7"/>
<path d="M30.8555 26.0005L45.4872 51.3412L55.5175 45.5481L44.2293 26.0005H30.8555Z" fill="#212529"/>
<path d="M55.5131 45.5475L49.5462 35.2026L46.8318 39.8951C46.3475 40.296 45.8134 40.6325 45.2428 40.8964C43.5876 41.2937 41.5683 40.7888 39.9297 41.7737L45.4828 51.3819L55.5131 45.5475Z" fill="#111315"/>
<path d="M52.6514 47.2032L48.348 49.686L34.668 26.0005H40.4031L52.6514 47.2032Z" fill="#DD051D"/>
<path d="M52.6536 47.2028L47.6385 38.5132C47.3082 39.352 46.7067 40.0562 45.9298 40.5137C45.1529 40.9711 44.2453 41.1554 43.3516 41.0373L48.3171 49.6856L52.6536 47.2028Z" fill="#A60416"/>
<path d="M56.7726 26.0005L45.4844 45.5481L55.5147 51.3412L70.1464 26.0005H56.7726Z" fill="#212529"/>
<path d="M55.5147 51.3406L61.0678 41.7241C59.4126 40.7392 57.3768 41.2358 55.7547 40.8468C53.9258 40.0192 52.0058 37.8261 49.5313 38.5213L45.4844 45.5392L55.5147 51.3406Z" fill="#111315"/>
<path d="M66.335 26.0005L52.655 49.686L48.3516 47.2032L60.5998 26.0005H66.335Z" fill="#DD051D"/>
<path d="M52.655 49.687L57.6205 41.0388C56.9964 41.0702 56.3708 41.0229 55.7585 40.8981C54.8035 40.3665 53.878 39.7836 52.986 39.1519L48.3516 47.2043L52.655 49.687Z" fill="#A60416"/>
<path d="M65.8555 57.0344C65.8555 55.2882 67.1548 53.3599 66.683 51.7875C66.2113 50.2151 63.9106 49.3709 62.9175 48.0137C61.9244 46.6564 61.8417 44.3061 60.4348 43.3047C59.0279 42.3033 56.8348 42.9571 55.2044 42.4357C53.5741 41.9144 52.2499 40.0688 50.5037 40.0688C48.7575 40.0688 47.3341 41.9226 45.7617 42.4357C44.1893 42.9488 41.8886 42.3199 40.5313 43.3047C39.1741 44.2895 39.083 46.6151 38.0486 48.0137C37.0141 49.4123 34.8624 50.1571 34.3327 51.7875C33.803 53.4178 35.1189 55.2882 35.1189 57.0344C35.1189 58.7806 33.8196 60.7088 34.3327 62.2813C34.8458 63.8537 37.0968 64.6978 38.0899 66.0551C39.083 67.4123 39.1658 69.7626 40.5727 70.764C41.9796 71.7654 44.1727 71.1116 45.803 71.5916C47.4334 72.0716 48.7575 73.9999 50.5037 73.9999C52.2499 73.9999 53.6734 72.1461 55.2458 71.633C56.8182 71.1199 59.1189 71.7488 60.4762 70.8054C61.8334 69.8619 61.9244 67.4951 62.9589 66.0964C63.9934 64.6978 66.1451 63.953 66.6748 62.3226C67.2044 60.6923 65.8555 58.7806 65.8555 57.0344Z" fill="#FCCD1D"/>
<path d="M50.5 69.0347C57.1274 69.0347 62.5 63.6621 62.5 57.0347C62.5 50.4073 57.1274 45.0347 50.5 45.0347C43.8726 45.0347 38.5 50.4073 38.5 57.0347C38.5 63.6621 43.8726 69.0347 50.5 69.0347Z" fill="#F9A215"/>
<path d="M51.6391 50.8272L52.897 53.0038C52.9883 53.1664 53.1142 53.307 53.2657 53.4157C53.4173 53.5244 53.5909 53.5985 53.7742 53.6327L56.2984 54.1376C56.5241 54.1766 56.7351 54.2761 56.9087 54.4256C57.0824 54.5751 57.2122 54.7688 57.2844 54.9863C57.3566 55.2037 57.3684 55.4367 57.3187 55.6603C57.2689 55.8839 57.1594 56.0899 57.0018 56.2562L55.2639 58.0934C55.1374 58.2267 55.0421 58.3865 54.9849 58.5611C54.9276 58.7357 54.9099 58.9208 54.9329 59.1031L55.2308 61.5858C55.2533 61.8136 55.2152 62.0432 55.1205 62.2516C55.0257 62.4599 54.8776 62.6395 54.6912 62.7722C54.5047 62.9049 54.2865 62.986 54.0587 63.0073C53.8308 63.0286 53.6014 62.9893 53.3935 62.8934L51.068 61.8424C50.8964 61.7647 50.7102 61.7245 50.5218 61.7245C50.3334 61.7245 50.1472 61.7647 49.9756 61.8424L47.6501 62.8934C47.4416 62.9934 47.2103 63.0359 46.9799 63.0165C46.7495 62.9972 46.5285 62.9168 46.3396 62.7835C46.1507 62.6503 46.0007 62.469 45.9052 62.2585C45.8097 62.048 45.7721 61.8158 45.7963 61.5858L46.0942 59.1031C46.1172 58.9208 46.0994 58.7357 46.0422 58.5611C45.985 58.3865 45.8897 58.2267 45.7632 58.0934L44.0253 56.2562C43.8679 56.091 43.758 55.8863 43.7074 55.6638C43.6567 55.4413 43.6671 55.2093 43.7375 54.9922C43.8079 54.7752 43.9356 54.5812 44.1072 54.4307C44.2787 54.2803 44.4878 54.179 44.7122 54.1376L47.1949 53.6493C47.3783 53.615 47.5518 53.5409 47.7034 53.4323C47.855 53.3236 47.9809 53.183 48.0722 53.0203L49.3715 50.8272C49.4877 50.6299 49.6535 50.4663 49.8523 50.3526C50.0512 50.239 50.2762 50.1792 50.5053 50.1792C50.7343 50.1792 50.9594 50.239 51.1582 50.3526C51.3571 50.4663 51.5228 50.6299 51.6391 50.8272Z" fill="#FCCD1D"/>
</svg>
