<svg width="24" height="24" viewBox="0 0 24 24" fill="none" xmlns="http://www.w3.org/2000/svg">
<rect width="24" height="24" rx="12" fill="#F2EFFE"/>
<path d="M18.0547 9.71994V14.2799C18.0547 15.0266 17.6547 15.7199 17.0081 16.0999L13.0481 18.3866C12.4014 18.7599 11.6014 18.7599 10.9481 18.3866L6.98807 16.0999C6.34141 15.7266 5.94141 15.0333 5.94141 14.2799V9.71994C5.94141 8.97327 6.34141 8.27991 6.98807 7.89991L10.9481 5.61325C11.5947 5.23992 12.3947 5.23992 13.0481 5.61325L17.0081 7.89991C17.6547 8.27991 18.0547 8.96661 18.0547 9.71994Z" stroke="#5740B0" stroke-linecap="round" stroke-linejoin="round"/>
<path d="M12.0026 11.3332C12.8604 11.3332 13.5559 10.6377 13.5559 9.77987C13.5559 8.92198 12.8604 8.22656 12.0026 8.22656C11.1447 8.22656 10.4492 8.92198 10.4492 9.77987C10.4492 10.6377 11.1447 11.3332 12.0026 11.3332Z" stroke="#5740B0" stroke-linecap="round" stroke-linejoin="round"/>
<path d="M14.6693 15.1066C14.6693 13.9066 13.4759 12.9333 12.0026 12.9333C10.5293 12.9333 9.33594 13.9066 9.33594 15.1066" stroke="#5740B0" stroke-linecap="round" stroke-linejoin="round"/>
</svg>
