<svg width="40" height="41" viewBox="0 0 40 41" fill="none" xmlns="http://www.w3.org/2000/svg">
<path d="M17.125 21H22.875C22.9437 21 23 20.9438 23 20.875V20.125C23 20.0562 22.9437 20 22.875 20H17.125C17.0562 20 17 20.0562 17 20.125V20.875C17 20.9438 17.0562 21 17.125 21Z" fill="#219EBC"/>
<path d="M25.75 14.25H14.25C13.9734 14.25 13.75 14.4734 13.75 14.75V26.25C13.75 26.5266 13.9734 26.75 14.25 26.75H25.75C26.0266 26.75 26.25 26.5266 26.25 26.25V14.75C26.25 14.4734 26.0266 14.25 25.75 14.25ZM25.125 25.625H14.875V15.375H25.125V25.625Z" fill="#219EBC"/>
</svg>
