<svg width="24" height="24" viewBox="0 0 24 24" fill="none" xmlns="http://www.w3.org/2000/svg">
<rect width="24" height="24" rx="12" fill="#FEF4E6"/>
<path d="M6.83984 10.8466V14.16C6.83984 15.3733 6.83984 15.3733 7.98651 16.1466L11.1398 17.9666C11.6132 18.24 12.3865 18.24 12.8598 17.9666L16.0132 16.1466C17.1598 15.3733 17.1598 15.3733 17.1598 14.16V10.8466C17.1598 9.63329 17.1598 9.63329 16.0132 8.85996L12.8598 7.03996C12.3865 6.76663 11.6132 6.76663 11.1398 7.03996L7.98651 8.85996C6.83984 9.63329 6.83984 9.63329 6.83984 10.8466Z" stroke="#AF6606" stroke-linecap="round" stroke-linejoin="round"/>
<path d="M15.6654 8.58659V6.83325C15.6654 5.49992 14.9987 4.83325 13.6654 4.83325H10.332C8.9987 4.83325 8.33203 5.49992 8.33203 6.83325V8.53992" stroke="#AF6606" stroke-linecap="round" stroke-linejoin="round"/>
<path d="M12.4212 10.8266L12.8012 11.42C12.8612 11.5133 12.9945 11.6066 13.0945 11.6333L13.7745 11.8066C14.1945 11.9133 14.3078 12.2733 14.0345 12.6066L13.5878 13.1466C13.5212 13.2333 13.4678 13.3866 13.4745 13.4933L13.5145 14.1933C13.5412 14.6266 13.2345 14.8466 12.8345 14.6866L12.1812 14.4266C12.0812 14.3866 11.9145 14.3866 11.8145 14.4266L11.1612 14.6866C10.7612 14.8466 10.4545 14.62 10.4812 14.1933L10.5212 13.4933C10.5278 13.3866 10.4745 13.2266 10.4078 13.1466L9.96116 12.6066C9.68782 12.2733 9.80116 11.9133 10.2212 11.8066L10.9012 11.6333C11.0078 11.6066 11.1412 11.5066 11.1945 11.42L11.5745 10.8266C11.8145 10.4666 12.1878 10.4666 12.4212 10.8266Z" stroke="#AF6606" stroke-linecap="round" stroke-linejoin="round"/>
</svg>
