<svg width="37" height="36" viewBox="0 0 37 36" fill="none" xmlns="http://www.w3.org/2000/svg">
<path d="M21.0934 5.26496L23.7334 10.545C24.0934 11.28 25.0534 11.985 25.8634 12.12L30.6484 12.915C33.7084 13.425 34.4284 15.645 32.2234 17.835L28.5034 21.555C27.8734 22.185 27.5284 23.4 27.7234 24.27L28.7884 28.875C29.6284 32.52 27.6934 33.93 24.4684 32.025L19.9834 29.37C19.1734 28.89 17.8384 28.89 17.0134 29.37L12.5284 32.025C9.3184 33.93 7.3684 32.505 8.2084 28.875L9.2734 24.27C9.4684 23.4 9.1234 22.185 8.4934 21.555L4.7734 17.835C2.5834 15.645 3.2884 13.425 6.3484 12.915L11.1334 12.12C11.9284 11.985 12.8884 11.28 13.2484 10.545L15.8884 5.26496C17.3284 2.39996 19.6684 2.39996 21.0934 5.26496Z" stroke="#D9D9D9" stroke-width="2" stroke-linecap="round" stroke-linejoin="round"/>
</svg>
