<svg width="24" height="24" viewBox="0 0 24 24" fill="none" xmlns="http://www.w3.org/2000/svg">
<path d="M21.0697 5.23012C19.4597 5.07012 17.8497 4.95012 16.2297 4.86012V4.85012L16.0097 3.55012C15.8597 2.63012 15.6397 1.25012 13.2997 1.25012H10.6797C8.34967 1.25012 8.12967 2.57012 7.96967 3.54012L7.75967 4.82012C6.82967 4.88012 5.89967 4.94012 4.96967 5.03012L2.92967 5.23012C2.50967 5.27012 2.20967 5.64012 2.24967 6.05012C2.28967 6.46012 2.64967 6.76012 3.06967 6.72012L5.10967 6.52012C10.3497 6.00012 15.6297 6.20012 20.9297 6.73012C20.9597 6.73012 20.9797 6.73012 21.0097 6.73012C21.3897 6.73012 21.7197 6.44012 21.7597 6.05012C21.7897 5.64012 21.4897 5.27012 21.0697 5.23012Z" fill="#F04438"/>
<path d="M19.2297 8.13988C18.9897 7.88988 18.6597 7.74988 18.3197 7.74988H5.67975C5.33975 7.74988 4.99975 7.88988 4.76975 8.13988C4.53975 8.38988 4.40975 8.72988 4.42975 9.07988L5.04975 19.3399C5.15975 20.8599 5.29975 22.7599 8.78975 22.7599H15.2097C18.6997 22.7599 18.8398 20.8699 18.9497 19.3399L19.5697 9.08988C19.5897 8.72988 19.4597 8.38988 19.2297 8.13988ZM13.6597 17.7499H10.3297C9.91975 17.7499 9.57975 17.4099 9.57975 16.9999C9.57975 16.5899 9.91975 16.2499 10.3297 16.2499H13.6597C14.0697 16.2499 14.4097 16.5899 14.4097 16.9999C14.4097 17.4099 14.0697 17.7499 13.6597 17.7499ZM14.4997 13.7499H9.49975C9.08975 13.7499 8.74975 13.4099 8.74975 12.9999C8.74975 12.5899 9.08975 12.2499 9.49975 12.2499H14.4997C14.9097 12.2499 15.2497 12.5899 15.2497 12.9999C15.2497 13.4099 14.9097 13.7499 14.4997 13.7499Z" fill="#F04438"/>
</svg>
