<svg width="37" height="36" viewBox="0 0 37 36" fill="none" xmlns="http://www.w3.org/2000/svg">
<path d="M3.5 6.5C3.5 4.568 5.068 3 7 3H10C10.3978 3 10.7794 2.84196 11.0607 2.56066C11.342 2.27936 11.5 1.89782 11.5 1.5C11.5 1.10218 11.342 0.720644 11.0607 0.43934C10.7794 0.158035 10.3978 0 10 0H7C5.27609 0 3.62279 0.684819 2.40381 1.90381C1.18482 3.12279 0.5 4.77609 0.5 6.5V9.5C0.5 9.89782 0.658035 10.2794 0.93934 10.5607C1.22064 10.842 1.60218 11 2 11C2.39782 11 2.77936 10.842 3.06066 10.5607C3.34196 10.2794 3.5 9.89782 3.5 9.5V6.5ZM30 3C31.932 3 33.5 4.568 33.5 6.5V9.5C33.5 9.89782 33.658 10.2794 33.9393 10.5607C34.2206 10.842 34.6022 11 35 11C35.3978 11 35.7794 10.842 36.0607 10.5607C36.342 10.2794 36.5 9.89782 36.5 9.5V6.5C36.5 4.77609 35.8152 3.12279 34.5962 1.90381C33.3772 0.684819 31.7239 0 30 0H27C26.6022 0 26.2206 0.158035 25.9393 0.43934C25.658 0.720644 25.5 1.10218 25.5 1.5C25.5 1.89782 25.658 2.27936 25.9393 2.56066C26.2206 2.84196 26.6022 3 27 3H30ZM30 33C30.9283 33 31.8185 32.6312 32.4749 31.9749C33.1312 31.3185 33.5 30.4283 33.5 29.5V26.5C33.5 26.1022 33.658 25.7206 33.9393 25.4393C34.2206 25.158 34.6022 25 35 25C35.3978 25 35.7794 25.158 36.0607 25.4393C36.342 25.7206 36.5 26.1022 36.5 26.5V29.5C36.5 31.2239 35.8152 32.8772 34.5962 34.0962C33.3772 35.3152 31.7239 36 30 36H27C26.6022 36 26.2206 35.842 25.9393 35.5607C25.658 35.2794 25.5 34.8978 25.5 34.5C25.5 34.1022 25.658 33.7206 25.9393 33.4393C26.2206 33.158 26.6022 33 27 33H30ZM7 33C6.07174 33 5.1815 32.6312 4.52513 31.9749C3.86875 31.3185 3.5 30.4283 3.5 29.5V26.5C3.5 26.1022 3.34196 25.7206 3.06066 25.4393C2.77936 25.158 2.39782 25 2 25C1.60218 25 1.22064 25.158 0.93934 25.4393C0.658035 25.7206 0.5 26.1022 0.5 26.5V29.5C0.5 31.2239 1.18482 32.8772 2.40381 34.0962C3.62279 35.3152 5.27609 36 7 36H10C10.3978 36 10.7794 35.842 11.0607 35.5607C11.342 35.2794 11.5 34.8978 11.5 34.5C11.5 34.1022 11.342 33.7206 11.0607 33.4393C10.7794 33.158 10.3978 33 10 33H7ZM11 6C9.80653 6 8.66193 6.47411 7.81802 7.31802C6.97411 8.16193 6.5 9.30653 6.5 10.5V25.5C6.5 26.6935 6.97411 27.8381 7.81802 28.682C8.66193 29.5259 9.80653 30 11 30H26C27.1935 30 28.3381 29.5259 29.182 28.682C30.0259 27.8381 30.5 26.6935 30.5 25.5V10.5C30.5 9.30653 30.0259 8.16193 29.182 7.31802C28.3381 6.47411 27.1935 6 26 6H11Z" fill="#219EBC"/>
</svg>
