<svg width="41" height="41" viewBox="0 0 41 41" fill="none" xmlns="http://www.w3.org/2000/svg">
<rect x="1.36687" y="1.36492" width="38.27" height="38.27" rx="19.135" fill="white"/>
<rect x="1.36687" y="1.36492" width="38.27" height="38.27" rx="19.135" stroke="#F0F1F3" stroke-width="0.89"/>
<path d="M18.1055 22.9027L19.4405 24.2377L23.0005 20.6777" stroke="#D0D3D9" stroke-width="1.335" stroke-linecap="round" stroke-linejoin="round"/>
<path d="M18.7214 15.1599H22.2814C24.0614 15.1599 24.0614 14.2699 24.0614 13.3799C24.0614 11.5999 23.1714 11.5999 22.2814 11.5999H18.7214C17.8314 11.5999 16.9414 11.5999 16.9414 13.3799C16.9414 15.1599 17.8314 15.1599 18.7214 15.1599Z" stroke="#D0D3D9" stroke-width="1.335" stroke-miterlimit="10" stroke-linecap="round" stroke-linejoin="round"/>
<path d="M24.0622 13.3977C27.0259 13.5579 28.5122 14.6526 28.5122 18.7199V24.0599C28.5122 27.6199 27.6222 29.3999 23.1722 29.3999H17.8322C13.3822 29.3999 12.4922 27.6199 12.4922 24.0599V18.7199C12.4922 14.6615 13.9785 13.5579 16.9422 13.3977" stroke="#D0D3D9" stroke-width="1.335" stroke-miterlimit="10" stroke-linecap="round" stroke-linejoin="round"/>
</svg>
