<svg width="32" height="33" viewBox="0 0 32 33" fill="none" xmlns="http://www.w3.org/2000/svg">
<rect y="0.5" width="32" height="32" rx="4" fill="#FEECEB"/>
<path d="M22.0466 11.9867C20.9733 11.88 19.8999 11.8 18.8199 11.74V11.7334L18.6733 10.8667C18.5733 10.2534 18.4266 9.33337 16.8666 9.33337H15.1199C13.5666 9.33337 13.4199 10.2134 13.3133 10.86L13.1733 11.7134C12.5533 11.7534 11.9333 11.7934 11.3133 11.8534L9.95328 11.9867C9.67328 12.0134 9.47328 12.26 9.49994 12.5334C9.52661 12.8067 9.76661 13.0067 10.0466 12.98L11.4066 12.8467C14.8999 12.5 18.4199 12.6334 21.9533 12.9867C21.9733 12.9867 21.9866 12.9867 22.0066 12.9867C22.2599 12.9867 22.4799 12.7934 22.5066 12.5334C22.5266 12.26 22.3266 12.0134 22.0466 11.9867Z" fill="#F04438"/>
<path d="M20.8199 13.9266C20.6599 13.76 20.4399 13.6666 20.2132 13.6666H11.7866C11.5599 13.6666 11.3332 13.76 11.1799 13.9266C11.0266 14.0933 10.9399 14.32 10.9532 14.5533L11.3666 21.3933C11.4399 22.4066 11.5332 23.6733 13.8599 23.6733H18.1399C20.4666 23.6733 20.5599 22.4133 20.6332 21.3933L21.0466 14.56C21.0599 14.32 20.9732 14.0933 20.8199 13.9266ZM17.1066 20.3333H14.8866C14.6132 20.3333 14.3866 20.1066 14.3866 19.8333C14.3866 19.56 14.6132 19.3333 14.8866 19.3333H17.1066C17.3799 19.3333 17.6066 19.56 17.6066 19.8333C17.6066 20.1066 17.3799 20.3333 17.1066 20.3333ZM17.6666 17.6666H14.3332C14.0599 17.6666 13.8332 17.44 13.8332 17.1666C13.8332 16.8933 14.0599 16.6666 14.3332 16.6666H17.6666C17.9399 16.6666 18.1666 16.8933 18.1666 17.1666C18.1666 17.44 17.9399 17.6666 17.6666 17.6666Z" fill="#F04438"/>
</svg>
