<svg width="48" height="48" viewBox="0 0 48 48" fill="none" xmlns="http://www.w3.org/2000/svg">
<rect width="48" height="48" rx="8" fill="#F04438"/>
<path d="M31.5584 18.3584C30.2167 18.2251 28.875 18.1251 27.525 18.0501V18.0417L27.3417 16.9584C27.2167 16.1917 27.0334 15.0417 25.0834 15.0417H22.9C20.9584 15.0417 20.775 16.1417 20.6417 16.9501L20.4667 18.0167C19.6917 18.0667 18.9167 18.1167 18.1417 18.1917L16.4417 18.3584C16.0917 18.3917 15.8417 18.7001 15.875 19.0417C15.9084 19.3834 16.2084 19.6334 16.5584 19.6001L18.2584 19.4334C22.625 19.0001 27.0251 19.1667 31.4417 19.6084C31.4667 19.6084 31.4834 19.6084 31.5084 19.6084C31.8251 19.6084 32.1 19.3667 32.1334 19.0417C32.1584 18.7001 31.9084 18.3917 31.5584 18.3584Z" fill="white"/>
<path d="M30.025 20.7833C29.825 20.5749 29.55 20.4583 29.2666 20.4583H18.7333C18.45 20.4583 18.1666 20.5749 17.975 20.7833C17.7833 20.9916 17.675 21.2749 17.6916 21.5666L18.2083 30.1166C18.3 31.3833 18.4166 32.9666 21.325 32.9666H26.675C29.5833 32.9666 29.7 31.3916 29.7916 30.1166L30.3083 21.5749C30.325 21.2749 30.2166 20.9916 30.025 20.7833ZM25.3833 28.7916H22.6083C22.2666 28.7916 21.9833 28.5083 21.9833 28.1666C21.9833 27.8249 22.2666 27.5416 22.6083 27.5416H25.3833C25.725 27.5416 26.0083 27.8249 26.0083 28.1666C26.0083 28.5083 25.725 28.7916 25.3833 28.7916ZM26.0833 25.4583H21.9166C21.575 25.4583 21.2916 25.1749 21.2916 24.8333C21.2916 24.4916 21.575 24.2083 21.9166 24.2083H26.0833C26.425 24.2083 26.7083 24.4916 26.7083 24.8333C26.7083 25.1749 26.425 25.4583 26.0833 25.4583Z" fill="white"/>
</svg>
