<svg width="64" height="64" viewBox="0 0 64 64" fill="none" xmlns="http://www.w3.org/2000/svg">
<g filter="url(#filter0_d_1_30)">
<rect x="15" y="14" width="32" height="32" rx="16" fill="white" shape-rendering="crispEdges"/>
<path d="M23 34.8538V37.5556C23 37.8045 23.1955 38 23.4444 38H26.1462C26.2618 38 26.3773 37.9556 26.4573 37.8667L36.1626 28.1703L32.8297 24.8374L23.1333 34.5338C23.0444 34.6227 23 34.7293 23 34.8538ZM38.74 25.5928C39.0867 25.2462 39.0867 24.6863 38.74 24.3397L36.6603 22.26C36.3137 21.9133 35.7538 21.9133 35.4072 22.26L33.7807 23.8864L37.1136 27.2193L38.74 25.5928V25.5928Z" fill="#2B2F38"/>
</g>
<defs>
<filter id="filter0_d_1_30" x="0" y="0" width="64" height="64" filterUnits="userSpaceOnUse" color-interpolation-filters="sRGB">
<feFlood flood-opacity="0" result="BackgroundImageFix"/>
<feColorMatrix in="SourceAlpha" type="matrix" values="0 0 0 0 0 0 0 0 0 0 0 0 0 0 0 0 0 0 127 0" result="hardAlpha"/>
<feOffset dx="1" dy="2"/>
<feGaussianBlur stdDeviation="8"/>
<feComposite in2="hardAlpha" operator="out"/>
<feColorMatrix type="matrix" values="0 0 0 0 0 0 0 0 0 0 0 0 0 0 0 0 0 0 0.12 0"/>
<feBlend mode="normal" in2="BackgroundImageFix" result="effect1_dropShadow_1_30"/>
<feBlend mode="normal" in="SourceGraphic" in2="effect1_dropShadow_1_30" result="shape"/>
</filter>
</defs>
</svg>
