<svg width="40" height="40" viewBox="0 0 40 40" fill="none" xmlns="http://www.w3.org/2000/svg">
<rect x="0.5" y="0.5" width="39" height="39" rx="19.5" stroke="#219EBC"/>
<path d="M20.7709 12.5008C21.3182 12.4987 21.8655 12.5042 22.4127 12.5173L22.5582 12.5226C22.7262 12.5286 22.8919 12.5361 23.0922 12.5451C23.8902 12.5826 24.4347 12.7086 24.9124 12.8938C25.4074 13.0843 25.8244 13.3423 26.2414 13.7593C26.6227 14.134 26.9178 14.5873 27.1062 15.0876C27.2914 15.5653 27.4174 16.1106 27.4549 16.9086C27.4639 17.1081 27.4714 17.2746 27.4774 17.4426L27.4819 17.5881C27.4953 18.1349 27.501 18.682 27.4992 19.2291L27.4999 19.7886V20.7711C27.5018 21.3184 27.496 21.8657 27.4827 22.4128L27.4782 22.5583C27.4722 22.7263 27.4647 22.8921 27.4557 23.0923C27.4182 23.8903 27.2907 24.4348 27.1062 24.9125C26.9184 25.4134 26.6233 25.867 26.2414 26.2416C25.8664 26.6228 25.4129 26.9179 24.9124 27.1063C24.4347 27.2916 23.8902 27.4176 23.0922 27.4551C22.8919 27.4641 22.7262 27.4716 22.5582 27.4776L22.4127 27.4821C21.8656 27.4954 21.3182 27.5011 20.7709 27.4993L20.2114 27.5001H19.2297C18.6824 27.5019 18.1351 27.4961 17.5879 27.4828L17.4424 27.4783C17.2644 27.4718 17.0864 27.4643 16.9084 27.4558C16.1104 27.4183 15.5659 27.2908 15.0874 27.1063C14.587 26.9183 14.1336 26.6232 13.7592 26.2416C13.3775 25.8668 13.0821 25.4132 12.8937 24.9125C12.7084 24.4348 12.5824 23.8903 12.5449 23.0923C12.5366 22.9143 12.5291 22.7363 12.5224 22.5583L12.5187 22.4128C12.5049 21.8657 12.4986 21.3184 12.4999 20.7711V19.2291C12.4979 18.682 12.5034 18.1349 12.5164 17.5881L12.5217 17.4426C12.5277 17.2746 12.5352 17.1081 12.5442 16.9086C12.5817 16.1098 12.7077 15.5661 12.8929 15.0876C13.0815 14.587 13.3774 14.1339 13.7599 13.7601C14.1341 13.3781 14.5872 13.0825 15.0874 12.8938C15.5659 12.7086 16.1097 12.5826 16.9084 12.5451L17.4424 12.5226L17.5879 12.5188C18.1348 12.505 18.6819 12.4987 19.2289 12.5001L20.7709 12.5008ZM19.9999 16.2508C19.5031 16.2438 19.0098 16.3356 18.5487 16.5209C18.0876 16.7061 17.6679 16.9812 17.3141 17.3301C16.9602 17.679 16.6792 18.0947 16.4875 18.5531C16.2957 19.0115 16.1969 19.5035 16.1969 20.0004C16.1969 20.4973 16.2957 20.9893 16.4875 21.4477C16.6792 21.9061 16.9602 22.3219 17.3141 22.6708C17.6679 23.0196 18.0876 23.2947 18.5487 23.48C19.0098 23.6653 19.5031 23.7571 19.9999 23.7501C20.9945 23.7501 21.9483 23.355 22.6516 22.6517C23.3549 21.9484 23.7499 20.9946 23.7499 20.0001C23.7499 19.0055 23.3549 18.0517 22.6516 17.3484C21.9483 16.6451 20.9945 16.2508 19.9999 16.2508ZM19.9999 17.7508C20.2988 17.7453 20.5958 17.7994 20.8735 17.91C21.1513 18.0205 21.4042 18.1853 21.6175 18.3947C21.8309 18.6041 22.0003 18.8539 22.116 19.1296C22.2317 19.4052 22.2913 19.7011 22.2914 20C22.2914 20.299 22.2319 20.5949 22.1163 20.8706C22.0007 21.1463 21.8313 21.3961 21.6181 21.6056C21.4048 21.8151 21.1519 21.98 20.8742 22.0906C20.5965 22.2013 20.2996 22.2555 20.0007 22.2501C19.404 22.2501 18.8317 22.013 18.4097 21.591C17.9877 21.1691 17.7507 20.5968 17.7507 20.0001C17.7507 19.4033 17.9877 18.831 18.4097 18.4091C18.8317 17.9871 19.404 17.7501 20.0007 17.7501L19.9999 17.7508ZM23.9374 15.1258C23.6955 15.1355 23.4667 15.2384 23.2989 15.413C23.1311 15.5876 23.0374 15.8204 23.0374 16.0626C23.0374 16.3047 23.1311 16.5375 23.2989 16.7121C23.4667 16.8867 23.6955 16.9896 23.9374 16.9993C24.1861 16.9993 24.4245 16.9005 24.6004 16.7247C24.7762 16.5489 24.8749 16.3104 24.8749 16.0618C24.8749 15.8132 24.7762 15.5747 24.6004 15.3989C24.4245 15.2231 24.1861 15.1243 23.9374 15.1243V15.1258Z" fill="#219EBC"/>
</svg>
