<svg width="40" height="40" viewBox="0 0 40 40" fill="none" xmlns="http://www.w3.org/2000/svg">
<rect x="0.5" y="0.5" width="39" height="39" rx="19.5" stroke="#219EBC"/>
<path d="M15.5677 13.7847C15.5674 14.2578 15.3793 14.7115 15.0446 15.0458C14.7099 15.3802 14.2561 15.5679 13.7829 15.5677C13.3098 15.5674 12.8562 15.3793 12.5218 15.0446C12.1875 14.7099 11.9998 14.2561 12 13.7829C12.0002 13.3098 12.1884 12.8562 12.5231 12.5218C12.8578 12.1875 13.3116 11.9998 13.7847 12C14.2578 12.0002 14.7115 12.1884 15.0458 12.5231C15.3802 12.8578 15.5679 13.3116 15.5677 13.7847ZM15.6212 16.8886H12.0535V28.0555H15.6212V16.8886ZM21.2581 16.8886H17.7083V28.0555H21.2225V22.1955C21.2225 18.9311 25.4769 18.6279 25.4769 22.1955V28.0555H29V20.9825C29 15.4794 22.703 15.6845 21.2225 18.387L21.2581 16.8886Z" fill="#219EBC"/>
</svg>
