<svg width="40" height="40" viewBox="0 0 40 40" fill="none" xmlns="http://www.w3.org/2000/svg">
<rect x="0.5" y="0.5" width="39" height="39" rx="19.5" stroke="#219EBC"/>
<path d="M30 13.912C29.2639 14.2467 28.4704 14.4665 27.6482 14.5717C28.4895 14.065 29.1396 13.262 29.4455 12.2964C28.652 12.7744 27.7725 13.109 26.8451 13.3002C26.0899 12.478 25.0287 12 23.8241 12C21.5774 12 19.7419 13.8356 19.7419 16.1013C19.7419 16.4264 19.7801 16.7419 19.847 17.0382C16.4436 16.8662 13.413 15.2314 11.3958 12.7553C11.0421 13.3576 10.8413 14.065 10.8413 14.8107C10.8413 16.2352 11.5583 17.4971 12.6673 18.2141C11.9885 18.2141 11.3576 18.0229 10.8031 17.7361V17.7648C10.8031 19.7533 12.218 21.4168 14.0918 21.7897C13.4902 21.9543 12.8586 21.9772 12.2467 21.8566C12.5063 22.6716 13.0149 23.3847 13.7008 23.8957C14.3867 24.4067 15.2155 24.69 16.0707 24.7055C14.6211 25.8532 12.8241 26.4735 10.9751 26.4646C10.6501 26.4646 10.325 26.4455 10 26.4073C11.8164 27.5736 13.9771 28.2524 16.2906 28.2524C23.8241 28.2524 27.9637 22 27.9637 16.5794C27.9637 16.3977 27.9637 16.2256 27.9541 16.044C28.7572 15.4704 29.4455 14.7438 30 13.912Z" fill="#219EBC"/>
</svg>
