<svg width="61" height="64" viewBox="0 0 61 64" fill="none" xmlns="http://www.w3.org/2000/svg">
<ellipse cx="30.3039" cy="32" rx="30.2609" ry="32" fill="#E31B54"/>
<path fill-rule="evenodd" clip-rule="evenodd" d="M19.5 39.4371C19.5001 39.3796 19.5115 39.3226 19.5336 39.2696C19.5557 39.2165 19.588 39.1683 19.6287 39.1277C19.6695 39.0871 19.7178 39.0549 19.771 39.033C19.8241 39.0111 19.8811 38.9999 19.9386 39H24.75V23.6877C24.75 23.6302 24.7614 23.5732 24.7835 23.5201C24.8056 23.4669 24.8379 23.4186 24.8786 23.378C24.9193 23.3373 24.9677 23.3051 25.0209 23.2832C25.0741 23.2612 25.1311 23.2499 25.1886 23.25H29.5614C29.6778 23.2499 29.7895 23.296 29.872 23.3782C29.9545 23.4603 30.0011 23.5718 30.0015 23.6883L30.0532 38.507C30.0535 38.6233 30.0999 38.7346 30.1821 38.8167C30.2644 38.8989 30.3758 38.9451 30.492 38.9453H36.6721C36.7296 38.9453 36.7865 38.9339 36.8396 38.9119C36.8928 38.8899 36.941 38.8576 36.9816 38.8169C37.0222 38.7761 37.0544 38.7278 37.0763 38.6747C37.0983 38.6215 37.1095 38.5645 37.1094 38.507V23.6883C37.1095 23.5721 37.1556 23.4607 37.2378 23.3785C37.3199 23.2964 37.4313 23.2501 37.5474 23.25H40.062C40.3039 23.25 40.5066 23.446 40.5131 23.6866C40.5131 23.6866 40.5489 24.5115 40.5 25C40.4902 25.0979 38.75 25 38.75 25V40.3123C38.75 40.3698 38.7387 40.4267 38.7167 40.4798C38.6947 40.533 38.6625 40.5812 38.6218 40.6219C38.5812 40.6626 38.5329 40.6948 38.4797 40.7168C38.4266 40.7388 38.3697 40.75 38.3122 40.75H28.6878C28.5717 40.75 28.4604 40.7038 28.3783 40.6218C28.2962 40.5397 28.2501 40.4284 28.25 40.3123V25.4377C28.25 25.3803 28.2388 25.3234 28.2168 25.2703C28.1949 25.2172 28.1627 25.169 28.1221 25.1283C28.0815 25.0877 28.0333 25.0554 27.9803 25.0334C27.9272 25.0114 27.8704 25 27.8129 25H26.9371C26.8211 25.0001 26.7099 25.0463 26.6279 25.1284C26.5459 25.2105 26.4999 25.3217 26.5 25.4377V40.75H19.9378C19.8218 40.7501 19.7105 40.7041 19.6284 40.6221C19.5463 40.5402 19.5001 40.429 19.5 40.3129V39.4371Z" fill="white"/>
</svg>
