<svg width="61" height="64" viewBox="0 0 61 64" fill="none" xmlns="http://www.w3.org/2000/svg">
<ellipse cx="30.2609" cy="32" rx="30.2609" ry="32" fill="#7A5AF8"/>
<path d="M30.4826 20L40.965 26.1048V36.7475C40.965 37.2238 40.8407 37.6917 40.6046 38.1041C40.3685 38.5166 40.029 38.8591 39.6201 39.0972L31.8276 43.6365C31.4187 43.8746 30.9548 44 30.4826 44C30.0105 44 29.5466 43.8746 29.1377 43.6365L21.3452 39.0972C20.9363 38.8591 20.5967 38.5166 20.3606 38.1041C20.1246 37.6917 20.0003 37.2238 20.0002 36.7475V26.1048L30.4826 20Z" stroke="white" stroke-width="2" stroke-linecap="round" stroke-linejoin="round"/>
<path d="M30.4832 25.4263V32.2094M30.4832 32.2094L24.6597 35.601M30.4832 32.2094L36.3068 35.601" stroke="white" stroke-width="2" stroke-linecap="round" stroke-linejoin="round"/>
</svg>
