<svg width="61" height="64" viewBox="0 0 61 64" fill="none" xmlns="http://www.w3.org/2000/svg">
<ellipse cx="30.3039" cy="32" rx="30.2609" ry="32" fill="#DD2590"/>
<path d="M14.6378 39V24.4545H20.0923C21.2098 24.4545 22.1473 24.6487 22.9048 25.0369C23.6671 25.4252 24.2424 25.9697 24.6307 26.6705C25.0237 27.3665 25.2202 28.1785 25.2202 29.1065C25.2202 30.0393 25.0213 30.849 24.6236 31.5355C24.2306 32.2173 23.6506 32.7453 22.8835 33.1193C22.1165 33.4886 21.1742 33.6733 20.0568 33.6733H16.1719V31.4858H19.7017C20.3551 31.4858 20.8902 31.3958 21.3068 31.2159C21.7235 31.0312 22.0313 30.7637 22.2301 30.4134C22.4337 30.0582 22.5355 29.6226 22.5355 29.1065C22.5355 28.5904 22.4337 28.1501 22.2301 27.7855C22.0265 27.4162 21.7164 27.1368 21.2997 26.9474C20.883 26.7533 20.3456 26.6562 19.6875 26.6562H17.2727V39H14.6378ZM22.152 32.4091L25.7528 39H22.8125L19.2756 32.4091H22.152ZM30.7805 24.4545V39H28.1456V24.4545H30.7805ZM43.8782 29.0994C43.7598 28.7159 43.5965 28.3726 43.3881 28.0696C43.1845 27.7618 42.9383 27.4991 42.6495 27.2812C42.3654 27.0634 42.0387 26.9001 41.6694 26.7912C41.3001 26.6776 40.8976 26.6207 40.462 26.6207C39.6808 26.6207 38.9847 26.8172 38.3739 27.2102C37.7631 27.6032 37.2826 28.1809 36.9322 28.9432C36.5865 29.7008 36.4137 30.6241 36.4137 31.7131C36.4137 32.8116 36.5865 33.742 36.9322 34.5043C37.2778 35.2666 37.7584 35.8466 38.3739 36.2443C38.9895 36.6373 39.7044 36.8338 40.5188 36.8338C41.2575 36.8338 41.8967 36.6918 42.4364 36.4077C42.9809 36.1236 43.4 35.7211 43.6935 35.2003C43.9871 34.6747 44.1339 34.0592 44.1339 33.3537L44.7305 33.446H40.7816V31.3864H46.6836V33.1335C46.6836 34.3788 46.4184 35.456 45.8881 36.3651C45.3578 37.2741 44.6287 37.9749 43.7006 38.4673C42.7726 38.955 41.7073 39.1989 40.5046 39.1989C39.1647 39.1989 37.988 38.8982 36.9748 38.2969C35.9663 37.6908 35.1779 36.8314 34.6097 35.7188C34.0463 34.6013 33.7646 33.2756 33.7646 31.7415C33.7646 30.5672 33.9303 29.5185 34.2617 28.5952C34.5979 27.6719 35.0666 26.8883 35.668 26.2443C36.2693 25.5956 36.9748 25.1032 37.7844 24.767C38.5941 24.4261 39.4748 24.2557 40.4265 24.2557C41.2314 24.2557 41.9819 24.3741 42.6779 24.6108C43.3739 24.8428 43.9918 25.1742 44.5316 25.6051C45.0761 26.036 45.5236 26.5473 45.8739 27.1392C46.2243 27.7311 46.454 28.3845 46.5629 29.0994H43.8782Z" fill="white"/>
</svg>
