<svg width="61" height="64" viewBox="0 0 61 64" fill="none" xmlns="http://www.w3.org/2000/svg">
<ellipse cx="30.2609" cy="32" rx="30.2609" ry="32" fill="#F79009"/>
<path d="M30.9906 20L41.6477 26.1048V36.7475C41.6477 37.2238 41.5213 37.6917 41.2813 38.1041C41.0413 38.5166 40.6961 38.8591 40.2803 39.0972L32.3579 43.6365C31.9422 43.8746 31.4706 44 30.9906 44C30.5106 44 30.039 43.8746 29.6232 43.6365L21.7008 39.0972C21.2851 38.8591 20.9399 38.5166 20.6999 38.1041C20.4599 37.6917 20.3335 37.2238 20.3335 36.7475V26.1048L30.9906 20Z" stroke="white" stroke-width="2" stroke-linecap="round" stroke-linejoin="round"/>
<path d="M30.9912 25.4263V32.2094M30.9912 32.2094L25.0706 35.601M30.9912 32.2094L36.9118 35.601" stroke="white" stroke-width="2" stroke-linecap="round" stroke-linejoin="round"/>
</svg>
