<svg width="61" height="64" viewBox="0 0 61 64" fill="none" xmlns="http://www.w3.org/2000/svg">
<ellipse cx="30.3039" cy="32" rx="30.2609" ry="32" fill="#56CEFF"/>
<path d="M42.75 20.25C42.75 19.1772 42.106 18.437 41.273 17.9697C40.4715 17.52 39.4005 17.2557 38.2315 17.0877C35.89 16.75 32.7802 16.75 29.681 16.75H29.625C29.3929 16.75 29.1704 16.8422 29.0063 17.0063C28.8422 17.1704 28.75 17.3929 28.75 17.625C28.75 17.8571 28.8422 18.0796 29.0063 18.2437C29.1704 18.4078 29.3929 18.5 29.625 18.5C32.7908 18.5 35.7797 18.5017 37.9812 18.8185C39.089 18.9795 39.901 19.207 40.4155 19.4957C40.8985 19.767 41 20.0102 41 20.25C41 20.5125 40.8897 20.754 40.4505 21.0147C39.9745 21.2982 39.2185 21.5222 38.1877 21.6815C36.135 21.9965 33.3682 22 30.5 22H30.444C27.6423 22 24.746 22 22.5462 22.3377C21.4455 22.5075 20.4235 22.7752 19.6552 23.2302C18.8502 23.708 18.25 24.4482 18.25 25.5C18.25 26.886 19.3805 27.7172 20.5635 28.1687C21.7955 28.6377 23.4457 28.8565 25.25 28.8565V27.1065C23.5525 27.1065 22.142 26.8965 21.1865 26.5325C20.182 26.151 20 25.7415 20 25.5C20 25.2375 20.1103 24.996 20.5495 24.7352C21.0255 24.4517 21.7815 24.2277 22.8122 24.0685C24.865 23.7535 27.6318 23.75 30.5 23.75H30.556C33.3577 23.75 36.254 23.75 38.4538 23.4122C39.5545 23.2425 40.5765 22.9747 41.3448 22.5197C42.1498 22.042 42.75 21.3017 42.75 20.25ZM28.75 28.1232C28.75 27.8912 28.8422 27.6686 29.0063 27.5045C29.1704 27.3404 29.3929 27.2482 29.625 27.2482C29.8571 27.2482 30.0796 27.3404 30.2437 27.5045C30.4078 27.6686 30.5 27.8912 30.5 28.1232V32.5C30.5 32.7017 30.5696 32.8972 30.6972 33.0535C30.8247 33.2098 31.0024 33.3172 31.2 33.3575L36.268 34.3812C36.6157 34.4515 36.9456 34.5916 37.2377 34.7929C37.5298 34.9943 37.778 35.2528 37.9674 35.5527C38.1568 35.8527 38.2835 36.188 38.3397 36.5382C38.3959 36.8885 38.3805 37.2466 38.2945 37.5907L36.8403 43.4147C36.7998 43.5767 36.7139 43.7237 36.5927 43.8384C36.4715 43.9532 36.3199 44.0308 36.156 44.0622L32.656 44.736C32.404 44.785 32.1135 44.722 31.809 44.5155C31.4853 44.2894 31.226 43.9831 31.0565 43.6265C30.5298 42.5004 29.6532 41.5748 28.5575 40.9875L21.8077 36.98C21.9831 36.5855 22.3068 36.2761 22.7088 36.1189C23.1108 35.9616 23.5586 35.9692 23.955 36.14L27.5285 37.68C27.6617 37.7375 27.8072 37.7609 27.9517 37.7482C28.0962 37.7354 28.2353 37.687 28.3565 37.6071C28.4776 37.5273 28.577 37.4186 28.6457 37.2908C28.7144 37.163 28.7503 37.0201 28.75 36.875V28.1232ZM29.625 25.4982C28.9288 25.4982 28.2611 25.7748 27.7688 26.2671C27.2766 26.7594 27 27.4271 27 28.1232V35.5467L24.6463 34.5317C24.2096 34.3438 23.7382 34.2498 23.2629 34.2559C22.7875 34.262 22.3187 34.368 21.887 34.567C21.4553 34.766 21.0702 35.0536 20.7569 35.4112C20.4436 35.7687 20.2089 36.1881 20.0683 36.6422C19.9681 36.9651 19.9796 37.3123 20.1009 37.6279C20.2222 37.9435 20.4461 38.209 20.7368 38.3817L27.6807 42.503C28.4704 42.9124 29.1019 43.5722 29.4762 44.379C29.772 44.9967 30.2445 45.5707 30.8308 45.9662C31.4205 46.3652 32.1748 46.6102 32.985 46.4545L36.4867 45.7807C36.9782 45.6862 37.4324 45.4531 37.7958 45.1089C38.1592 44.7647 38.4166 44.3239 38.5378 43.8382L39.992 38.016C40.1355 37.4423 40.1612 36.8455 40.0675 36.2617C39.9739 35.6778 39.7628 35.119 39.4471 34.6189C39.1315 34.1189 38.7177 33.6881 38.2308 33.3525C37.744 33.0168 37.1941 32.7834 36.6145 32.6662L32.25 31.7842V28.1232C32.25 27.4271 31.9734 26.7594 31.4812 26.2671C30.9889 25.7748 30.3212 25.4982 29.625 25.4982Z" fill="#EFF8FF"/>
</svg>
