<svg width="65" height="64" viewBox="0 0 65 64" fill="none" xmlns="http://www.w3.org/2000/svg">
<g clip-path="url(#clip0_2387_35997)">
<path d="M32.5 18.4241C29.5664 14.6903 25.0442 10.9565 13.8365 10.6825C13.1003 10.6646 12.5 11.2625 12.5 11.9989C12.5 17.4615 12.5 38.1422 12.5 44.2585C12.5 44.9947 13.1004 45.5731 13.8364 45.5971C25.0441 45.9635 29.5664 50.9326 32.5 54.6665M32.5 18.4241C35.4336 14.6903 39.9557 10.9565 51.1635 10.6825C51.8997 10.6646 52.5 11.2491 52.5 11.9854C52.5 18.0917 52.5 38.1502 52.5 44.2566C52.5 44.9929 51.8997 45.5731 51.1637 45.5971C39.956 45.9635 35.4336 50.9326 32.5 54.6665M32.5 18.4241V54.6665" stroke="#219EBC" stroke-width="2" stroke-linejoin="round"/>
<path d="M51.794 16H57.8332C58.5695 16 59.1666 16.597 59.1666 17.3333V52.104C59.1666 53.1829 57.8954 53.8997 56.9092 53.4616C54.789 52.5195 51.2506 51.3685 46.6175 51.3685C38.7743 51.3685 32.4999 56 32.4999 56C32.4999 56 26.2254 51.3685 18.3823 51.3685C13.7491 51.3685 10.2107 52.5195 8.09051 53.4616C7.1044 53.8997 5.83325 53.1829 5.83325 52.104V17.3333C5.83325 16.597 6.43021 16 7.16659 16H13.2058" stroke="#219EBC" stroke-width="2" stroke-linejoin="round"/>
</g>
<defs>
<clipPath id="clip0_2387_35997">
<rect width="64" height="64" fill="white" transform="translate(0.5)"/>
</clipPath>
</defs>
</svg>
