<svg width="64" height="64" viewBox="0 0 64 64" fill="none" xmlns="http://www.w3.org/2000/svg">
<g clip-path="url(#clip0_2387_35983)">
<path d="M61.3334 2.6665V50.6665H53.3334V47.9998H58.6667V5.33317H5.33341V47.9998H26.6667V50.6665H2.66675V2.6665H61.3334ZM42.6667 7.99984H21.3334V10.6665H42.6667V7.99984ZM37.3334 15.9998V13.3332H26.6667V15.9998H37.3334ZM18.6667 29.3332H8.00008V31.9998H18.6667V29.3332ZM18.6667 34.6665H8.00008V37.3332H18.6667V34.6665ZM8.00008 42.6665H13.3334V39.9998H8.00008V42.6665ZM45.3334 34.6665C45.3334 35.7213 45.0206 36.7525 44.4346 37.6295C43.8485 38.5066 43.0156 39.1902 42.0411 39.5939C41.0665 39.9975 39.9942 40.1031 38.9596 39.8974C37.925 39.6916 36.9747 39.1836 36.2288 38.4377C35.483 37.6919 34.975 36.7416 34.7692 35.707C34.5634 34.6724 34.6691 33.6001 35.0727 32.6255C35.4764 31.651 36.16 30.818 37.037 30.232C37.9141 29.646 38.9452 29.3332 40.0001 29.3332C41.4141 29.3346 42.7699 29.8969 43.7698 30.8968C44.7696 31.8967 45.332 33.2525 45.3334 34.6665ZM42.6667 34.6665C42.6667 34.1391 42.5103 33.6235 42.2173 33.185C41.9243 32.7465 41.5078 32.4047 41.0206 32.2028C40.5333 32.001 39.9971 31.9482 39.4798 32.0511C38.9626 32.154 38.4874 32.4079 38.1145 32.7809C37.7415 33.1538 37.4875 33.629 37.3847 34.1463C37.2818 34.6635 37.3346 35.1997 37.5364 35.687C37.7382 36.1743 38.08 36.5907 38.5186 36.8838C38.9571 37.1768 39.4727 37.3332 40.0001 37.3332C40.7071 37.3325 41.385 37.0513 41.8849 36.5513C42.3849 36.0514 42.666 35.3735 42.6667 34.6665ZM42.6721 23.2185C42.7924 23.5569 42.9822 23.8665 43.2294 24.1271C43.4765 24.3878 43.7755 24.5938 44.107 24.732C44.4386 24.8701 44.7954 24.9373 45.1545 24.9293C45.5136 24.9212 45.8671 24.8381 46.1921 24.6852C46.7233 24.4369 47.3177 24.3568 47.8957 24.4554C48.4737 24.5541 49.0079 24.8268 49.4267 25.2372C49.8414 25.6516 50.1178 26.1841 50.2181 26.7618C50.3183 27.3394 50.2375 27.9339 49.9867 28.4638C49.8324 28.7891 49.7479 29.1431 49.7388 29.5031C49.7296 29.863 49.796 30.2208 49.9337 30.5535C50.0714 30.8862 50.2773 31.1863 50.5382 31.4345C50.799 31.6827 51.109 31.8735 51.4481 31.9945C51.9992 32.1913 52.4759 32.5538 52.813 33.0321C53.1501 33.5105 53.331 34.0813 53.331 34.6665C53.331 35.2517 53.1501 35.8226 52.813 36.3009C52.4759 36.7792 51.9992 37.1417 51.4481 37.3385C51.1088 37.459 50.7986 37.6492 50.5375 37.8971C50.2764 38.1449 50.0702 38.4447 49.9322 38.7772C49.7943 39.1097 49.7276 39.4675 49.7365 39.8274C49.7454 40.1873 49.8298 40.5413 49.9841 40.8665C50.1724 41.2526 50.2693 41.6769 50.2673 42.1065C50.2653 42.5361 50.1645 42.9594 49.9727 43.3438C49.7809 43.7282 49.5032 44.0633 49.1612 44.3232C48.8191 44.5831 48.4218 44.7608 48.0001 44.8425V63.6318L40.0001 56.8638L32.0001 63.6318V44.8425C31.5787 44.7606 31.1818 44.583 30.84 44.3233C30.4982 44.0636 30.2207 43.7288 30.029 43.3447C29.8372 42.9607 29.7363 42.5377 29.7341 42.1085C29.7318 41.6792 29.8283 41.2552 30.0161 40.8692C30.1708 40.5438 30.2555 40.1895 30.2647 39.8294C30.2739 39.4692 30.2073 39.1111 30.0693 38.7783C29.9313 38.4454 29.7249 38.1453 29.4636 37.8973C29.2022 37.6493 28.8917 37.4589 28.5521 37.3385C28.001 37.1417 27.5243 36.7792 27.1872 36.3009C26.8501 35.8226 26.6691 35.2517 26.6691 34.6665C26.6691 34.0813 26.8501 33.5105 27.1872 33.0321C27.5243 32.5538 28.001 32.1913 28.5521 31.9945C28.8914 31.8738 29.2017 31.6832 29.4628 31.4351C29.7239 31.187 29.9301 30.887 30.0681 30.5543C30.206 30.2215 30.2727 29.8636 30.2637 29.5035C30.2548 29.1435 30.1704 28.7893 30.0161 28.4638C29.765 27.9342 29.6837 27.3398 29.7835 26.7622C29.8833 26.1846 30.1592 25.6519 30.5734 25.2372C30.9924 24.8278 31.5262 24.5559 32.1036 24.4578C32.6811 24.3596 33.2747 24.4399 33.8054 24.6878C34.1306 24.8407 34.4842 24.9237 34.8435 24.9316C35.2027 24.9395 35.5596 24.872 35.8912 24.7336C36.2228 24.5952 36.5217 24.3889 36.7687 24.1279C37.0157 23.867 37.2054 23.5572 37.3254 23.2185C37.5217 22.6665 37.8841 22.1888 38.3627 21.851C38.8414 21.5132 39.4129 21.3318 39.9987 21.3318C40.5846 21.3318 41.1561 21.5132 41.6348 21.851C42.1134 22.1888 42.4758 22.6665 42.6721 23.2185ZM45.3334 57.8852V44.4452C44.7656 44.3732 44.1904 44.4999 43.7054 44.8036C43.2203 45.1074 42.8552 45.5696 42.6721 46.1118C42.4752 46.6629 42.1128 47.1397 41.6345 47.4768C41.1561 47.8138 40.5853 47.9948 40.0001 47.9948C39.4149 47.9948 38.844 47.8138 38.3657 47.4768C37.8873 47.1397 37.5249 46.6629 37.3281 46.1118C37.1449 45.5696 36.7799 45.1074 36.2948 44.8036C35.8097 44.4999 35.2345 44.3732 34.6667 44.4452V57.8825L40.0001 53.3705L45.3334 57.8852ZM40.1601 45.2212C40.5229 44.2008 41.1926 43.3178 42.0774 42.6932C42.9621 42.0687 44.0185 41.7333 45.1014 41.7332C45.9033 41.7418 46.6941 41.9208 47.4214 42.2585L47.5761 42.0158C47.2609 41.3538 47.0882 40.633 47.0693 39.9C47.0503 39.167 47.1854 38.4382 47.466 37.7607C47.7465 37.0833 48.1662 36.4723 48.6978 35.9673C49.2294 35.4623 49.8611 35.0746 50.5521 34.8292V34.5038C49.8616 34.2578 49.2305 33.8696 48.6993 33.3645C48.1682 32.8594 47.7488 32.2485 47.4684 31.5713C47.188 30.8941 47.0527 30.1656 47.0712 29.4328C47.0897 28.7001 47.2617 27.9793 47.5761 27.3172L47.3441 27.0932C46.6819 27.4074 45.9612 27.5793 45.2285 27.5976C44.4958 27.616 43.7674 27.4804 43.0904 27.1997C42.4134 26.919 41.8027 26.4993 41.298 25.9679C40.7932 25.4365 40.4056 24.8051 40.1601 24.1145H39.8401C39.5946 24.8051 39.2069 25.4365 38.7022 25.9679C38.1974 26.4993 37.5868 26.919 36.9098 27.1997C36.2327 27.4804 35.5043 27.616 34.7716 27.5976C34.0389 27.5793 33.3182 27.4074 32.6561 27.0932L32.4241 27.3172C32.7384 27.9793 32.9104 28.7001 32.929 29.4328C32.9475 30.1656 32.8122 30.8941 32.5318 31.5713C32.2513 32.2485 31.832 32.8594 31.3008 33.3645C30.7697 33.8696 30.1385 34.2578 29.4481 34.5038V34.8292C30.139 35.0746 30.7708 35.4623 31.3024 35.9673C31.834 36.4723 32.2536 37.0833 32.5342 37.7607C32.8147 38.4382 32.9499 39.167 32.9309 39.9C32.9119 40.633 32.7393 41.3538 32.4241 42.0158L32.5787 42.2558C33.3063 41.9191 34.0971 41.7409 34.8987 41.7332C35.9817 41.7333 37.038 42.0687 37.9228 42.6932C38.8075 43.3178 39.4773 44.2008 39.8401 45.2212L40.0001 45.3332L40.1601 45.2212Z" fill="#219EBC"/>
</g>
<defs>
<clipPath id="clip0_2387_35983">
<rect width="64" height="64" fill="white"/>
</clipPath>
</defs>
</svg>
