<svg width="65" height="64" viewBox="0 0 65 64" fill="none" xmlns="http://www.w3.org/2000/svg">
<g clip-path="url(#clip0_2387_36011)">
<path d="M54.6312 31.6432L54.6314 31.6433C52.7351 26.7731 49.2171 22.6025 44.7251 19.9002C41.3388 17.8619 37.4894 16.7103 33.533 16.5388V12.9101C33.8187 13.1517 34.132 13.361 34.4767 13.5324C35.2381 13.911 36.125 14.1 37.1343 14.1C39.231 14.1 41.8557 13.2842 44.9779 11.6582C48.269 9.94434 50.9055 7.95833 51.016 7.87445L52.1056 7.04995L51.016 6.22545C50.9053 6.14182 48.2688 4.15556 44.9779 2.44167C40.353 0.0332844 36.8204 -0.597469 34.4769 0.567537C33.6456 0.980915 32.9876 1.60279 32.4992 2.42242C32.0109 1.60267 31.3527 0.98079 30.5215 0.567412C28.1786 -0.597469 24.6457 0.0331594 20.0212 2.44167C16.7304 4.15556 14.0944 6.14157 13.9836 6.22532L12.8944 7.04983L13.9836 7.87433C14.0944 7.95796 16.7304 9.94422 20.0212 11.658C23.1434 13.284 25.7678 14.0997 27.8643 14.0997C28.8732 14.0997 29.7603 13.9107 30.5213 13.5322C30.866 13.3609 31.1791 13.1517 31.4651 12.91V16.5383C29.6315 16.6171 27.8192 16.9026 26.0648 17.3956L25.3106 17.6089V17.6228C22.2244 18.6044 19.3215 20.2393 16.873 22.3803C11.7149 26.8928 8.75635 33.4087 8.75635 40.2574C8.75635 47.8676 12.4457 55.0711 18.6255 59.5269C22.6842 62.4535 27.4815 64.0003 32.4991 64.0003C33.8752 64.0003 35.2554 63.8815 36.6019 63.6472C42.0404 62.6993 47.0141 59.847 50.6067 55.6161C54.2414 51.3353 56.2433 45.8809 56.2433 40.2575C56.2433 37.2868 55.7009 34.3882 54.6312 31.6432ZM33.5766 6.01619C33.735 4.15281 34.3442 2.94355 35.3974 2.41967C35.9036 2.1678 36.5018 2.0563 37.1634 2.0563C40.5985 2.0563 45.7436 5.06344 48.6161 7.04558C47.5644 7.76683 45.8924 8.85059 44.0231 9.82422C40.1303 11.8515 37.0673 12.5111 35.398 11.6807C34.3446 11.157 33.7351 9.94759 33.5767 8.08421H43.1389V6.01619H33.5766ZM31.4219 8.08408C31.2634 9.94722 30.654 11.1567 29.601 11.6806C26.4677 13.2401 19.8097 9.41896 16.3841 7.05495C17.4415 6.32982 19.1247 5.23894 20.9999 4.26406C24.8811 2.24617 27.936 1.59129 29.601 2.4198C30.6539 2.94368 31.2632 4.15306 31.4219 6.01619H21.861V8.08421L31.4219 8.08408ZM32.4991 18.5815C36.2409 18.5815 39.9069 19.546 43.1427 21.3733C42.9411 27.8808 41.5963 34.7425 38.9744 35.8659C37.7348 36.3972 36.765 36.5034 36.243 36.1654C35.8015 35.8792 35.6616 35.2699 35.6179 34.9532C36.1901 33.7135 37.8979 29.0766 33.0121 26.2842C29.8166 24.4581 28.2641 20.9478 27.6457 19.1285C29.2296 18.7664 30.8574 18.5815 32.4991 18.5815ZM19.368 57.5019C14.0079 53.4127 10.8245 47.0108 10.8245 40.2576C10.8245 34.2494 13.32 28.5222 17.6941 24.4282C18.6339 24.9736 20.2367 25.9483 21.6858 27.0449C24.1872 28.9378 24.6954 30.0493 24.6147 30.3723C24.4994 30.8335 24.3646 31.3135 24.2218 31.8215C23.4933 34.4134 22.6677 37.3509 24.0694 39.4536C24.5631 40.1945 25.2936 40.7548 25.9382 41.2489C26.5916 41.7499 27.2675 42.268 27.2957 42.6985C27.3097 42.9132 27.1943 43.4123 26.263 44.3438C24.6859 45.9208 23.9142 48.4036 23.1677 50.8046C22.2682 53.6976 21.4143 56.4404 19.368 57.5019ZM32.499 61.9324C28.4753 61.9324 24.6074 60.8426 21.2157 58.7674C23.3728 57.1071 24.3037 54.116 25.1422 51.4185C25.8452 49.1577 26.5091 47.0221 27.7251 45.8061C28.9075 44.6235 29.4267 43.593 29.3591 42.563C29.2693 41.1974 28.168 40.353 27.1963 39.6079C26.6542 39.1923 26.0936 38.7624 25.7902 38.3068C24.9158 36.9953 25.6047 34.5439 26.2126 32.3811C26.3531 31.8812 26.4982 31.3643 26.621 30.8737C27.0061 29.3315 25.8344 27.5908 22.9334 25.3959C21.6952 24.4589 20.357 23.6095 19.3675 23.0152C21.265 21.5712 23.4027 20.4389 25.6534 19.688C26.3448 21.7477 28.15 25.8877 31.9857 28.0797C33.6175 29.0122 34.3772 30.2553 34.3087 31.88C34.254 33.1771 33.6702 34.2326 33.6664 34.2395L33.5302 34.4779V34.7524C33.5302 34.9675 33.5742 36.8826 35.0976 37.8873C35.6449 38.248 36.288 38.4284 37.0226 38.4284C37.8351 38.4284 38.7594 38.2078 39.7888 37.7668C41.9419 36.8441 43.4908 33.9802 44.3918 29.2548C44.8529 26.8364 45.0613 24.3934 45.1553 22.6598C48.2122 24.8651 50.6671 27.8518 52.2299 31.274C51.1967 31.5643 49.7408 32.1238 48.2562 33.1876C45.2852 35.3167 43.3474 38.5531 42.4968 42.8064C41.2879 48.8479 40.0812 49.0626 38.411 49.3598C37.3134 49.5552 35.9475 49.7981 34.521 51.2247C31.6252 54.1206 33.4611 59.1045 34.8088 61.81C34.0429 61.8911 33.2704 61.9324 32.499 61.9324ZM49.0301 54.2777C45.9078 57.9549 41.644 60.4899 36.9605 61.4716C35.3113 58.4121 34.1687 54.5017 35.9834 52.6872C36.95 51.7206 37.7949 51.5702 38.773 51.3962C41.3498 50.9378 43.1423 50.1204 44.5246 43.2124C46.0178 35.7457 50.8747 33.7309 52.9994 33.2022C53.779 35.4655 54.1749 37.8345 54.1749 40.2578C54.1752 45.3913 52.348 50.3703 49.0301 54.2777Z" fill="#219EBC"/>
</g>
<defs>
<clipPath id="clip0_2387_36011">
<rect width="64" height="64" fill="white" transform="translate(0.5)"/>
</clipPath>
</defs>
</svg>
