<svg width="64" height="64" viewBox="0 0 64 64" fill="none" xmlns="http://www.w3.org/2000/svg">
<path d="M59.812 25.8318C61.41 25.1338 61.41 22.8658 59.812 22.1678L34.404 11.0518C33.638 10.7158 32.82 10.5498 32 10.5498C31.18 10.5498 30.362 10.7178 29.596 11.0538L4.188 22.1678C2.59 22.8678 2.59 25.1338 4.188 25.8318L16 30.9998V37.6398C16 39.9118 17.284 41.9898 19.316 43.0058C23.31 45.0018 27.654 45.9998 32 45.9998C36.346 45.9998 40.69 45.0018 44.682 43.0058C46.716 41.9898 48 39.9118 48 37.6398V30.9998L56 27.4998V41.9998C54.896 41.9998 54 42.8958 54 43.9998V49.9998C54 51.1038 54.896 51.9998 56 51.9998H58C59.104 51.9998 60 51.1038 60 49.9998V43.9998C60 42.8958 59.104 41.9998 58 41.9998V26.6238L59.812 25.8318ZM46 37.6398C46 39.1638 45.152 40.5358 43.788 41.2178C40.148 43.0378 36.07 43.9998 32 43.9998C27.93 43.9998 23.852 43.0378 20.212 41.2178C18.848 40.5358 18 39.1638 18 37.6398V31.8758L29.596 36.9478C30.362 37.2838 31.182 37.4518 32 37.4518C32.82 37.4518 33.638 37.2838 34.404 36.9478L46 31.8738V37.6398ZM33.604 35.1158C33.096 35.3378 32.556 35.4518 32 35.4518C31.444 35.4518 30.906 35.3398 30.396 35.1158L4.99 23.9998L30.396 12.8838C30.906 12.6618 31.444 12.5498 32 12.5498C32.556 12.5498 33.094 12.6618 33.604 12.8858L59.01 23.9998L56.774 24.9778L33.788 23.1398C33.464 22.4698 32.792 21.9998 32 21.9998C30.896 21.9998 30 22.8958 30 23.9998C30 25.1038 30.896 25.9998 32 25.9998C32.674 25.9998 33.242 25.6438 33.604 25.1318L52.896 26.6758L33.604 35.1158Z" fill="#219EBC"/>
</svg>
