<svg width="25" height="24" viewBox="0 0 25 24" fill="none" xmlns="http://www.w3.org/2000/svg">
<path d="M22.5 16.7399V4.66994C22.5 3.46994 21.52 2.57994 20.33 2.67994H20.27C18.17 2.85994 14.98 3.92994 13.2 5.04994L13.03 5.15994C12.74 5.33994 12.26 5.33994 11.97 5.15994L11.72 5.00994C9.94 3.89994 6.76 2.83994 4.66 2.66994C3.47 2.56994 2.5 3.46994 2.5 4.65994V16.7399C2.5 17.6999 3.28 18.5999 4.24 18.7199L4.53 18.7599C6.7 19.0499 10.05 20.1499 11.97 21.1999L12.01 21.2199C12.28 21.3699 12.71 21.3699 12.97 21.2199C14.89 20.1599 18.25 19.0499 20.43 18.7599L20.76 18.7199C21.72 18.5999 22.5 17.6999 22.5 16.7399Z" stroke="#667085" stroke-width="1.5" stroke-linecap="round" stroke-linejoin="round"/>
<path d="M12.5 5.48999V20.49" stroke="  " stroke-width="1.5" stroke-linecap="round" stroke-linejoin="round"/>
<path d="M8.25 8.48999H6" stroke="#667085" stroke-width="1.5" stroke-linecap="round" stroke-linejoin="round"/>
<path d="M9 11.49H6" stroke="#667085" stroke-width="1.5" stroke-linecap="round" stroke-linejoin="round"/>
</svg>
