<svg width="25" height="24" viewBox="0 0 25 24" fill="none" xmlns="http://www.w3.org/2000/svg">
<path d="M10.5495 2.53004L4.52953 6.46004C2.59953 7.72004 2.59953 10.54 4.52953 11.8L10.5495 15.73C11.6295 16.44 13.4095 16.44 14.4895 15.73L20.4795 11.8C22.3995 10.54 22.3995 7.73004 20.4795 6.47004L14.4895 2.54004C13.4095 1.82004 11.6295 1.82004 10.5495 2.53004Z" stroke="#667085" stroke-width="1.5" stroke-linecap="round" stroke-linejoin="round"/>
<path d="M6.13012 13.08L6.12012 17.77C6.12012 19.04 7.10012 20.4 8.30012 20.8L11.4901 21.86C12.0401 22.04 12.9501 22.04 13.5101 21.86L16.7001 20.8C17.9001 20.4 18.8801 19.04 18.8801 17.77V13.13" stroke="#667085" stroke-width="1.5" stroke-linecap="round" stroke-linejoin="round"/>
<path d="M21.9004 15V9" stroke="#323232" stroke-width="1.5" stroke-linecap="round" stroke-linejoin="round"/>
</svg>
