<svg width="25" height="24" viewBox="0 0 25 24" fill="none" xmlns="http://www.w3.org/2000/svg">
<path d="M7.5 8H4.5C3.4 8 2.5 7.1 2.5 6V4C2.5 2.9 3.4 2 4.5 2H7.5C8.6 2 9.5 2.9 9.5 4V6C9.5 7.1 8.6 8 7.5 8Z" fill="#667085"/>
<path d="M21.3 7H17.7C17.04 7 16.5 6.46 16.5 5.8V4.2C16.5 3.54 17.04 3 17.7 3H21.3C21.96 3 22.5 3.54 22.5 4.2V5.8C22.5 6.46 21.96 7 21.3 7Z" fill="#667085"/>
<path d="M21.3 14.5H17.7C17.04 14.5 16.5 13.96 16.5 13.3V11.7C16.5 11.04 17.04 10.5 17.7 10.5H21.3C21.96 10.5 22.5 11.04 22.5 11.7V13.3C22.5 13.96 21.96 14.5 21.3 14.5Z" fill="#667085"/>
<path opacity="0.96" d="M16.5 13.25C16.91 13.25 17.25 12.91 17.25 12.5C17.25 12.09 16.91 11.75 16.5 11.75H13.75V5.75H16.5C16.91 5.75 17.25 5.41 17.25 5C17.25 4.59 16.91 4.25 16.5 4.25H9.5C9.09 4.25 8.75 4.59 8.75 5C8.75 5.41 9.09 5.75 9.5 5.75H12.25V18C12.25 19.52 13.48 20.75 15 20.75H16.5C16.91 20.75 17.25 20.41 17.25 20C17.25 19.59 16.91 19.25 16.5 19.25H15C14.31 19.25 13.75 18.69 13.75 18V13.25H16.5Z" fill="#667085"/>
<path d="M21.3 22H17.7C17.04 22 16.5 21.46 16.5 20.8V19.2C16.5 18.54 17.04 18 17.7 18H21.3C21.96 18 22.5 18.54 22.5 19.2V20.8C22.5 21.46 21.96 22 21.3 22Z" fill="#667085"/>
</svg>
