<svg width="16" height="12" viewBox="0 0 16 12" fill="none" xmlns="http://www.w3.org/2000/svg">
<path d="M9.3 11.2748C9.1 11.0748 9.004 10.8331 9.012 10.5498C9.02 10.2665 9.12434 10.0248 9.325 9.8248L12.15 6.9998H1C0.71667 6.9998 0.479004 6.9038 0.287004 6.7118C0.0950036 6.5198 -0.000663206 6.28247 3.4602e-06 5.9998C3.4602e-06 5.71647 0.0960036 5.4788 0.288004 5.2868C0.480004 5.0948 0.717337 4.99914 1 4.9998H12.15L9.3 2.1498C9.1 1.9498 9 1.71214 9 1.4368C9 1.16147 9.1 0.924138 9.3 0.724804C9.5 0.524804 9.73767 0.424805 10.013 0.424805C10.2883 0.424805 10.5257 0.524804 10.725 0.724804L15.3 5.2998C15.4 5.3998 15.471 5.50814 15.513 5.6248C15.555 5.74147 15.5757 5.86647 15.575 5.9998C15.575 6.13314 15.554 6.25814 15.512 6.3748C15.47 6.49147 15.3993 6.5998 15.3 6.6998L10.7 11.2998C10.5167 11.4831 10.2877 11.5748 10.013 11.5748C9.73834 11.5748 9.50067 11.4748 9.3 11.2748Z" fill="url(#paint0_linear_2387_40162)"/>
<path d="M9.3 11.2748C9.1 11.0748 9.004 10.8331 9.012 10.5498C9.02 10.2665 9.12434 10.0248 9.325 9.8248L12.15 6.9998H1C0.71667 6.9998 0.479004 6.9038 0.287004 6.7118C0.0950036 6.5198 -0.000663206 6.28247 3.4602e-06 5.9998C3.4602e-06 5.71647 0.0960036 5.4788 0.288004 5.2868C0.480004 5.0948 0.717337 4.99914 1 4.9998H12.15L9.3 2.1498C9.1 1.9498 9 1.71214 9 1.4368C9 1.16147 9.1 0.924138 9.3 0.724804C9.5 0.524804 9.73767 0.424805 10.013 0.424805C10.2883 0.424805 10.5257 0.524804 10.725 0.724804L15.3 5.2998C15.4 5.3998 15.471 5.50814 15.513 5.6248C15.555 5.74147 15.5757 5.86647 15.575 5.9998C15.575 6.13314 15.554 6.25814 15.512 6.3748C15.47 6.49147 15.3993 6.5998 15.3 6.6998L10.7 11.2998C10.5167 11.4831 10.2877 11.5748 10.013 11.5748C9.73834 11.5748 9.50067 11.4748 9.3 11.2748Z" fill="#F3F4F9"/>
<defs>
<linearGradient id="paint0_linear_2387_40162" x1="1.50647e-07" y1="8.65515" x2="16.8624" y2="2.61849" gradientUnits="userSpaceOnUse">
<stop stop-color="#FDDFDD"/>
<stop offset="0.317044" stop-color="#E5F3FB"/>
<stop offset="0.736344" stop-color="#ECF0F9"/>
<stop offset="1" stop-color="#FDDFDD" stop-opacity="0"/>
</linearGradient>
</defs>
</svg>
