<svg width="20" height="20" viewBox="0 0 20 20" fill="none" xmlns="http://www.w3.org/2000/svg">
<g clip-path="url(#clip0_2387_40126)">
<path d="M10.0011 3.91357C8.20305 3.91357 6.74023 5.37639 6.74023 7.17443C6.74023 8.97248 8.20305 10.4353 10.0011 10.4353C11.7991 10.4353 13.262 8.97252 13.262 7.17447C13.262 5.37643 11.7991 3.91357 10.0011 3.91357ZM10.0011 9.131C8.92227 9.131 8.04457 8.2533 8.04457 7.17447C8.04457 6.09564 8.92227 5.21795 10.0011 5.21795C11.0799 5.21795 11.9576 6.09564 11.9576 7.17447C11.9576 8.2533 11.0799 9.131 10.0011 9.131Z" fill="white"/>
<path d="M10.0001 0C6.04441 0 2.82617 3.21824 2.82617 7.17395C2.82617 9.94094 3.65555 11.0261 9.45785 19.7102C9.71578 20.0962 10.2839 20.097 10.5424 19.7102C16.3754 10.9841 17.1741 9.91363 17.1741 7.17395C17.174 3.21824 13.9558 0 10.0001 0ZM10.0002 18.1743C4.79039 10.3823 4.13059 9.43594 4.13059 7.17395C4.13055 3.93746 6.76363 1.30434 10.0001 1.30434C13.2366 1.30434 15.8697 3.93742 15.8697 7.17391C15.8697 9.35746 15.3677 10.1438 10.0002 18.1743Z" fill="white"/>
</g>
<defs>
<clipPath id="clip0_2387_40126">
<rect width="20" height="20" fill="white"/>
</clipPath>
</defs>
</svg>
