<svg width="21" height="21" viewBox="0 0 21 21" fill="none" xmlns="http://www.w3.org/2000/svg">
<path d="M3.8296 0.387693C3.56397 0.473631 3.25538 0.645506 2.98975 0.86035C2.5835 1.19238 1.14991 2.66894 0.927255 2.98535C0.704599 3.30176 0.521005 3.74316 0.427255 4.17285C0.34913 4.54394 0.34913 5.48535 0.431161 5.98535C0.688974 7.59863 1.54444 9.59082 2.77491 11.4658C4.48194 14.0596 6.69679 16.2861 9.14991 17.8643C11.6616 19.4814 13.9116 20.333 15.6694 20.333C16.5679 20.333 17.1538 20.1533 17.7593 19.6963C18.0874 19.4502 19.8023 17.6768 19.9819 17.3994C20.1968 17.0674 20.2983 16.7197 20.2983 16.3252C20.3023 15.9463 20.2515 15.751 20.0679 15.3916C19.9468 15.1494 19.7554 14.9424 18.4624 13.6377C16.6733 11.8369 16.5132 11.7158 15.8023 11.6729C15.4273 11.6455 15.1304 11.708 14.7788 11.8877C14.5327 12.0088 14.3765 12.1455 13.603 12.9072L12.7085 13.79L12.3726 13.6143C11.5327 13.1768 10.478 12.3799 9.57569 11.5049C8.40772 10.3682 7.51319 9.23144 7.04054 8.28613L6.86866 7.93847L7.69679 7.11426C8.16944 6.6416 8.59132 6.18457 8.68507 6.04004C9.12647 5.36816 9.12647 4.55176 8.68116 3.87597C8.46241 3.54394 5.79054 0.868162 5.4546 0.653318C5.10694 0.42285 4.78272 0.333006 4.34132 0.336912C4.146 0.336912 3.91554 0.36035 3.8296 0.387693ZM4.74366 1.47363C5.0171 1.59863 7.70851 4.29785 7.85304 4.58691C7.99757 4.87597 7.98194 5.16113 7.80226 5.43847C7.73585 5.54394 7.28272 6.02051 6.79835 6.50097C6.28272 7.01269 5.88038 7.44238 5.83351 7.53222C5.69679 7.80566 5.74366 8.07129 6.04835 8.68457C6.56788 9.73144 7.3296 10.751 8.47804 11.9307C9.63429 13.1221 10.7788 13.9971 11.9858 14.626C12.4546 14.8682 12.5483 14.9033 12.7319 14.9033C12.8452 14.9033 13.0093 14.876 13.0913 14.8408C13.1929 14.7979 13.5523 14.4736 14.1812 13.8486C14.7671 13.2666 15.1851 12.8838 15.2944 12.8291C15.5405 12.7002 15.8491 12.708 16.0796 12.8447C16.1733 12.8994 16.8882 13.583 17.6655 14.3643C19.1812 15.8838 19.2358 15.9541 19.2398 16.3291C19.2398 16.6963 19.1265 16.8564 18.2163 17.7861C17.0483 18.9736 17.0054 19.0088 16.5054 19.1768C15.9741 19.3525 15.4273 19.3486 14.4976 19.1572C12.896 18.8291 10.5132 17.6377 8.65382 16.2314C6.10304 14.3018 3.87647 11.6494 2.5796 8.98535C1.38038 6.52441 1.10304 4.70801 1.7671 3.65332C1.96241 3.34472 3.74366 1.5791 3.96632 1.47363C4.20069 1.36035 4.50929 1.36035 4.74366 1.47363Z" fill="white"/>
</svg>
