<svg width="60" height="60" viewBox="0 0 60 60" fill="none" xmlns="http://www.w3.org/2000/svg">
<rect width="60" height="60" rx="12" fill="#F0F1F3"/>
<path d="M30 14C25.7565 14 21.6869 15.6857 18.6863 18.6863C15.6857 21.6869 14 25.7565 14 30C14 34.2435 15.6857 38.3131 18.6863 41.3137C21.6869 44.3143 25.7565 46 30 46L30 30V14Z" fill="#667085"/>
<path d="M30 46C34.2435 46 38.3131 44.3143 41.3137 41.3137C44.3143 38.3131 46 34.2435 46 30C46 25.7565 44.3143 21.6869 41.3137 18.6863C38.3131 15.6857 34.2435 14 30 14L30 30L30 46Z" fill="#D0D3D9"/>
</svg>
