<svg width="143" height="29" viewBox="0 0 143 29" fill="none" xmlns="http://www.w3.org/2000/svg">
<g clip-path="url(#clip0_2387_37730)">
<path fill-rule="evenodd" clip-rule="evenodd" d="M18.7052 8.67971C17.554 7.91055 16.2006 7.5 14.8162 7.5V0.5C17.5851 0.5 20.2918 1.32109 22.5941 2.85943C24.8964 4.39776 26.6908 6.58427 27.7505 9.14241C28.8101 11.7006 29.0873 14.5155 28.5472 17.2313C28.007 19.947 26.6736 22.4416 24.7156 24.3995C22.7577 26.3574 20.2631 27.6908 17.5474 28.231C14.8317 28.7712 12.0167 28.4939 9.45857 27.4343C6.90042 26.3747 4.71392 24.5803 3.17559 22.278C1.63725 19.9757 0.816162 17.2689 0.816162 14.5H7.81616C7.81616 15.8845 8.22671 17.2378 8.99587 18.389C9.76503 19.5401 10.8583 20.4373 12.1374 20.9672C13.4164 21.497 14.8239 21.6356 16.1818 21.3655C17.5397 21.0954 18.7869 20.4287 19.7659 19.4498C20.7449 18.4708 21.4116 17.2235 21.6816 15.8656C21.9518 14.5078 21.8132 13.1003 21.2833 11.8212C20.7535 10.5421 19.8563 9.44887 18.7052 8.67971Z" fill="#98A2B3"/>
<path fill-rule="evenodd" clip-rule="evenodd" d="M7.81616 0.500004C7.81616 1.41926 7.6351 2.32951 7.28332 3.17879C6.93153 4.02807 6.41592 4.79974 5.76591 5.44975C5.1159 6.09977 4.34423 6.61538 3.49495 6.96716C2.64566 7.31894 1.73541 7.5 0.816162 7.5L0.816162 14.5C2.65467 14.5 4.47517 14.1379 6.17373 13.4343C7.8723 12.7308 9.41566 11.6995 10.7156 10.3995C12.0157 9.0995 13.0469 7.55614 13.7505 5.85757C14.454 4.15901 14.8162 2.3385 14.8162 0.5L7.81616 0.500004Z" fill="#98A2B3"/>
<path d="M88.7494 10.6167H85.353V21.4053H88.7494V10.6167Z" fill="#98A2B3"/>
<path d="M85.731 8.59652C86.0859 8.9517 86.5297 9.12929 87.0624 9.12929C87.5951 9.12929 88.0319 8.9517 88.3721 8.59652C88.713 8.22657 88.8831 7.78256 88.8831 7.2646C88.8831 6.73184 88.713 6.28785 88.3721 5.93268C88.0319 5.57749 87.5951 5.3999 87.0624 5.3999C86.5297 5.3999 86.0859 5.57749 85.731 5.93268C85.3901 6.28785 85.22 6.73184 85.22 7.2646C85.22 7.78256 85.3901 8.22657 85.731 8.59652Z" fill="#98A2B3"/>
<path d="M36.6255 21.4053V5.73291H40.1107V18.3419H47.059V21.4053H36.6255Z" fill="#98A2B3"/>
<path fill-rule="evenodd" clip-rule="evenodd" d="M53.3353 21.6496C52.2253 21.6496 51.219 21.4054 50.3162 20.917C49.4283 20.4138 48.7253 19.7331 48.2073 18.8747C47.6894 18.0163 47.4304 17.0544 47.4304 15.9889C47.4304 14.9233 47.6894 13.9688 48.2073 13.1252C48.7253 12.2817 49.4283 11.6157 50.3162 11.1274C51.2042 10.6241 52.2106 10.3726 53.3353 10.3726C54.46 10.3726 55.4663 10.6168 56.3543 11.1051C57.2422 11.5935 57.9453 12.2669 58.4632 13.1252C58.9812 13.9688 59.2402 14.9233 59.2402 15.9889C59.2402 17.0544 58.9812 18.0163 58.4632 18.8747C57.9453 19.7331 57.2422 20.4138 56.3543 20.917C55.4663 21.4054 54.46 21.6496 53.3353 21.6496ZM53.3353 18.564C53.8237 18.564 54.2528 18.4604 54.6228 18.2532C54.9928 18.0312 55.274 17.7278 55.4663 17.343C55.6735 16.9435 55.7771 16.492 55.7771 15.9889C55.7771 15.4857 55.6735 15.0491 55.4663 14.6792C55.2591 14.2944 54.9706 13.9984 54.6006 13.7912C54.2454 13.5692 53.8237 13.4582 53.3353 13.4582C52.8617 13.4582 52.44 13.5692 52.0699 13.7912C51.7 13.9984 51.4114 14.2944 51.2042 14.6792C50.997 15.064 50.8935 15.5079 50.8935 16.0111C50.8935 16.4994 50.997 16.9435 51.2042 17.343C51.4114 17.7278 51.7 18.0312 52.0699 18.2532C52.44 18.4604 52.8617 18.564 53.3353 18.564Z" fill="#98A2B3"/>
<path fill-rule="evenodd" clip-rule="evenodd" d="M61.9301 25.6232C62.8328 26.0375 63.8762 26.2447 65.0602 26.2447C66.2145 26.2447 67.2431 26.0153 68.1458 25.5566C69.0486 25.0978 69.7589 24.4615 70.2769 23.6475C70.7948 22.8336 71.0541 21.8716 71.0541 20.7616V10.6168H67.724V11.3417C67.4763 11.1332 67.195 10.9582 66.8805 10.8166C66.3032 10.5354 65.6447 10.3948 64.9048 10.3948C63.9132 10.3948 63.0326 10.6316 62.2631 11.1051C61.4935 11.5639 60.8868 12.2003 60.4428 13.0142C59.9988 13.8134 59.7769 14.7162 59.7769 15.7225C59.7769 16.7141 59.9988 17.6168 60.4428 18.4308C60.8868 19.2447 61.4935 19.8885 62.2631 20.3621C63.0326 20.8356 63.9132 21.0724 64.9048 21.0724C65.6299 21.0724 66.2885 20.9319 66.8805 20.6507C67.1672 20.5145 67.4262 20.354 67.6574 20.1691V20.8505C67.6574 21.6052 67.4132 22.1898 66.9248 22.6042C66.4513 23.0186 65.7927 23.2257 64.9492 23.2257C64.2684 23.2257 63.6838 23.1073 63.1954 22.8705C62.7219 22.6338 62.2927 22.286 61.9079 21.8272L59.8212 23.9139C60.3392 24.6538 61.0422 25.2236 61.9301 25.6232ZM66.7694 17.7426C66.429 17.9498 66.0221 18.0534 65.5485 18.0534C65.0749 18.0534 64.6605 17.9498 64.3054 17.7426C63.965 17.5354 63.6986 17.2542 63.5062 16.899C63.3138 16.5291 63.2176 16.1369 63.2176 15.7225C63.2176 15.2785 63.3138 14.879 63.5062 14.5238C63.6986 14.1686 63.9724 13.8874 64.3276 13.6802C64.6827 13.473 65.0897 13.3694 65.5485 13.3694C66.0221 13.3694 66.429 13.473 66.7694 13.6802C67.1246 13.8874 67.391 14.1686 67.5686 14.5238C67.761 14.879 67.8572 15.2785 67.8572 15.7225C67.8572 16.1665 67.761 16.566 67.5686 16.9212C67.391 17.2616 67.1246 17.5354 66.7694 17.7426Z" fill="#98A2B3"/>
<path fill-rule="evenodd" clip-rule="evenodd" d="M78.2018 21.6496C77.0916 21.6496 76.085 21.4054 75.1827 20.917C74.2944 20.4138 73.5916 19.7331 73.0736 18.8747C72.5556 18.0163 72.2966 17.0544 72.2966 15.9889C72.2966 14.9233 72.5556 13.9688 73.0736 13.1252C73.5916 12.2817 74.2944 11.6157 75.1827 11.1274C76.0703 10.6241 77.0769 10.3726 78.2018 10.3726C79.326 10.3726 80.3326 10.6168 81.2202 11.1051C82.1085 11.5935 82.8113 12.2669 83.3293 13.1252C83.8473 13.9688 84.1063 14.9233 84.1063 15.9889C84.1063 17.0544 83.8473 18.0163 83.3293 18.8747C82.8113 19.7331 82.1085 20.4138 81.2202 20.917C80.3326 21.4054 79.326 21.6496 78.2018 21.6496ZM78.2018 18.564C78.6897 18.564 79.1188 18.4604 79.4891 18.2532C79.8587 18.0312 80.1401 17.7278 80.3326 17.343C80.5398 16.9435 80.6434 16.492 80.6434 15.9889C80.6434 15.4857 80.5398 15.0491 80.3326 14.6792C80.1254 14.2944 79.837 13.9984 79.4667 13.7912C79.1118 13.5692 78.6897 13.4582 78.2018 13.4582C77.7279 13.4582 77.3058 13.5692 76.9362 13.7912C76.5659 13.9984 76.2775 14.2944 76.0703 14.6792C75.8631 15.064 75.7595 15.5079 75.7595 16.0111C75.7595 16.4994 75.8631 16.9435 76.0703 17.343C76.2775 17.7278 76.5659 18.0312 76.9362 18.2532C77.3058 18.4604 77.7279 18.564 78.2018 18.564Z" fill="#98A2B3"/>
<path fill-rule="evenodd" clip-rule="evenodd" d="M96.9128 21.6274C96.1883 21.6274 95.5219 21.4868 94.915 21.2056C94.5958 21.0577 94.3074 20.881 94.0498 20.6756V25.9562H90.6975V10.6168H94.0939V11.3614C94.3403 11.1599 94.614 10.9856 94.915 10.8388C95.5219 10.5428 96.1883 10.3948 96.9128 10.3948C97.9341 10.3948 98.8371 10.639 99.6211 11.1274C100.421 11.6157 101.042 12.2817 101.486 13.1253C101.945 13.9688 102.174 14.9308 102.174 16.0111C102.174 17.0915 101.945 18.0534 101.486 18.897C101.042 19.7405 100.421 20.4065 99.6211 20.8948C98.8371 21.3832 97.9341 21.6274 96.9128 21.6274ZM96.2919 18.564C96.7798 18.564 97.2019 18.453 97.5568 18.231C97.9271 18.009 98.2155 17.7056 98.4227 17.3209C98.6299 16.9361 98.7335 16.4995 98.7335 16.0111C98.7335 15.5079 98.6299 15.064 98.4227 14.6792C98.2155 14.2944 97.9271 13.9984 97.5568 13.7912C97.2019 13.5692 96.7875 13.4583 96.3136 13.4583C95.8404 13.4583 95.4183 13.5692 95.0487 13.7912C94.6931 13.9984 94.4124 14.2944 94.2052 14.6792C93.998 15.064 93.8944 15.5079 93.8944 16.0111C93.8944 16.4995 93.9903 16.9361 94.1828 17.3209C94.39 17.7056 94.6784 18.009 95.0487 18.231C95.4183 18.453 95.8327 18.564 96.2919 18.564Z" fill="#98A2B3"/>
<path d="M105.498 21.4275C106.12 21.5903 106.748 21.6717 107.385 21.6717C108.732 21.6717 109.797 21.3609 110.582 20.7393C111.38 20.1178 111.78 19.2817 111.78 18.2309C111.78 17.5501 111.655 17.0025 111.403 16.5882C111.151 16.159 110.826 15.8186 110.426 15.567C110.027 15.3155 109.604 15.1156 109.161 14.9676C108.717 14.8196 108.295 14.6939 107.896 14.5903C107.496 14.4867 107.171 14.3683 106.919 14.2351C106.667 14.1019 106.541 13.9243 106.541 13.7023C106.541 13.4951 106.638 13.3397 106.83 13.2361C107.022 13.1177 107.311 13.0586 107.696 13.0586C108.095 13.0586 108.502 13.1399 108.916 13.3027C109.345 13.4655 109.73 13.7468 110.071 14.1463L112.002 12.1928C111.514 11.5712 110.878 11.105 110.093 10.7943C109.324 10.4687 108.48 10.3059 107.563 10.3059C106.69 10.3059 105.927 10.4539 105.276 10.7498C104.625 11.0459 104.121 11.4529 103.766 11.9708C103.412 12.4739 103.234 13.0734 103.234 13.7689C103.234 14.4201 103.36 14.9603 103.611 15.3894C103.862 15.8038 104.189 16.1294 104.588 16.3662C104.987 16.603 105.409 16.788 105.853 16.9211C106.297 17.0543 106.719 17.1801 107.119 17.2986C107.518 17.4022 107.844 17.5279 108.095 17.6759C108.362 17.8091 108.495 18.0089 108.495 18.2753C108.495 18.4825 108.384 18.6452 108.162 18.7637C107.955 18.882 107.651 18.9412 107.252 18.9412C106.674 18.9412 106.142 18.8376 105.654 18.6304C105.165 18.4085 104.743 18.1051 104.388 17.7203L102.457 19.6738C102.827 20.0734 103.271 20.4286 103.789 20.7393C104.322 21.0353 104.891 21.2647 105.498 21.4275Z" fill="#98A2B3"/>
<path d="M117.974 21.6495C116.983 21.6495 116.102 21.4497 115.333 21.0501C114.577 20.6357 113.986 20.0733 113.557 19.363C113.127 18.6379 112.913 17.8091 112.913 16.8767V10.6167H116.309V16.8323C116.309 17.2023 116.368 17.5205 116.487 17.7869C116.62 18.0533 116.813 18.2605 117.064 18.4085C117.316 18.5564 117.619 18.6304 117.974 18.6304C118.477 18.6304 118.877 18.475 119.173 18.1642C119.469 17.8387 119.617 17.3947 119.617 16.8323V10.6167H123.013V16.8545C123.013 17.8017 122.799 18.6379 122.369 19.363C121.94 20.0733 121.349 20.6357 120.593 21.0501C119.839 21.4497 118.966 21.6495 117.974 21.6495Z" fill="#98A2B3"/>
<path d="M128.098 10.6168H124.701V21.4054H128.098V15.1009C128.098 14.731 128.172 14.4202 128.32 14.1686C128.483 13.917 128.698 13.7246 128.964 13.5915C129.23 13.4434 129.534 13.3694 129.874 13.3694C130.362 13.3694 130.769 13.5248 131.095 13.8356C131.435 14.1316 131.606 14.5534 131.606 15.1009V21.4054H135.002V15.1009C135.002 14.731 135.076 14.4202 135.224 14.1686C135.387 13.917 135.601 13.7246 135.868 13.5915C136.134 13.4434 136.438 13.3694 136.778 13.3694C137.266 13.3694 137.673 13.5248 137.999 13.8356C138.339 14.1316 138.509 14.5534 138.509 15.1009V21.4054H141.906V14.7236C141.906 13.8209 141.714 13.0513 141.329 12.4149C140.958 11.7637 140.448 11.268 139.797 10.9276C139.161 10.5724 138.428 10.3948 137.599 10.3948C136.755 10.3948 135.993 10.5798 135.313 10.9498C134.87 11.1855 134.484 11.4897 134.153 11.8624C133.844 11.4726 133.469 11.1536 133.026 10.9054C132.434 10.565 131.761 10.3948 131.006 10.3948C130.207 10.3948 129.489 10.565 128.853 10.9054C128.576 11.047 128.325 11.2166 128.098 11.4142V10.6168Z" fill="#98A2B3"/>
</g>
<defs>
<clipPath id="clip0_2387_37730">
<rect width="141.4" height="28" fill="white" transform="translate(0.816162 0.5)"/>
</clipPath>
</defs>
</svg>
