<svg width="32" height="29" viewBox="0 0 32 29" fill="none" xmlns="http://www.w3.org/2000/svg">
<g clip-path="url(#clip0_2387_37776)">
<path fill-rule="evenodd" clip-rule="evenodd" d="M20 24.5C21.0506 24.5 22.0909 24.293 23.0614 23.891C24.0321 23.489 24.914 22.8998 25.6569 22.1569C26.3998 21.414 26.989 20.5321 27.391 19.5614C27.793 18.5909 28 17.5506 28 16.5C28 13.3174 26.7357 10.2651 24.4853 8.01472C22.2349 5.76428 19.1826 4.5 16 4.5C12.8174 4.5 9.76512 5.76428 7.51472 8.01472C5.26428 10.2651 4 13.3174 4 16.5C4 17.5506 4.20693 18.5909 4.60896 19.5614C5.011 20.5321 5.60028 21.414 6.34314 22.1569C7.08602 22.8998 7.96793 23.489 8.93856 23.891C9.90912 24.293 10.9494 24.5 12 24.5H20ZM16 7.7C13.6661 7.7 11.4278 8.62712 9.77744 10.2774C8.12712 11.9278 7.2 14.1661 7.2 16.5C7.2 17.1303 7.32415 17.7545 7.56538 18.3369C7.8066 18.9193 8.16016 19.4484 8.60592 19.8941C9.0516 20.3398 9.58072 20.6934 10.1631 20.9346C10.7455 21.1758 11.3697 21.3 12 21.3H20C20.6303 21.3 21.2545 21.1758 21.8369 20.9346C22.4193 20.6934 22.9484 20.3398 23.3941 19.8941C23.8398 19.4484 24.1934 18.9193 24.4346 18.3369C24.6758 17.7545 24.8 17.1303 24.8 16.5C24.8 14.1661 23.8729 11.9278 22.2226 10.2774C20.5722 8.62712 18.3339 7.7 16 7.7Z" fill="#98A2B3"/>
<path fill-rule="evenodd" clip-rule="evenodd" d="M10.4 28.5C9.03424 28.5 7.6819 28.1896 6.4201 27.5866C5.15834 26.9835 4.01184 26.0996 3.04609 24.9853C2.08038 23.871 1.31431 22.5482 0.791653 21.0922C0.269006 19.6363 0 18.0758 0 16.5C0 12.2566 1.68571 8.18687 4.6863 5.18629C7.68687 2.18571 11.7566 0.5 16 0.5C20.2434 0.5 24.3131 2.18571 27.3137 5.18629C30.3143 8.18687 32 12.2566 32 16.5C32 18.0758 31.731 19.6363 31.2083 21.0922C30.6857 22.5482 29.9196 23.871 28.9539 24.9853C27.9882 26.0996 26.8417 26.9835 25.5799 27.5866C24.3181 28.1896 22.9658 28.5 21.6 28.5H10.4ZM6.94903 7.44903C9.34952 5.04857 12.6052 3.7 16 3.7C19.3948 3.7 22.6505 5.04857 25.051 7.44903C27.4514 9.84952 28.8 13.1052 28.8 16.5C28.8 17.7143 28.5923 18.9086 28.1966 20.011C27.8008 21.1134 27.2301 22.0883 26.5357 22.8895C25.8421 23.6898 25.0436 24.2962 24.2 24.6994C23.3585 25.1016 22.4766 25.3 21.6 25.3H10.4C9.52344 25.3 8.64152 25.1016 7.79999 24.6994C6.95639 24.2962 6.15792 23.6898 5.4643 22.8895C4.76994 22.0883 4.19922 21.1134 3.80346 20.011C3.40769 18.9086 3.2 17.7143 3.2 16.5C3.2 13.1052 4.54857 9.84952 6.94903 7.44903Z" fill="#98A2B3"/>
<path d="M20 20.5H15.9965C15.7277 20.4998 15.4609 20.4724 15.2 20.4192C14.6944 20.316 14.211 20.1154 13.7778 19.8258C13.1199 19.3863 12.6072 18.7617 12.3045 18.0307C12.2063 17.7937 12.1316 17.549 12.0808 17.3C11.9749 16.7812 11.9726 16.2439 12.0769 15.7196C12.2312 14.9437 12.6122 14.231 13.1716 13.6716C13.731 13.1122 14.4437 12.7312 15.2196 12.5769C15.2439 12.572 15.2682 12.5674 15.2925 12.563C15.527 12.521 15.7638 12.5 16 12.5C16.5228 12.5 17.043 12.6025 17.5307 12.8045C18.2616 13.1072 18.8863 13.6199 19.3258 14.2777C19.7654 14.9355 20 15.7089 20 16.5H16.8C16.8 16.3418 16.7531 16.1871 16.6652 16.0555C16.5773 15.924 16.4523 15.8214 16.3062 15.7609C16.16 15.7003 15.9991 15.6845 15.8439 15.7154C15.6887 15.7462 15.5462 15.8224 15.4343 15.9343C15.3224 16.0462 15.2462 16.1887 15.2154 16.3439C15.1845 16.4991 15.2003 16.66 15.2609 16.8062C15.3214 16.9523 15.424 17.0773 15.5555 17.1652C15.6871 17.2531 15.8418 17.3 16 17.3H20C20.105 17.3 20.2091 17.2793 20.3062 17.2391C20.4032 17.1989 20.4914 17.14 20.5657 17.0657C20.64 16.9914 20.6989 16.9032 20.7391 16.8062C20.7793 16.7091 20.8 16.605 20.8 16.5C20.8 15.227 20.2943 14.0061 19.3941 13.1059C18.4939 12.2057 17.273 11.7 16 11.7C15.8619 11.7 15.7245 11.7059 15.588 11.7177C15.2526 11.7466 14.9228 11.8106 14.604 11.9075C14.2903 12.0028 13.9872 12.1301 13.6994 12.2872C13.3698 12.4672 13.0604 12.6864 12.7784 12.9418C12.7197 12.9949 12.6622 13.0496 12.6059 13.1059C12.2121 13.4997 11.8938 13.955 11.6602 14.449C11.5435 14.6961 11.4479 14.9528 11.3748 15.2165C11.2911 15.5179 11.2367 15.8283 11.2133 16.1435C11.2045 16.2618 11.2 16.3806 11.2 16.5C11.2 17.1273 11.323 17.7517 11.5654 18.3369C11.9287 19.214 12.5439 19.9636 13.3333 20.491C13.3378 20.4941 13.3422 20.497 13.3467 20.5H12C11.4747 20.5 10.9546 20.3966 10.4693 20.1955C9.984 19.9945 9.54304 19.6998 9.1716 19.3284C8.80016 18.957 8.50552 18.516 8.30448 18.0307C8.10344 17.5454 8 17.0253 8 16.5C8 14.3782 8.84288 12.3434 10.3431 10.8431C11.8434 9.34288 13.8782 8.5 16 8.5C18.1218 8.5 20.1566 9.34288 21.6569 10.8431C23.1571 12.3434 24 14.3782 24 16.5C24 17.0253 23.8966 17.5454 23.6955 18.0307C23.4945 18.516 23.1998 18.957 22.8284 19.3284C22.457 19.6998 22.016 19.9945 21.5307 20.1955C21.0454 20.3966 20.5253 20.5 20 20.5Z" fill="#98A2B3"/>
</g>
<defs>
<clipPath id="clip0_2387_37776">
<rect width="32" height="28" fill="white" transform="translate(0 0.5)"/>
</clipPath>
</defs>
</svg>
