<svg width="114" height="29" viewBox="0 0 114 29" fill="none" xmlns="http://www.w3.org/2000/svg">
<g clip-path="url(#clip0_2387_37746)">
<path d="M0.996094 21.2656L0.996096 7.42188L7.91793 11.2674V17.4585L13.4554 20.5734L18.9929 17.4585V11.2674L25.9148 7.42188V21.2656L13.4554 28.1874L0.996094 21.2656Z" fill="#98A2B3"/>
<path fill-rule="evenodd" clip-rule="evenodd" d="M4.45702 9.34461L0.996094 7.42185L13.4554 0.5L25.9148 7.42185L22.4538 9.34461V19.5351L13.4554 24.7265L4.45702 19.5351L4.45702 9.34461ZM22.0789 9.55292L18.9929 11.2673V11.2289L13.4554 8.11401L7.91793 11.2289V11.2673L4.83195 9.55292V19.3221L13.4554 24.2972L22.0789 19.3221V9.55292Z" fill="#98A2B3"/>
<path d="M32.5488 20.1714V8.54272H34.7417V18.1779H40.0577V20.1714H32.5488Z" fill="#98A2B3"/>
<path d="M44.7919 20.4041C43.9724 20.4041 43.2359 20.238 42.5825 19.9057C41.929 19.5735 41.414 19.0917 41.0375 18.4605C40.6609 17.8292 40.4727 17.0706 40.4727 16.1846V15.9187C40.4727 15.0328 40.6609 14.2741 41.0375 13.6429C41.414 13.0116 41.929 12.5299 42.5825 12.1976C43.2359 11.8653 43.9724 11.6992 44.7919 11.6992C45.6115 11.6992 46.3479 11.8653 47.0014 12.1976C47.6548 12.5299 48.1698 13.0116 48.5463 13.6429C48.9228 14.2741 49.1112 15.0328 49.1112 15.9187V16.1846C49.1112 17.0706 48.9228 17.8292 48.5463 18.4605C48.1698 19.0917 47.6548 19.5735 47.0014 19.9057C46.3479 20.238 45.6115 20.4041 44.7919 20.4041ZM44.7919 18.5435C45.4343 18.5435 45.9659 18.3387 46.3867 17.9288C46.8076 17.508 47.018 16.9099 47.018 16.1347V15.9686C47.018 15.1934 46.8076 14.6008 46.3867 14.1911C45.9769 13.7703 45.4453 13.5598 44.7919 13.5598C44.1496 13.5598 43.6179 13.7703 43.1971 14.1911C42.7762 14.6008 42.5659 15.1934 42.5659 15.9686V16.1347C42.5659 16.9099 42.7762 17.508 43.1971 17.9288C43.6179 18.3387 44.1496 18.5435 44.7919 18.5435Z" fill="#98A2B3"/>
<path d="M49.897 16.0849V15.8191C49.897 14.9553 50.0686 14.2188 50.412 13.6096C50.7552 12.9894 51.2094 12.5187 51.7742 12.1976C52.3501 11.8653 52.9758 11.6992 53.6513 11.6992C54.4045 11.6992 54.9748 11.8321 55.3624 12.0979C55.7501 12.3637 56.0325 12.6406 56.2096 12.9286H56.5087V11.9318H58.5686V21.6335C58.5686 22.1983 58.4025 22.6468 58.0702 22.9791C57.738 23.3224 57.295 23.4941 56.7413 23.4941H51.2259V21.6667H56.0103C56.3204 21.6667 56.4755 21.5005 56.4755 21.1683V19.0253H56.1764C56.0657 19.2025 55.9106 19.3852 55.7113 19.5735C55.5119 19.7507 55.2462 19.9002 54.9139 20.0221C54.5817 20.1439 54.1608 20.2048 53.6513 20.2048C52.9758 20.2048 52.3501 20.0442 51.7742 19.723C51.2094 19.3907 50.7552 18.9201 50.412 18.311C50.0686 17.6908 49.897 16.9488 49.897 16.0849ZM54.2494 18.3774C54.8917 18.3774 55.4289 18.1725 55.8608 17.7628C56.2928 17.353 56.5087 16.7771 56.5087 16.0351V15.8689C56.5087 15.1158 56.2928 14.54 55.8608 14.1413C55.4399 13.7315 54.9029 13.5266 54.2494 13.5266C53.607 13.5266 53.0699 13.7315 52.638 14.1413C52.2061 14.54 51.9901 15.1158 51.9901 15.8689V16.0351C51.9901 16.7771 52.2061 17.353 52.638 17.7628C53.0699 18.1725 53.607 18.3774 54.2494 18.3774Z" fill="#98A2B3"/>
<path d="M64.0624 20.4041C63.2428 20.4041 62.5063 20.238 61.8529 19.9057C61.1995 19.5735 60.6845 19.0917 60.3079 18.4605C59.9314 17.8292 59.7432 17.0706 59.7432 16.1846V15.9187C59.7432 15.0328 59.9314 14.2741 60.3079 13.6429C60.6845 13.0116 61.1995 12.5299 61.8529 12.1976C62.5063 11.8653 63.2428 11.6992 64.0624 11.6992C64.8819 11.6992 65.6184 11.8653 66.2718 12.1976C66.9252 12.5299 67.4402 13.0116 67.8167 13.6429C68.1933 14.2741 68.3816 15.0328 68.3816 15.9187V16.1846C68.3816 17.0706 68.1933 17.8292 67.8167 18.4605C67.4402 19.0917 66.9252 19.5735 66.2718 19.9057C65.6184 20.238 64.8819 20.4041 64.0624 20.4041ZM64.0624 18.5435C64.7047 18.5435 65.2363 18.3387 65.6571 17.9288C66.078 17.508 66.2885 16.9099 66.2885 16.1347V15.9686C66.2885 15.1934 66.078 14.6008 65.6571 14.1911C65.2474 13.7703 64.7158 13.5598 64.0624 13.5598C63.42 13.5598 62.8884 13.7703 62.4676 14.1911C62.0468 14.6008 61.8363 15.1934 61.8363 15.9686V16.1347C61.8363 16.9099 62.0468 17.508 62.4676 17.9288C62.8884 18.3387 63.42 18.5435 64.0624 18.5435Z" fill="#98A2B3"/>
<path d="M69.5661 20.1714V11.9316H71.6592V20.1714H69.5661ZM70.6126 10.9681C70.2361 10.9681 69.9149 10.8463 69.6491 10.6026C69.3944 10.3589 69.2671 10.0377 69.2671 9.6391C69.2671 9.2404 69.3944 8.91921 69.6491 8.67553C69.9149 8.43193 70.2361 8.31006 70.6126 8.31006C71.0003 8.31006 71.3215 8.43193 71.5762 8.67553C71.8309 8.91921 71.9583 9.2404 71.9583 9.6391C71.9583 10.0377 71.8309 10.3589 71.5762 10.6026C71.3215 10.8463 71.0003 10.9681 70.6126 10.9681Z" fill="#98A2B3"/>
<path d="M73.2312 23.4941V11.9318H75.2913V12.9286H75.5904C75.7783 12.6074 76.0716 12.3249 76.4709 12.0813C76.8696 11.8265 77.4399 11.6992 78.1819 11.6992C78.8465 11.6992 79.4611 11.8653 80.0255 12.1976C80.5906 12.5187 81.0445 12.995 81.3879 13.6263C81.7313 14.2575 81.9029 15.0217 81.9029 15.9187V16.1846C81.9029 17.0816 81.7313 17.8458 81.3879 18.4771C81.0445 19.1084 80.5906 19.5901 80.0255 19.9224C79.4611 20.2436 78.8465 20.4041 78.1819 20.4041C77.6831 20.4041 77.2623 20.3432 76.9189 20.2214C76.5866 20.1106 76.3155 19.9667 76.1055 19.7895C75.9058 19.6012 75.7452 19.4129 75.6236 19.2247H75.3244V23.4941H73.2312ZM77.5504 18.5768C78.204 18.5768 78.7412 18.3718 79.1619 17.9621C79.5937 17.5413 79.8096 16.9321 79.8096 16.1347V15.9686C79.8096 15.1712 79.5937 14.5676 79.1619 14.1578C78.7301 13.737 78.1929 13.5266 77.5504 13.5266C76.9079 13.5266 76.3707 13.737 75.9389 14.1578C75.5072 14.5676 75.2913 15.1712 75.2913 15.9686V16.1347C75.2913 16.9321 75.5072 17.5413 75.9389 17.9621C76.3707 18.3718 76.9079 18.5768 77.5504 18.5768Z" fill="#98A2B3"/>
<path d="M86.4994 20.4041C85.4251 20.4041 84.5446 20.1716 83.8578 19.7064C83.1718 19.2412 82.7562 18.5768 82.6118 17.7129L84.5394 17.2146C84.6168 17.6021 84.7442 17.9067 84.9211 18.1282C85.1097 18.3497 85.3367 18.5103 85.6027 18.61C85.879 18.6986 86.1781 18.7429 86.4994 18.7429C86.9864 18.7429 87.3468 18.6598 87.5796 18.4937C87.8117 18.3165 87.9281 18.1005 87.9281 17.8458C87.9281 17.5911 87.8176 17.3973 87.5958 17.2644C87.3748 17.1204 87.0203 17.0041 86.5326 16.9155L86.0676 16.8324C85.4914 16.7217 84.9653 16.5722 84.4893 16.3839C84.0133 16.1846 83.6309 15.9132 83.3428 15.5699C83.0554 15.2266 82.911 14.7836 82.911 14.2409C82.911 13.4214 83.2101 12.7956 83.8084 12.3637C84.406 11.9207 85.193 11.6992 86.1671 11.6992C87.0867 11.6992 87.8508 11.9041 88.4594 12.3139C89.0688 12.7237 89.4674 13.2608 89.656 13.9253L87.7122 14.5233C87.6238 14.1025 87.4411 13.8034 87.164 13.6263C86.898 13.4491 86.5657 13.3604 86.1671 13.3604C85.7685 13.3604 85.4641 13.4324 85.2534 13.5764C85.0434 13.7093 84.938 13.8976 84.938 14.1413C84.938 14.407 85.0486 14.6064 85.2703 14.7393C85.4914 14.8611 85.7906 14.9552 86.1671 15.0217L86.632 15.1048C87.2524 15.2155 87.8117 15.365 88.3106 15.5533C88.8197 15.7305 89.2183 15.9907 89.5064 16.3341C89.8056 16.6663 89.9552 17.1204 89.9552 17.6963C89.9552 18.5602 89.6391 19.2302 89.0076 19.7064C88.3879 20.1716 87.5516 20.4041 86.4994 20.4041Z" fill="#98A2B3"/>
<path d="M94.1811 20.3043C93.5393 20.3043 92.9742 20.1603 92.4871 19.8724C92.0111 19.5734 91.6397 19.1636 91.3737 18.6431C91.1085 18.1226 90.9751 17.5245 90.9751 16.849V11.9316H93.0685V16.6828C93.0685 17.303 93.218 17.7682 93.5172 18.0782C93.8267 18.3884 94.2644 18.5434 94.8295 18.5434C95.4713 18.5434 95.9702 18.333 96.3246 17.9121C96.679 17.4802 96.8558 16.8822 96.8558 16.118V11.9316H98.9492V20.1715H96.889V19.0916H96.5906C96.4572 19.3685 96.2082 19.6398 95.8427 19.9056C95.4772 20.1715 94.9231 20.3043 94.1811 20.3043Z" fill="#98A2B3"/>
<path d="M100.531 20.1715V11.9317H102.591V12.8288H102.89C103.034 12.5519 103.272 12.3138 103.604 12.1144C103.936 11.904 104.374 11.7988 104.917 11.7988C105.503 11.7988 105.974 11.9151 106.329 12.1476C106.683 12.3691 106.954 12.6626 107.143 13.0281H107.441C107.63 12.6738 107.896 12.3803 108.239 12.1476C108.583 11.9151 109.07 11.7988 109.701 11.7988C110.21 11.7988 110.67 11.9096 111.08 12.1311C111.501 12.3414 111.833 12.6682 112.077 13.1112C112.331 13.5431 112.459 14.0913 112.459 14.7558V20.1715H110.365V14.9054C110.365 14.4512 110.249 14.1135 110.017 13.892C109.784 13.6594 109.457 13.5431 109.037 13.5431C108.561 13.5431 108.189 13.6982 107.923 14.0082C107.669 14.3073 107.542 14.7392 107.542 15.3041V20.1715H105.448V14.9054C105.448 14.4512 105.332 14.1135 105.1 13.892C104.867 13.6594 104.54 13.5431 104.119 13.5431C103.643 13.5431 103.272 13.6982 103.006 14.0082C102.751 14.3073 102.624 14.7392 102.624 15.3041V20.1715H100.531Z" fill="#98A2B3"/>
</g>
<defs>
<clipPath id="clip0_2387_37746">
<rect width="112.737" height="28" fill="white" transform="translate(0.348633 0.5)"/>
</clipPath>
</defs>
</svg>
