<svg width="106" height="41" viewBox="0 0 106 41" fill="none" xmlns="http://www.w3.org/2000/svg">
<path d="M21.8734 20.7839C21.8734 19.3237 22.7453 18.3064 24.0777 18.3064C25.4101 18.3064 26.2819 19.3237 26.2819 20.7839C26.2819 22.2279 25.4101 23.2615 24.0777 23.2615C22.7453 23.2615 21.8734 22.2279 21.8734 20.7839Z" fill="#98A2B3"/>
<path d="M33.1419 18.2407C31.8753 18.2407 31.0199 19.2251 31.0199 20.5706C31.0199 21.9324 31.8917 22.9497 33.1419 22.9497C34.5236 22.9497 35.4448 21.916 35.4448 20.5706C35.4448 19.2416 34.5236 18.2407 33.1419 18.2407Z" fill="#98A2B3"/>
<path d="M40.4846 20.7839C40.4846 19.3237 41.3565 18.3064 42.6889 18.3064C44.0213 18.3064 44.8931 19.3237 44.8931 20.7839C44.8931 22.2279 44.0213 23.2615 42.6889 23.2615C41.3565 23.2615 40.4846 22.2279 40.4846 20.7839Z" fill="#98A2B3"/>
<path d="M53.8896 20.8003C53.8896 19.34 54.7779 18.3228 56.1761 18.3228C57.5744 18.3228 58.4132 19.3564 58.4132 20.8003C58.4132 22.2442 57.5744 23.2614 56.1761 23.2614C54.7779 23.2614 53.8896 22.2606 53.8896 20.8003Z" fill="#98A2B3"/>
<path fill-rule="evenodd" clip-rule="evenodd" d="M53.0524 37.9495C81.0018 37.9495 103.659 30.0193 103.659 20.2369C103.659 10.4546 81.0018 2.52441 53.0524 2.52441C25.1027 2.52441 2.44507 10.4546 2.44507 20.2369C2.44507 30.0193 25.1027 37.9495 53.0524 37.9495ZM18.622 24.8532V12.6459H16.6151V24.8532H18.622ZM19.8502 20.784C19.8502 23.278 21.5281 25.0501 24.0778 25.0501C26.6275 25.0501 28.3053 23.278 28.3053 20.784C28.3053 18.2901 26.6275 16.5181 24.0778 16.5181C21.5281 16.5181 19.8502 18.2901 19.8502 20.784ZM32.7966 24.6891C30.5101 24.6891 28.9803 22.9827 28.9803 20.62C28.9803 18.2409 30.543 16.4852 32.8624 16.4852C34.0632 16.4852 35.0831 16.9939 35.5766 17.8471L35.6917 16.7478H37.4683V24.443C37.4683 27.1174 35.7905 28.8402 33.1585 28.8402C30.9213 28.8402 29.2928 27.462 29.0297 25.3454H31.053C31.1681 26.4119 32.0235 27.019 33.2736 27.019C34.6719 27.019 35.5108 26.1329 35.5108 24.8039V23.4257C35.0008 24.2132 33.981 24.6891 32.7966 24.6891ZM38.4614 20.784C38.4614 23.278 40.1393 25.0501 42.689 25.0501C45.2387 25.0501 46.9165 23.278 46.9165 20.784C46.9165 18.2901 45.2387 16.5181 42.689 16.5181C40.1393 16.5181 38.4614 18.2901 38.4614 20.784ZM50.2892 13.8929C50.2892 14.5656 49.7464 15.0906 49.0884 15.0906C48.414 15.0906 47.904 14.5656 47.904 13.8929C47.904 13.2365 48.414 12.7115 49.0884 12.7115C49.7464 12.7115 50.2892 13.2365 50.2892 13.8929ZM50.0918 16.7478V24.8532H48.085V16.7478H50.0918ZM51.85 28.6105H53.8075V23.7374C54.3174 24.5742 55.4195 25.0664 56.6368 25.0664C59.0385 25.0664 60.4695 23.2288 60.4366 20.702C60.3873 18.1588 58.9233 16.5016 56.6203 16.5016C55.3867 16.5016 54.2681 17.0431 53.7746 17.9784L53.6594 16.7478H51.85V28.6105ZM64.2032 25.0664C62.2622 25.0664 61.012 24.0327 60.9462 22.4248H62.7721C62.7721 23.1304 63.282 23.5405 64.1703 23.5405C64.9106 23.5405 65.5192 23.2452 65.5192 22.6053C65.5192 22.1459 65.1902 21.8998 64.6638 21.7521L63.2492 21.3911C61.6865 20.9809 61.0778 20.1113 61.0778 19.0612C61.0778 17.5189 62.3773 16.5016 64.121 16.5016C65.8811 16.5016 67.0819 17.5189 67.1477 19.1269H65.3218C65.3218 18.4214 64.8283 17.9948 64.0717 17.9948C63.3479 17.9948 62.9037 18.3885 62.9037 18.9464C62.9037 19.4715 63.3149 19.6847 63.9236 19.8488L65.3547 20.1934C66.6872 20.5215 67.4109 21.3091 67.4109 22.4741C67.4109 24.0492 66.1114 25.0664 64.2032 25.0664ZM71.5738 25.0664C72.6755 25.0664 73.7281 24.5578 74.2053 23.8031L74.3373 24.8532H76.2123V16.7478H74.2053V20.9974C74.2053 22.4576 73.646 23.278 72.3302 23.278C71.3106 23.278 70.6032 22.7858 70.6032 21.1122V16.7478H68.5961V21.8177C68.5961 23.7539 69.6489 25.0664 71.5738 25.0664ZM79.9906 20.1934V24.8532H77.9836V16.7478H79.8257L79.9246 17.6666C80.4018 16.9447 81.2573 16.5016 82.211 16.5016C83.5597 16.5016 84.4481 17.0923 84.8924 18.044C85.2874 17.0923 86.258 16.5016 87.4916 16.5016C89.4657 16.5016 90.5015 17.6831 90.5015 19.5535V24.8532H88.5604V20.0129C88.5604 18.8644 87.9359 18.2573 86.9653 18.2573C86.0109 18.2573 85.2545 18.8808 85.2545 20.2098V24.8532H83.2966V20.0129C83.2966 18.8644 82.672 18.2573 81.7176 18.2573C80.7639 18.2573 79.9906 18.8808 79.9906 20.1934Z" fill="#98A2B3"/>
</svg>
