<svg width="80" height="57" viewBox="0 0 80 57" fill="none" xmlns="http://www.w3.org/2000/svg">
<path d="M6.81259 51.2602V39.8513H4.94214V51.2602H6.81259Z" fill="#98A2B3"/>
<path d="M7.95752 47.4572C7.95752 49.788 9.52136 51.4441 11.8977 51.4441C14.2741 51.4441 15.8379 49.788 15.8379 47.4572C15.8379 45.1263 14.2741 43.4702 11.8977 43.4702C9.52136 43.4702 7.95752 45.1263 7.95752 47.4572ZM9.84329 47.4572C9.84329 46.0924 10.6559 45.1417 11.8977 45.1417C13.1396 45.1417 13.9522 46.0924 13.9522 47.4572C13.9522 48.8066 13.1396 49.7726 11.8977 49.7726C10.6559 49.7726 9.84329 48.8066 9.84329 47.4572Z" fill="#98A2B3"/>
<path d="M16.467 47.304C16.467 49.5122 17.8928 51.107 20.0239 51.107C21.1278 51.107 22.0784 50.6623 22.5536 49.9262V51.2143C22.5536 52.4564 21.7718 53.2845 20.4685 53.2845C19.3034 53.2845 18.5061 52.7171 18.3988 51.7204H16.5131C16.7583 53.6985 18.2761 54.9866 20.3612 54.9866C22.8143 54.9866 24.3781 53.3764 24.3781 50.8769V43.6851H22.7223L22.615 44.7125C22.1551 43.9151 21.2045 43.4397 20.0852 43.4397C17.9235 43.4397 16.467 45.0805 16.467 47.304ZM18.3682 47.258C18.3682 46.0006 19.1654 45.0805 20.3459 45.0805C21.6338 45.0805 22.4923 46.0159 22.4923 47.258C22.4923 48.5154 21.6338 49.4815 20.3459 49.4815C19.1807 49.4815 18.3682 48.5308 18.3682 47.258Z" fill="#98A2B3"/>
<path d="M25.3037 47.4572C25.3037 49.788 26.8675 51.4441 29.2439 51.4441C31.6203 51.4441 33.1841 49.788 33.1841 47.4572C33.1841 45.1263 31.6203 43.4702 29.2439 43.4702C26.8675 43.4702 25.3037 45.1263 25.3037 47.4572ZM27.1895 47.4572C27.1895 46.0924 28.0021 45.1417 29.2439 45.1417C30.4858 45.1417 31.2984 46.0924 31.2984 47.4572C31.2984 48.8066 30.4858 49.7726 29.2439 49.7726C28.0021 49.7726 27.1895 48.8066 27.1895 47.4572Z" fill="#98A2B3"/>
<path d="M35.2084 42.1363C35.8216 42.1363 36.3276 41.6456 36.3276 41.0169C36.3276 40.4035 35.8216 39.9128 35.2084 39.9128C34.5798 39.9128 34.1045 40.4035 34.1045 41.0169C34.1045 41.6456 34.5798 42.1363 35.2084 42.1363ZM34.2732 51.2603H36.1436V43.6851H34.2732V51.2603Z" fill="#98A2B3"/>
<path d="M37.7822 54.7717H39.6066V50.2174C40.0819 50.9994 41.1092 51.4594 42.2437 51.4594C44.4821 51.4594 45.816 49.742 45.7852 47.3804C45.7393 45.0036 44.3748 43.4548 42.2283 43.4548C41.0785 43.4548 40.0359 43.9609 39.576 44.8349L39.4687 43.6849H37.7822V54.7717ZM39.6833 47.4725C39.6833 46.1077 40.5112 45.1569 41.8144 45.1569C43.1176 45.1569 43.8995 46.123 43.8995 47.4725C43.8995 48.8219 43.1176 49.7726 41.8144 49.7726C40.5112 49.7726 39.6833 48.8373 39.6833 47.4725Z" fill="#98A2B3"/>
<path d="M46.2603 48.9906C46.3216 50.4934 47.4868 51.4594 49.2959 51.4594C51.0744 51.4594 52.2856 50.5087 52.2856 49.0366C52.2856 47.9479 51.611 47.2118 50.3691 46.9051L49.0353 46.583C48.468 46.4297 48.0847 46.2304 48.0847 45.7397C48.0847 45.2183 48.4987 44.8503 49.1732 44.8503C49.8785 44.8503 50.3385 45.249 50.3385 45.9084H52.0403C51.9789 44.4055 50.8597 43.4548 49.2193 43.4548C47.5941 43.4548 46.3829 44.4055 46.3829 45.847C46.3829 46.8285 46.9502 47.6411 48.4067 48.0245L49.7252 48.3619C50.2158 48.4999 50.5225 48.7299 50.5225 49.1593C50.5225 49.7573 49.9552 50.0333 49.2653 50.0333C48.4374 50.0333 47.962 49.6499 47.962 48.9906H46.2603Z" fill="#98A2B3"/>
<path d="M56.1652 51.4596C57.1924 51.4596 58.1736 50.9842 58.6182 50.2788L58.7409 51.2603H60.4887V43.6851H58.6182V47.6567C58.6182 49.0214 58.0969 49.7882 56.8705 49.7882C55.9199 49.7882 55.2606 49.3281 55.2606 47.764V43.6851H53.3901V48.4234C53.3901 50.2328 54.3713 51.4596 56.1652 51.4596Z" fill="#98A2B3"/>
<path d="M64.0101 51.2601V46.9051C64.0101 45.6783 64.7306 45.0956 65.6199 45.0956C66.5091 45.0956 67.0917 45.663 67.0917 46.7364V51.2601H68.9162V46.9204C68.9162 45.6783 69.6214 45.0956 70.5107 45.0956C71.4152 45.0956 71.9978 45.663 71.9978 46.7364V51.2601H73.8069V46.307C73.8069 44.5589 72.841 43.4548 71.0013 43.4548C69.8514 43.4548 68.9468 44.0069 68.5789 44.8963C68.1649 44.0069 67.3371 43.4548 66.0799 43.4548C65.1906 43.4548 64.3933 43.8689 63.9488 44.5436L63.8567 43.6849H62.1396V51.2601H64.0101Z" fill="#98A2B3"/>
<path d="M34.8241 29.5234C32.36 33.9579 27.3427 36.0676 22.2696 36.0676H1.91504C23.1042 33.419 37.861 22.8244 39.7529 8.06763C41.6448 22.8244 56.4015 33.419 77.5907 36.0676H57.2361C52.163 36.0676 47.1458 33.9579 44.6816 29.5234C42.0145 24.7238 40.3153 19.2929 39.7529 13.3649C39.1905 19.2929 37.4912 24.7238 34.8241 29.5234Z" fill="#98A2B3"/>
<path d="M23.1838 27.956C21.9952 28.6252 20.7448 29.2538 19.4356 29.8393C18.692 27.2704 18.4183 24.5752 18.6366 21.8904C18.9253 18.3386 20.0659 14.9143 21.9575 11.9211C23.8492 8.92791 26.4333 6.458 29.4811 4.73024C32.5288 3.00249 35.9462 2.07019 39.4304 2.01594C42.9146 1.96168 46.358 2.78714 49.4558 4.4192C52.5536 6.05125 55.21 8.4395 57.1898 11.3725C59.1696 14.3054 60.4117 17.6925 60.806 21.2337C61.1285 24.1302 60.8757 27.0567 60.0702 29.8393C58.761 29.2538 57.5107 28.6252 56.322 27.956C56.8231 25.9216 56.9636 23.8053 56.7301 21.7085C56.4121 18.8529 55.4105 16.1215 53.8141 13.7564C52.2175 11.3913 50.0754 9.46536 47.5773 8.14929C45.0793 6.83319 42.3024 6.16755 39.4928 6.21129C36.6831 6.25504 33.9274 7.00685 31.4697 8.40008C29.012 9.79334 26.9281 11.785 25.4028 14.1988C23.8774 16.6126 22.9575 19.3738 22.7247 22.2381C22.5682 24.1632 22.7253 26.0951 23.1838 27.956Z" fill="#98A2B3"/>
</svg>
