<svg width="89" height="29" viewBox="0 0 89 29" fill="none" xmlns="http://www.w3.org/2000/svg">
<g clip-path="url(#clip0_2387_37743)">
<path d="M62.7351 26.5576C63.2664 26.5576 63.5807 26.1551 63.5807 25.5258C63.5807 24.8734 63.2433 24.494 62.7463 24.494C62.4621 24.494 62.2647 24.62 62.117 24.8202H62.11V23.7891H61.802V26.5002H62.11V26.2426H62.117C62.2766 26.4624 62.4698 26.5576 62.7351 26.5576ZM62.7127 26.2993C62.2955 26.2993 62.0904 25.9696 62.0904 25.5293C62.0904 25.1051 62.2878 24.7558 62.7162 24.7558C63.0879 24.7558 63.2664 25.0897 63.2664 25.5293C63.2664 25.9731 63.0879 26.2993 62.7127 26.2993ZM64.1008 27.1491C64.3395 27.1491 64.4914 27.0651 64.6503 26.6591L65.4889 24.5395H65.1627L64.7147 25.761C64.6545 25.9241 64.5859 26.1439 64.5859 26.1439H64.5789C64.5789 26.1439 64.5061 25.9241 64.4459 25.761L63.9832 24.5395H63.6493L64.4151 26.4435L64.3395 26.6367C64.2639 26.8264 64.1764 26.8761 64.0476 26.8761C63.9757 26.8797 63.9039 26.8653 63.839 26.8341H63.8236V27.1071C63.9076 27.1414 63.9832 27.1491 64.1008 27.1491ZM66.275 26.5002H66.7909V23.7891H66.275V26.5002ZM68.0523 26.5576C68.655 26.5576 69.0687 26.1096 69.0687 25.5293C69.0687 24.949 68.6557 24.5017 68.0523 24.5017C67.4496 24.5017 67.0359 24.9497 67.0359 25.5293C67.0359 26.1103 67.4489 26.5576 68.0523 26.5576ZM68.0523 26.1628C67.7338 26.1628 67.5595 25.9087 67.5595 25.5293C67.5595 25.1506 67.7338 24.8923 68.0523 24.8923C68.3673 24.8923 68.5451 25.1506 68.5451 25.5293C68.5451 25.9087 68.3673 26.1628 68.0523 26.1628ZM70.1656 27.1638C70.454 27.1638 70.7039 27.0959 70.867 26.944C71.0112 26.811 71.0987 26.6255 71.0987 26.3525V24.5549H70.6017V24.76H70.594C70.4764 24.5969 70.2986 24.5017 70.055 24.5017C69.5629 24.5017 69.2136 24.8734 69.2136 25.4537C69.2136 26.0417 69.6385 26.3826 70.0711 26.3826C70.3175 26.3826 70.4652 26.2846 70.5786 26.1551H70.5905V26.3679C70.5905 26.6332 70.4505 26.7739 70.1579 26.7739C69.9192 26.7739 69.8093 26.6787 69.7673 26.5569H69.2556C69.3081 26.9363 69.6343 27.1638 70.1656 27.1638ZM70.1586 25.9696C69.8926 25.9696 69.7176 25.7764 69.7176 25.446C69.7176 25.1198 69.8926 24.9154 70.1544 24.9154C70.4652 24.9154 70.6171 25.1576 70.6171 25.4425C70.6171 25.7309 70.4841 25.9696 70.1579 25.9696H70.1586ZM72.3524 26.5576C72.9551 26.5576 73.3688 26.1096 73.3688 25.5293C73.3688 24.949 72.9551 24.5017 72.3524 24.5017C71.749 24.5017 71.336 24.9497 71.336 25.5293C71.336 26.1103 71.749 26.5576 72.3524 26.5576ZM72.3524 26.1628C72.0339 26.1628 71.8589 25.9087 71.8589 25.5293C71.8589 25.1506 72.0339 24.8923 72.3524 24.8923C72.6667 24.8923 72.8452 25.1506 72.8452 25.5293C72.8452 25.9087 72.6667 26.1628 72.3524 26.1628ZM73.6082 26.5002H74.1241V24.5549H73.6082V26.5002ZM73.6082 24.2518H74.1241V23.7891H73.6082V24.2518ZM74.4566 27.1372H74.9725V26.2811H74.9795C75.0901 26.4484 75.2679 26.5583 75.5409 26.5583C76.0414 26.5583 76.383 26.1593 76.383 25.53C76.383 24.9231 76.0533 24.5024 75.5374 24.5024C75.4249 24.5005 75.3137 24.5266 75.2138 24.5783C75.1139 24.63 75.0283 24.7056 74.9648 24.7985H74.9536V24.5556H74.4566V27.1386V27.1372ZM75.431 26.1292C75.1237 26.1292 74.9606 25.8975 74.9606 25.5447C74.9606 25.1961 75.0901 24.9189 75.4121 24.9189C75.7306 24.9189 75.8594 25.1765 75.8594 25.5447C75.8594 25.9129 75.6928 26.1292 75.431 26.1292ZM77.412 26.5576C77.8971 26.5576 78.231 26.3224 78.231 25.9318C78.231 25.4768 77.8705 25.3858 77.5443 25.3172C77.2678 25.2605 77.0102 25.2451 77.0102 25.0785C77.0102 24.9385 77.1425 24.8615 77.3434 24.8615C77.5639 24.8615 77.6962 24.9385 77.7193 25.1464H78.1855C78.1477 24.7558 77.8635 24.5024 77.3511 24.5024C76.9073 24.5024 76.5587 24.7026 76.5587 25.124C76.5587 25.5482 76.8996 25.6434 77.2489 25.712C77.5142 25.7645 77.7606 25.7834 77.7606 25.9696C77.7606 26.1061 77.6318 26.1936 77.4043 26.1936C77.1733 26.1936 77.0137 26.0949 76.9794 25.8709H76.502C76.5321 26.2839 76.8471 26.5576 77.412 26.5576ZM80.1896 26.5002V24.5549H79.6737V25.6777C79.6737 25.9353 79.5253 26.1173 79.2831 26.1173C79.0633 26.1173 78.9604 25.992 78.9604 25.7645V24.5549H78.4487V25.852C78.4487 26.2769 78.6916 26.5534 79.1235 26.5534C79.3965 26.5534 79.5484 26.4512 79.6814 26.2734H79.6926V26.5002H80.1896ZM80.5228 26.5002H81.0387V25.3711C81.0387 25.1128 81.1787 24.9462 81.3873 24.9462C81.577 24.9462 81.6869 25.0603 81.6869 25.2801V26.5009H82.2028V25.3711C82.2028 25.1128 82.3358 24.9462 82.5521 24.9462C82.7418 24.9462 82.8517 25.0603 82.8517 25.2801V26.5009H83.3676V25.1926C83.3676 24.7677 83.1359 24.5024 82.7264 24.5024C82.48 24.5024 82.2749 24.6312 82.1426 24.844H82.1349C82.0882 24.7406 82.0123 24.6532 81.9165 24.5925C81.8207 24.5318 81.7093 24.5005 81.5959 24.5024C81.4822 24.4995 81.3698 24.5272 81.2704 24.5826C81.171 24.638 81.0884 24.7191 81.031 24.8174H81.0198V24.5556H80.5228V26.5016V26.5002Z" fill="#98A2B3"/>
<path d="M83.4694 2.00433C83.4694 1.17623 84.1407 0.50423 84.9688 0.50423H85.9691C86.3669 0.50423 86.7485 0.662276 87.0298 0.943599C87.3111 1.22492 87.4692 1.60648 87.4692 2.00433C87.4692 2.40218 87.3111 2.78374 87.0298 3.06506C86.7485 3.34638 86.3669 3.50443 85.9691 3.50443H84.9688C84.7718 3.50443 84.5768 3.46562 84.3948 3.39023C84.2129 3.31483 84.0475 3.20432 83.9083 3.06502C83.7691 2.92571 83.6586 2.76034 83.5833 2.57834C83.508 2.39634 83.4693 2.20129 83.4694 2.00433ZM41.4757 10.503C41.4757 16.0246 36.9999 20.5011 31.4776 20.5011C25.956 20.5011 21.4795 16.0246 21.4795 10.503C21.4795 4.98003 25.956 0.50493 31.4776 0.50493C36.9999 0.50493 41.4757 4.98003 41.4757 10.503ZM19.5293 10.4533C20.0823 10.4533 20.5345 10.9013 20.4792 11.4515C20.2902 13.3344 19.5707 15.125 18.4044 16.6152C17.2381 18.1054 15.6729 19.234 13.8906 19.8698C12.1083 20.5057 10.1821 20.6227 8.33593 20.2072C6.48977 19.7917 4.79942 18.8609 3.46134 17.5228C2.12325 16.1847 1.19238 14.4943 0.776912 12.6482C0.361441 10.802 0.47843 8.87585 1.11428 7.09354C1.75013 5.31123 2.87874 3.74597 4.36893 2.57967C5.85912 1.41336 7.6497 0.693913 9.53258 0.50493C10.0821 0.44893 10.5308 0.90253 10.5308 1.45413V9.45303C10.5308 10.006 10.9788 10.4533 11.5311 10.4533H19.5293ZM55.4736 22.501C56.2691 22.501 57.032 22.817 57.5945 23.3796C58.1571 23.9421 58.4731 24.705 58.4731 25.5005C58.4731 26.296 58.1571 27.059 57.5945 27.6215C57.032 28.184 56.2691 28.5 55.4736 28.5H50.4749C49.6794 28.5 48.9164 28.184 48.3539 27.6215C47.7914 27.059 47.4754 26.296 47.4754 25.5005C47.4754 24.705 47.7914 23.9421 48.3539 23.3796C48.9164 22.817 49.6794 22.501 50.4749 22.501H55.4736ZM52.4741 20.5011C57.9964 20.5011 62.4729 16.0246 62.4729 10.503C62.4753 8.80689 62.0442 7.13828 61.2206 5.65553L62.8726 4.00353C63.0629 3.81315 63.2138 3.58716 63.3167 3.33846C63.4197 3.08975 63.4726 2.8232 63.4726 2.55404C63.4725 2.28487 63.4194 2.01835 63.3164 1.76969C63.2133 1.52104 63.0623 1.29512 62.8719 1.10483C62.6815 0.914545 62.4555 0.76362 62.2068 0.660674C61.9581 0.557727 61.6915 0.504775 61.4224 0.50484C61.1532 0.504905 60.8867 0.557986 60.638 0.661053C60.3894 0.764119 60.1635 0.915153 59.9732 1.10553L58.5312 2.54753C56.7915 1.21886 54.6624 0.500708 52.4734 0.50423C46.9525 0.50493 42.4767 4.98003 42.4767 10.503C42.4767 16.0246 46.9525 20.5011 52.4741 20.5011ZM83.4694 10.503C83.4694 16.0246 78.9929 20.5011 73.4706 20.5011C67.949 20.5011 63.4725 16.0246 63.4725 10.503C63.4725 4.98003 67.949 0.50493 73.4706 0.50493C78.9929 0.50493 83.4694 4.98073 83.4694 10.503Z" fill="#98A2B3"/>
</g>
<defs>
<clipPath id="clip0_2387_37743">
<rect width="87.5" height="28" fill="white" transform="translate(0.532471 0.5)"/>
</clipPath>
</defs>
</svg>
