<svg width="123" height="29" viewBox="0 0 123 29" fill="none" xmlns="http://www.w3.org/2000/svg">
<g clip-path="url(#clip0_2387_37726)">
<path d="M119.276 5.8649L122.198 8.80676C122.3 8.88803 122.375 8.99772 122.415 9.12197C122.474 9.84605 121.926 9.88567 121.366 9.92613C121.124 9.94363 120.88 9.96134 120.681 10.0347C119.699 10.3006 118.822 10.8623 118.171 11.6435C117.518 12.4247 117.123 13.3876 117.037 14.4015C116.974 14.5186 116.878 14.615 116.761 14.6791C116.645 14.7432 116.513 14.7722 116.38 14.7627C116.226 14.7491 116.082 14.6817 115.973 14.5722L115.014 13.6067C115.021 13.6727 115.021 13.7382 115.021 13.7908V14.4278C115.021 14.468 115.022 14.5068 115.017 14.5455C115.011 14.5889 114.996 14.6322 114.962 14.6772V14.7364C114.962 14.7666 114.965 14.7946 114.969 14.8231C114.976 14.8814 114.983 14.9415 114.962 15.0253C114.941 15.1035 114.939 15.1948 114.936 15.2762C114.935 15.3245 114.934 15.3695 114.929 15.4061C114.922 15.457 114.922 15.5114 114.918 15.5656C114.913 15.6164 114.905 15.6672 114.883 15.7148C114.852 15.7814 114.841 15.845 114.839 15.9097C114.836 15.9407 114.836 15.9718 114.836 16.0037L114.797 16.2073L113.307 23.3124L113.189 23.8442L113.142 24.6191L112.486 27.9746L112.381 28.5H59.2374L58.9812 28.2439L58.9352 28.4672H53.2486L50.0835 25.2824L50.3855 23.8442H48.5994L47.4897 22.7214C46.1124 23.7243 44.4454 24.25 42.742 24.2186C40.9109 24.2906 39.1259 23.6342 37.7777 22.3931L36.0506 20.6529L35.6763 22.3996C35.6304 22.6491 35.5713 22.8856 35.5056 23.1154L35.4465 23.3321L35.348 23.6473C35.3399 23.6746 35.3289 23.7011 35.3152 23.7261C35.2174 24.0156 35.1012 24.2985 34.9672 24.5731C34.9707 24.5838 34.9707 24.5953 34.9672 24.606C34.95 24.6424 34.9302 24.6774 34.908 24.711C34.8089 24.9072 34.6994 25.0979 34.5797 25.2824C34.5575 25.3159 34.5378 25.351 34.5206 25.3875L34.4484 25.4662C34.2879 25.6964 34.1124 25.9157 33.923 26.1229C33.8711 26.1748 33.8192 26.2236 33.7664 26.2715C33.7125 26.3205 33.6578 26.3686 33.6013 26.4183L33.4569 26.5562C33.3658 26.6319 33.2726 26.7049 33.1775 26.7753C33.099 26.8333 33.0192 26.8894 32.9381 26.9437C31.5848 27.7455 30.0237 28.1272 28.4531 28.0403C26.2861 28.0403 24.5525 27.4099 23.4559 26.3068L20.3696 23.2007C19.1368 23.8983 17.7409 24.2564 16.3246 24.2383C14.499 24.2948 12.7247 23.6294 11.3865 22.3865L9.65951 20.6464L9.10133 23.3321L8.98968 23.864H3.17825L0 20.6594L0.164165 19.8846L3.65761 3.10693L3.76265 2.5816H9.59378L9.74484 2.72609V2.5816H49.0328L49.1773 2.72609V2.5816H54.864L58.0422 5.78611L57.8846 6.55439L57.7139 7.39493H59.3489L59.6051 7.65106C60.3245 7.22941 61.1417 7.00304 61.9756 6.99438C62.5888 6.98227 63.1978 7.09875 63.7632 7.33626C64.3287 7.57378 64.8382 7.927 65.2589 8.37332L65.1735 8.27483L66.7167 9.83114C67.6557 8.06476 69.7635 6.99438 72.6264 6.99438C74.8461 6.99438 76.4813 7.55908 77.4725 8.58346L78.589 9.7064L78.9635 7.90054L79.0748 7.37521H84.7679L86.3968 9.01032L86.6264 7.90712L86.7384 7.38178H97.9412L98.2429 7.68389C99.0017 7.23614 99.8704 7.00873 100.752 7.02721C101.282 7.00652 101.809 7.10355 102.298 7.31133C102.786 7.51911 103.222 7.8325 103.575 8.22891C103.557 8.20826 103.539 8.18761 103.522 8.16731C103.49 8.12965 103.459 8.0929 103.425 8.05888L103.996 8.62945C104.493 8.11474 105.09 7.70713 105.75 7.43165C106.411 7.15614 107.121 7.01847 107.836 7.02721C108.217 7.00384 108.596 7.03618 108.964 7.12223L108.343 6.49531C108.258 6.4047 108.2 6.29195 108.177 6.17015C108.154 6.04835 108.166 5.92242 108.211 5.80703C108.256 5.6916 108.333 5.5914 108.434 5.51798C108.534 5.44455 108.652 5.4009 108.776 5.39213H109.275C109.409 5.3793 109.543 5.35958 109.675 5.33301C110.373 5.18632 111.03 4.88637 111.598 4.45479C112.166 4.02326 112.631 3.47093 112.959 2.83771C112.988 2.78873 113.014 2.73835 113.037 2.68669V2.65387C113.264 2.16751 113.401 1.64507 113.445 1.11069C113.456 0.944642 113.531 0.789174 113.653 0.67583C113.775 0.562446 113.935 0.499601 114.101 0.500002H114.154C114.253 0.509461 114.35 0.541604 114.435 0.593948C114.521 0.646332 114.593 0.717512 114.647 0.80208C115.119 1.26175 117.746 3.93432 117.746 3.93432C117.965 4.16967 117.949 4.47519 117.932 4.78432C117.921 4.97546 117.911 5.16801 117.956 5.34616C118.075 5.3676 118.196 5.38383 118.317 5.39481C118.433 5.40527 118.549 5.41096 118.665 5.41181C118.801 5.41465 118.934 5.45978 119.043 5.54098C119.152 5.62214 119.234 5.73537 119.276 5.8649Z" fill="#667085"/>
<path d="M30.0552 8.02525H34.2053L31.8807 19.0505C31.454 21.1387 30.6396 22.3339 29.4051 23.181C28.1565 23.9055 26.7227 24.248 25.2813 24.1659C22.5365 24.1659 19.9032 23.0168 19.6406 20.226H23.8169C23.9483 20.8826 24.5524 21.2569 25.4718 21.2569C26.7129 21.2569 27.2841 20.5084 27.5403 19.3329L27.7897 18.1181H27.6978C27.3314 18.5209 26.8869 18.845 26.3913 19.0708C25.8957 19.2965 25.3595 19.4192 24.8151 19.4314C22.3986 19.4314 20.4811 17.5074 20.5205 14.6903C20.5731 11.407 22.7138 7.67721 26.3057 7.67721C26.9864 7.63136 27.666 7.78137 28.2641 8.10953C28.8623 8.43762 29.3539 8.93021 29.6809 9.52899H29.7532L30.0552 8.02525ZM26.4896 16.3517C28.0853 16.3517 28.9718 14.5131 28.998 12.9305C28.998 11.8733 28.5843 10.7898 27.3629 10.7898C25.695 10.7898 24.8479 12.6481 24.8217 14.2438C24.8217 15.3207 25.2354 16.3517 26.4567 16.3517M73.0799 16.7063C73.0799 17.4089 72.4751 17.6913 71.6806 17.6913C70.3674 17.6913 69.9276 17.0346 69.9211 16.1153H65.7907C65.7185 19.5431 68.7785 20.3901 71.4972 20.3901C74.9706 20.3901 77.2232 18.8864 77.2694 15.8855C77.2694 13.4886 75.2268 12.7598 73.2178 12.2935C71.6743 11.939 70.9981 11.6828 71.0044 11.0984C71.0114 10.514 71.7009 10.2776 72.3771 10.2776C73.2241 10.2776 73.8016 10.5796 73.8611 11.3545H77.8735C77.8273 8.49145 75.2464 7.65096 72.62 7.65096C69.4286 7.65096 66.9398 9.10213 66.9004 11.847C66.9004 14.0074 68.3582 14.802 70.5578 15.3667C71.9697 15.741 73.0925 15.8592 73.0799 16.7063ZM103.765 9.80479H103.693C103.515 9.15813 103.12 8.59204 102.575 8.20025C102.031 7.80853 101.368 7.6147 100.698 7.65096C98.9127 7.65096 97.8228 8.53744 96.7917 9.87703H96.7197L97.1004 8.02525H92.9235L90.4217 19.9896H94.789L96.1022 13.5346C96.4039 12.1294 97.12 11.1444 98.2036 11.1444C99.2872 11.1444 99.4314 12.0111 99.2081 13.0684L97.7633 19.9896H102.13L103.444 13.5346C103.746 12.0374 104.462 11.1444 105.545 11.1444C106.628 11.1444 106.773 11.9652 106.55 13.0684L105.105 19.9896H109.472L111.035 12.8779C111.691 9.87703 110.687 7.62464 107.804 7.62464C107.002 7.62135 106.212 7.81917 105.507 8.20004C104.801 8.58091 104.203 9.13265 103.765 9.80479ZM0.801025 19.9896H5.31228L8.79915 3.21191H4.29446L0.801025 19.9896ZM14.3807 7.67063C17.4276 7.67063 20.3367 9.33852 20.2907 13.1143C20.2513 17.2447 17.4408 20.3376 13.1462 20.3376C10.1912 20.3376 7.23633 18.696 7.28883 14.9399C7.36107 10.908 10.1322 7.67063 14.3807 7.67063ZM13.271 17.4089C15.1951 17.4089 15.8976 14.6181 15.8976 12.9764C15.8976 11.8011 15.5365 10.6519 14.2691 10.6519C12.3648 10.6519 11.7147 13.6068 11.7147 15.1303C11.7147 16.3517 12.0562 17.4089 13.2973 17.4089M10.3029 3.21191L9.64622 6.56745H47.529L48.1856 3.21191H10.3029ZM40.7719 7.67063C43.8188 7.67063 46.7278 9.33852 46.6819 13.1143C46.6425 17.2447 43.8254 20.3376 39.5308 20.3376C36.5759 20.3376 33.6209 18.696 33.68 14.9399C33.7719 10.908 36.543 7.67063 40.7719 7.67063ZM39.6819 17.4089C41.6059 17.4089 42.3085 14.6181 42.3085 12.9764C42.3085 11.8011 41.9408 10.6519 40.6734 10.6519C38.7757 10.6519 38.119 13.6068 38.119 15.1303C38.119 16.3517 38.4605 17.4089 39.7081 17.4089M49.7354 3.21191L49.0787 6.56745H53.4389L54.0956 3.21191H49.7354ZM46.2419 19.9896H50.6087L53.1106 8.02525H48.7175L46.2419 19.9896ZM60.1762 20.3901C59.4813 20.4395 58.7862 20.2942 58.1691 19.9706C57.5521 19.647 57.0373 19.1578 56.6828 18.5581H56.6106L55.2973 24.6125H50.8779L54.4239 8.02525H58.574L58.2457 9.6209C58.6791 9.0315 59.2405 8.54801 59.8876 8.20676C60.5348 7.86558 61.2509 7.67553 61.9821 7.65096C64.6087 7.65096 66.1518 9.90328 66.1059 12.832C66.0468 16.5158 64.1359 20.3901 60.15 20.3901H60.1762ZM60.0055 11.0393C58.3179 11.0393 57.2804 13.1997 57.2541 14.8611C57.2541 16.0168 57.6613 17.3038 59.0468 17.3038C60.8526 17.3038 61.5946 14.9136 61.6143 13.3179C61.6143 12.2344 61.2992 11.0393 60.0055 11.0393ZM85.2543 18.105H85.3264L84.9456 20.0027H89.0952L91.5977 8.03834H87.2374L85.8451 14.7231C85.563 16.1087 84.709 16.8376 83.6324 16.8376C82.5551 16.8376 82.3185 15.8263 82.5355 14.7691L83.9474 8.03834H79.5871L78.0436 15.4258C77.387 18.6434 78.8843 20.377 81.3931 20.377C82.1806 20.3693 82.9527 20.1541 83.6303 19.7528C84.3079 19.3516 84.8686 18.7787 85.2543 18.0918V18.105ZM108.677 24.6716L109.334 21.316H57.5496L56.8929 24.6716H108.677Z" fill="white"/>
<path d="M113.372 11.3087C113.329 11.3054 113.287 11.2936 113.249 11.2739C113.21 11.2543 113.175 11.2272 113.147 11.1943C113.119 11.1613 113.098 11.1231 113.085 11.0819C113.072 11.0407 113.067 10.9973 113.07 10.9541C113.125 10.3693 113.056 9.77949 112.867 9.22341C112.678 8.66733 112.373 8.15738 111.973 7.72716C111.573 7.29691 111.087 6.95599 110.546 6.72674C110.005 6.4975 109.422 6.3851 108.835 6.3969C108.748 6.3969 108.665 6.36231 108.603 6.30073C108.541 6.23916 108.506 6.15564 108.506 6.06856C108.506 5.98148 108.541 5.89798 108.603 5.83641C108.665 5.77483 108.748 5.74023 108.835 5.74023C108.992 5.75041 109.15 5.75041 109.308 5.74023C110.474 5.61598 111.56 5.08902 112.38 4.25005C113.201 3.41108 113.702 2.31257 113.799 1.14361C113.806 1.06116 113.843 0.984258 113.904 0.928256C113.965 0.872254 114.045 0.841289 114.127 0.841554C114.171 0.844869 114.213 0.856691 114.251 0.876333C114.29 0.895976 114.324 0.923054 114.352 0.956011C114.381 0.988968 114.402 1.02715 114.415 1.06836C114.428 1.10958 114.433 1.153 114.43 1.19615C114.375 1.78041 114.444 2.36964 114.633 2.92528C114.822 3.48092 115.126 3.99047 115.525 4.42062C115.924 4.85077 116.409 5.19182 116.949 5.42148C117.489 5.65115 118.072 5.76424 118.658 5.75337C118.745 5.75337 118.829 5.78797 118.891 5.84954C118.952 5.91111 118.987 5.99462 118.987 6.0817C118.987 6.16878 118.952 6.2523 118.891 6.31387C118.829 6.37544 118.745 6.41003 118.658 6.41003C117.411 6.43064 116.215 6.91122 115.3 7.75957C114.385 8.6079 113.815 9.76423 113.701 11.0067C113.694 11.0891 113.657 11.166 113.596 11.222C113.535 11.278 113.455 11.309 113.372 11.3087Z" fill="white"/>
</g>
<defs>
<clipPath id="clip0_2387_37726">
<rect width="122.5" height="28" fill="white" transform="translate(0 0.5)"/>
</clipPath>
</defs>
</svg>
