<svg width="24" height="25" viewBox="0 0 24 25" fill="none" xmlns="http://www.w3.org/2000/svg">
<path d="M22 4.9117V16.8017C22 17.7717 21.21 18.6617 20.24 18.7817L19.93 18.8217C18.29 19.0417 15.98 19.7217 14.12 20.5017C13.47 20.7717 12.75 20.2817 12.75 19.5717V5.6617C12.75 5.2917 12.96 4.9517 13.29 4.7717C15.12 3.7817 17.89 2.9017 19.77 2.7417H19.83C21.03 2.7417 22 3.7117 22 4.9117Z" fill="#219EBC"/>
<path d="M10.7102 4.7717C8.88023 3.7817 6.11023 2.9017 4.23023 2.7417H4.16023C2.96023 2.7417 1.99023 3.7117 1.99023 4.9117V16.8017C1.99023 17.7717 2.78023 18.6617 3.75023 18.7817L4.06023 18.8217C5.70023 19.0417 8.01023 19.7217 9.87023 20.5017C10.5202 20.7717 11.2402 20.2817 11.2402 19.5717V5.6617C11.2402 5.2817 11.0402 4.9517 10.7102 4.7717ZM5.00023 7.8017H7.25023C7.66023 7.8017 8.00023 8.1417 8.00023 8.5517C8.00023 8.9717 7.66023 9.3017 7.25023 9.3017H5.00023C4.59023 9.3017 4.25023 8.9717 4.25023 8.5517C4.25023 8.1417 4.59023 7.8017 5.00023 7.8017ZM8.00023 12.3017H5.00023C4.59023 12.3017 4.25023 11.9717 4.25023 11.5517C4.25023 11.1417 4.59023 10.8017 5.00023 10.8017H8.00023C8.41023 10.8017 8.75023 11.1417 8.75023 11.5517C8.75023 11.9717 8.41023 12.3017 8.00023 12.3017Z" fill="#219EBC"/>
</svg>
