<svg width="32" height="33" viewBox="0 0 32 33" fill="none" xmlns="http://www.w3.org/2000/svg">
<rect y="0.561646" width="32" height="32" rx="8" fill="#E7F8F0"/>
<path d="M7.75033 11.5616C7.94243 10.6205 8.45381 9.77461 9.19791 9.16718C9.942 8.55976 10.8731 8.22808 11.8337 8.22827H20.167C21.1275 8.22808 22.0586 8.55976 22.8027 9.16718C23.5468 9.77461 24.0582 10.6205 24.2503 11.5616H7.75033ZM7.66699 13.2283V20.7283C7.66699 21.8333 8.10598 22.8931 8.88738 23.6745C9.66878 24.456 10.7286 24.8949 11.8337 24.8949H20.167C21.2721 24.8949 22.3319 24.456 23.1133 23.6745C23.8947 22.8931 24.3337 21.8333 24.3337 20.7283V13.2283H7.66699ZM11.0003 15.7283C11.0003 15.5073 11.0881 15.2953 11.2444 15.139C11.4007 14.9827 11.6126 14.8949 11.8337 14.8949C12.0547 14.8949 12.2666 14.9827 12.4229 15.139C12.5792 15.2953 12.667 15.5073 12.667 15.7283C12.667 15.9493 12.5792 16.1612 12.4229 16.3175C12.2666 16.4738 12.0547 16.5616 11.8337 16.5616C11.6126 16.5616 11.4007 16.4738 11.2444 16.3175C11.0881 16.1612 11.0003 15.9493 11.0003 15.7283ZM11.0003 19.0616C11.0003 18.8406 11.0881 18.6286 11.2444 18.4723C11.4007 18.3161 11.6126 18.2283 11.8337 18.2283C12.0547 18.2283 12.2666 18.3161 12.4229 18.4723C12.5792 18.6286 12.667 18.8406 12.667 19.0616C12.667 19.2826 12.5792 19.4946 12.4229 19.6509C12.2666 19.8071 12.0547 19.8949 11.8337 19.8949C11.6126 19.8949 11.4007 19.8071 11.2444 19.6509C11.0881 19.4946 11.0003 19.2826 11.0003 19.0616ZM15.167 14.8949C15.388 14.8949 15.6 14.9827 15.7562 15.139C15.9125 15.2953 16.0003 15.5073 16.0003 15.7283C16.0003 15.9493 15.9125 16.1612 15.7562 16.3175C15.6 16.4738 15.388 16.5616 15.167 16.5616C14.946 16.5616 14.734 16.4738 14.5777 16.3175C14.4215 16.1612 14.3337 15.9493 14.3337 15.7283C14.3337 15.5073 14.4215 15.2953 14.5777 15.139C14.734 14.9827 14.946 14.8949 15.167 14.8949ZM14.3337 19.0616C14.3337 18.8406 14.4215 18.6286 14.5777 18.4723C14.734 18.3161 14.946 18.2283 15.167 18.2283C15.388 18.2283 15.6 18.3161 15.7562 18.4723C15.9125 18.6286 16.0003 18.8406 16.0003 19.0616C16.0003 19.2826 15.9125 19.4946 15.7562 19.6509C15.6 19.8071 15.388 19.8949 15.167 19.8949C14.946 19.8949 14.734 19.8071 14.5777 19.6509C14.4215 19.4946 14.3337 19.2826 14.3337 19.0616ZM18.5003 14.8949C18.7213 14.8949 18.9333 14.9827 19.0896 15.139C19.2459 15.2953 19.3337 15.5073 19.3337 15.7283C19.3337 15.9493 19.2459 16.1612 19.0896 16.3175C18.9333 16.4738 18.7213 16.5616 18.5003 16.5616C18.2793 16.5616 18.0674 16.4738 17.9111 16.3175C17.7548 16.1612 17.667 15.9493 17.667 15.7283C17.667 15.5073 17.7548 15.2953 17.9111 15.139C18.0674 14.9827 18.2793 14.8949 18.5003 14.8949Z" fill="#41C588"/>
</svg>
