<svg width="16" height="17" viewBox="0 0 16 17" fill="none" xmlns="http://www.w3.org/2000/svg">
<path d="M14 4.48665C11.78 4.26665 9.54667 4.15332 7.32 4.15332C6 4.15332 4.68 4.21999 3.36 4.35332L2 4.48665" stroke="#323232" stroke-width="1.5" stroke-linecap="round" stroke-linejoin="round"/>
<path d="M5.66699 3.81337L5.81366 2.94004C5.92033 2.30671 6.00033 1.83337 7.12699 1.83337H8.87366C10.0003 1.83337 10.087 2.33337 10.187 2.94671L10.3337 3.81337" stroke="#323232" stroke-width="1.5" stroke-linecap="round" stroke-linejoin="round"/>
<path d="M12.5669 6.59338L12.1336 13.3067C12.0603 14.3534 12.0003 15.1667 10.1403 15.1667H5.86026C4.00026 15.1667 3.94026 14.3534 3.86693 13.3067L3.43359 6.59338" stroke="#323232" stroke-width="1.5" stroke-linecap="round" stroke-linejoin="round"/>
<path d="M6.88672 11.5H9.10672" stroke="#323232" stroke-width="1.5" stroke-linecap="round" stroke-linejoin="round"/>
<path d="M6.33301 8.83337H9.66634" stroke="#323232" stroke-width="1.5" stroke-linecap="round" stroke-linejoin="round"/>
</svg>
