<svg width="16" height="17" viewBox="0 0 16 17" fill="none" xmlns="http://www.w3.org/2000/svg">
<g clip-path="url(#clip0_4152_28214)">
<path d="M14.222 3.16663H1.77756C1.54181 3.16663 1.31572 3.26028 1.14902 3.42698C0.982322 3.59367 0.888672 3.81977 0.888672 4.05551V12.9444C0.888672 13.1802 0.982322 13.4062 1.14902 13.5729C1.31572 13.7396 1.54181 13.8333 1.77756 13.8333H8.44423L8.69756 13.5222L9.11089 13.0155L9.07089 12.9444H1.77756V4.05551H14.222V7.85996C14.5597 8.07847 14.8599 8.35012 15.1109 8.6644V4.05551C15.1109 3.81977 15.0172 3.59367 14.8505 3.42698C14.6838 3.26028 14.4578 3.16663 14.222 3.16663Z" fill="#323232"/>
<path d="M3.11133 5.83337H10.6669V6.54449H3.11133V5.83337Z" fill="#323232"/>
<path d="M3.11133 7.61108H8.00022V8.3222H3.11133V7.61108Z" fill="#323232"/>
<path d="M3.11133 10.7222H7.55577V11.4333H3.11133V10.7222Z" fill="#323232"/>
<path d="M12.2046 8.1578C11.6358 8.15329 11.079 8.32045 10.6067 8.63744C10.1345 8.95443 9.76887 9.4065 9.55764 9.93458C9.34641 10.4627 9.2994 11.0422 9.42274 11.5974C9.54609 12.1526 9.83406 12.6577 10.249 13.0467L9.3868 14.1L9.7868 15.7045L11.4135 13.7222C11.9284 13.8745 12.4763 13.8745 12.9912 13.7222L14.6179 15.7045L15.0179 14.1L14.1557 13.0467C14.5707 12.6577 14.8586 12.1526 14.982 11.5974C15.1053 11.0422 15.0583 10.4627 14.8471 9.93458C14.6358 9.4065 14.2702 8.95443 13.798 8.63744C13.3258 8.32045 12.7689 8.15329 12.2001 8.1578H12.2046ZM12.2046 12.9045C11.8269 12.8992 11.4592 12.7824 11.1477 12.5688C10.8362 12.3551 10.5949 12.0541 10.454 11.7037C10.3131 11.3532 10.2789 10.9689 10.3558 10.5991C10.4327 10.2293 10.6172 9.8905 10.8861 9.62527C11.1551 9.36003 11.4964 9.18023 11.8672 9.10845C12.2381 9.03667 12.6219 9.07613 12.9703 9.22187C13.3188 9.3676 13.6164 9.61311 13.8257 9.92751C14.0351 10.2419 14.1468 10.6112 14.1468 10.9889C14.1421 11.5001 13.9351 11.9887 13.5711 12.3476C13.2072 12.7066 12.7158 12.9068 12.2046 12.9045Z" fill="#323232"/>
</g>
<defs>
<clipPath id="clip0_4152_28214">
<rect width="16" height="16" fill="white" transform="translate(0 0.5)"/>
</clipPath>
</defs>
</svg>
