<svg width="32" height="33" viewBox="0 0 32 33" fill="none" xmlns="http://www.w3.org/2000/svg">
  <rect y="0.561646" width="32" height="32" rx="8" fill="#D3ECF2" />
  <g clip-path="url(#clip0_3548_52893)">
    <path d="M10 20.2016V22.2283C10 22.4149 10.1467 22.5616 10.3333 22.5616H12.36C12.4467 22.5616 12.5333 22.5283 12.5933 22.4616L19.8733 15.1883L17.3733 12.6883L10.1 19.9616C10.0333 20.0283 10 20.1083 10 20.2016ZM21.8067 13.2549C22.0667 12.9949 22.0667 12.5749 21.8067 12.3149L20.2467 10.7549C19.9867 10.4949 19.5667 10.4949 19.3067 10.7549L18.0867 11.9749L20.5867 14.4749L21.8067 13.2549Z" fill="#219EBC" />
  </g>
  <defs>
    <clipPath id="clip0_3548_52893">
      <rect width="16" height="16" fill="white" transform="translate(8 8.56165)" />
    </clipPath>
  </defs>
</svg>