<svg width="16" height="17" viewBox="0 0 16 17" fill="none" xmlns="http://www.w3.org/2000/svg">
<path d="M7.9998 5.70002C7.9998 5.59394 7.95766 5.4922 7.88265 5.41718C7.80763 5.34217 7.70589 5.30002 7.5998 5.30002C7.49372 5.30002 7.39198 5.34217 7.31696 5.41718C7.24195 5.4922 7.1998 5.59394 7.1998 5.70002V8.90002C7.1998 9.00611 7.24195 9.10785 7.31696 9.18287C7.39198 9.25788 7.49372 9.30002 7.5998 9.30002H9.9998C10.1059 9.30002 10.2076 9.25788 10.2826 9.18287C10.3577 9.10785 10.3998 9.00611 10.3998 8.90002C10.3998 8.79394 10.3577 8.6922 10.2826 8.61718C10.2076 8.54217 10.1059 8.50002 9.9998 8.50002H7.9998V5.70002ZM4.7998 2.90002C4.16329 2.90002 3.55284 3.15288 3.10275 3.60297C2.65266 4.05306 2.3998 4.6635 2.3998 5.30002V8.58322C2.65981 8.51041 2.93083 8.48521 3.1998 8.50882V5.30002C3.1998 4.87568 3.36838 4.46871 3.66843 4.16865C3.96849 3.8686 4.37546 3.70002 4.7998 3.70002H11.1998C11.6242 3.70002 12.0311 3.8686 12.3312 4.16865C12.6312 4.46871 12.7998 4.87568 12.7998 5.30002V11.7C12.7998 12.1244 12.6312 12.5313 12.3312 12.8314C12.0311 13.1315 11.6242 13.3 11.1998 13.3H8.7262C8.77474 13.4606 8.79927 13.6272 8.7998 13.8C8.79941 13.9003 8.79274 14.0005 8.77981 14.1H11.1998C11.8363 14.1 12.4468 13.8472 12.8969 13.3971C13.3469 12.947 13.5998 12.3365 13.5998 11.7V5.30002C13.5998 4.6635 13.3469 4.05306 12.8969 3.60297C12.4468 3.15288 11.8363 2.90002 11.1998 2.90002H4.7998ZM2.9998 12.1C3.18366 12.1 3.36571 12.0638 3.53556 11.9935C3.70542 11.9231 3.85975 11.82 3.98975 11.69C4.11976 11.56 4.22288 11.4056 4.29324 11.2358C4.36359 11.0659 4.3998 10.8839 4.3998 10.7C4.3998 10.5162 4.36359 10.3341 4.29324 10.1643C4.22288 9.99441 4.11976 9.84008 3.98975 9.71007C3.85975 9.58007 3.70542 9.47695 3.53556 9.40659C3.36571 9.33624 3.18366 9.30002 2.9998 9.30002C2.6285 9.30002 2.27241 9.44752 2.00986 9.71007C1.7473 9.97263 1.5998 10.3287 1.5998 10.7C1.5998 11.0713 1.7473 11.4274 2.00986 11.69C2.27241 11.9525 2.6285 12.1 2.9998 12.1ZM3.1998 15.7C4.9142 15.7 5.5998 14.8216 5.5998 13.9504C5.5998 13.3704 5.139 12.9 4.571 12.9H1.8286C1.2606 12.9 0.799805 13.3704 0.799805 13.9504C0.799805 14.8248 1.4854 15.7 3.1998 15.7ZM5.9998 15.3H5.9814C6.25543 14.9034 6.40144 14.4325 6.3998 13.9504C6.3998 13.5632 6.2814 13.2 6.0766 12.9H7.14381C7.6174 12.9 8.00061 13.3032 8.00061 13.8C8.00061 14.5472 7.4286 15.3 5.9998 15.3ZM6.2006 12.1C6.46582 12.1 6.72018 11.9947 6.90771 11.8071C7.09525 11.6196 7.2006 11.3652 7.2006 11.1C7.2006 10.8348 7.09525 10.5805 6.90771 10.3929C6.72018 10.2054 6.46582 10.1 6.2006 10.1C5.93539 10.1 5.68103 10.2054 5.4935 10.3929C5.30596 10.5805 5.2006 10.8348 5.2006 11.1C5.2006 11.3652 5.30596 11.6196 5.4935 11.8071C5.68103 11.9947 5.93539 12.1 6.2006 12.1Z" fill="#323232"/>
</svg>
