<svg width="32" height="33" viewBox="0 0 32 33" fill="none" xmlns="http://www.w3.org/2000/svg">
<rect y="0.561646" width="32" height="32" rx="4" fill="#FEECEB"/>
<path d="M22.0471 12.0484C20.9738 11.9417 19.9004 11.8617 18.8204 11.8017V11.795L18.6738 10.9284C18.5738 10.315 18.4271 9.39502 16.8671 9.39502H15.1204C13.5671 9.39502 13.4204 10.275 13.3138 10.9217L13.1738 11.775C12.5538 11.815 11.9338 11.855 11.3138 11.915L9.95376 12.0484C9.67376 12.075 9.47376 12.3217 9.50043 12.595C9.5271 12.8684 9.7671 13.0684 10.0471 13.0417L11.4071 12.9084C14.9004 12.5617 18.4204 12.695 21.9538 13.0484C21.9738 13.0484 21.9871 13.0484 22.0071 13.0484C22.2604 13.0484 22.4804 12.855 22.5071 12.595C22.5271 12.3217 22.3271 12.075 22.0471 12.0484Z" fill="#F04438"/>
<path d="M20.8202 13.9883C20.6602 13.8216 20.4402 13.7283 20.2135 13.7283H11.7868C11.5602 13.7283 11.3335 13.8216 11.1802 13.9883C11.0268 14.1549 10.9402 14.3816 10.9535 14.6149L11.3668 21.4549C11.4402 22.4683 11.5335 23.7349 13.8602 23.7349H18.1402C20.4668 23.7349 20.5602 22.4749 20.6335 21.4549L21.0468 14.6216C21.0602 14.3816 20.9735 14.1549 20.8202 13.9883ZM17.1068 20.3949H14.8868C14.6135 20.3949 14.3868 20.1683 14.3868 19.8949C14.3868 19.6216 14.6135 19.3949 14.8868 19.3949H17.1068C17.3802 19.3949 17.6068 19.6216 17.6068 19.8949C17.6068 20.1683 17.3802 20.3949 17.1068 20.3949ZM17.6668 17.7283H14.3335C14.0602 17.7283 13.8335 17.5016 13.8335 17.2283C13.8335 16.9549 14.0602 16.7283 14.3335 16.7283H17.6668C17.9402 16.7283 18.1668 16.9549 18.1668 17.2283C18.1668 17.5016 17.9402 17.7283 17.6668 17.7283Z" fill="#F04438"/>
</svg>
