<svg width="20" height="20" viewBox="0 0 20 20" fill="none" xmlns="http://www.w3.org/2000/svg">
<path fill-rule="evenodd" clip-rule="evenodd" d="M4.16667 1.04175C3.55888 1.04175 2.97598 1.28319 2.54621 1.71296C2.11644 2.14273 1.875 2.72563 1.875 3.33341C1.875 3.9412 2.11644 4.5241 2.54621 4.95387C2.97598 5.38364 3.55888 5.62508 4.16667 5.62508C4.77445 5.62508 5.35735 5.38364 5.78712 4.95387C6.21689 4.5241 6.45833 3.9412 6.45833 3.33341C6.45833 2.72563 6.21689 2.14273 5.78712 1.71296C5.35735 1.28319 4.77445 1.04175 4.16667 1.04175ZM3.125 3.33341C3.125 3.05715 3.23475 2.7922 3.4301 2.59685C3.62545 2.40149 3.8904 2.29175 4.16667 2.29175C4.44293 2.29175 4.70789 2.40149 4.90324 2.59685C5.09859 2.7922 5.20833 3.05715 5.20833 3.33341C5.20833 3.60968 5.09859 3.87463 4.90324 4.06998C4.70789 4.26533 4.44293 4.37508 4.16667 4.37508C3.8904 4.37508 3.62545 4.26533 3.4301 4.06998C3.23475 3.87463 3.125 3.60968 3.125 3.33341ZM1.875 6.66675C1.875 6.50099 1.94085 6.34202 2.05806 6.22481C2.17527 6.1076 2.33424 6.04175 2.5 6.04175H5.83333C5.99909 6.04175 6.15807 6.1076 6.27528 6.22481C6.39249 6.34202 6.45833 6.50099 6.45833 6.66675V17.5001C6.45833 17.6658 6.39249 17.8248 6.27528 17.942C6.15807 18.0592 5.99909 18.1251 5.83333 18.1251H2.5C2.33424 18.1251 2.17527 18.0592 2.05806 17.942C1.94085 17.8248 1.875 17.6658 1.875 17.5001V6.66675ZM3.125 7.29175V16.8751H5.20833V7.29175H3.125ZM7.70833 6.66675C7.70833 6.50099 7.77418 6.34202 7.89139 6.22481C8.0086 6.1076 8.16757 6.04175 8.33333 6.04175H11.6667C11.8324 6.04175 11.9914 6.1076 12.1086 6.22481C12.2258 6.34202 12.2917 6.50099 12.2917 6.66675V7.02842L12.6542 6.87258C13.2792 6.60558 13.9423 6.43827 14.6192 6.37675C16.9317 6.16675 18.9583 7.98342 18.9583 10.3167V17.5001C18.9583 17.6658 18.8925 17.8248 18.7753 17.942C18.6581 18.0592 18.4991 18.1251 18.3333 18.1251H15C14.8342 18.1251 14.6753 18.0592 14.5581 17.942C14.4408 17.8248 14.375 17.6658 14.375 17.5001V11.6667C14.375 11.3905 14.2653 11.1255 14.0699 10.9302C13.8746 10.7348 13.6096 10.6251 13.3333 10.6251C13.0571 10.6251 12.7921 10.7348 12.5968 10.9302C12.4014 11.1255 12.2917 11.3905 12.2917 11.6667V17.5001C12.2917 17.6658 12.2258 17.8248 12.1086 17.942C11.9914 18.0592 11.8324 18.1251 11.6667 18.1251H8.33333C8.16757 18.1251 8.0086 18.0592 7.89139 17.942C7.77418 17.8248 7.70833 17.6658 7.70833 17.5001V6.66675ZM8.95833 7.29175V16.8751H11.0417V11.6667C11.0417 11.059 11.2831 10.4761 11.7129 10.0463C12.1427 9.61652 12.7255 9.37508 13.3333 9.37508C13.9411 9.37508 14.524 9.61652 14.9538 10.0463C15.3836 10.4761 15.625 11.059 15.625 11.6667V16.8751H17.7083V10.3167C17.7083 8.73008 16.3242 7.47675 14.7333 7.62175C14.1868 7.67133 13.6514 7.80631 13.1467 8.02175L11.9133 8.55091C11.8182 8.59178 11.7144 8.60837 11.6113 8.59919C11.5082 8.59002 11.4089 8.55537 11.3225 8.49836C11.2361 8.44135 11.1652 8.36377 11.1162 8.27258C11.0671 8.18139 11.0415 8.07945 11.0417 7.97591V7.29175H8.95833Z" fill="#323232"/>
</svg>
