<svg width="18" height="19" viewBox="0 0 18 19" fill="none" xmlns="http://www.w3.org/2000/svg">
<path d="M9.97497 6.5827L10.965 8.56269C11.1 8.83269 11.46 9.10269 11.76 9.14769L13.5525 9.44769C14.7 9.64269 14.97 10.4677 14.145 11.2927L12.75 12.6877C12.5175 12.9202 12.3825 13.3777 12.4575 13.7077L12.855 15.4402C13.17 16.8052 12.4425 17.3377 11.235 16.6252L9.55497 15.6277C9.24747 15.4477 8.75248 15.4477 8.44498 15.6277L6.76497 16.6252C5.55747 17.3377 4.82996 16.8052 5.14496 15.4402L5.54249 13.7077C5.61749 13.3852 5.48247 12.9277 5.24997 12.6877L3.85499 11.2927C3.02999 10.4677 3.29997 9.63519 4.44747 9.44769L6.23998 9.14769C6.53998 9.09519 6.89998 8.83269 7.03498 8.56269L8.02498 6.5827C8.55748 5.5102 9.44247 5.5102 9.97497 6.5827Z" stroke="#667085" stroke-width="1.2" stroke-linecap="round" stroke-linejoin="round"/>
<path d="M4.5 7.25V2" stroke="#667085" stroke-width="1.2" stroke-linecap="round" stroke-linejoin="round"/>
<path d="M13.5 7.25V2" stroke="#667085" stroke-width="1.2" stroke-linecap="round" stroke-linejoin="round"/>
<path d="M9 3.5V2" stroke="#667085" stroke-width="1.2" stroke-linecap="round" stroke-linejoin="round"/>
</svg>
