<svg width="18" height="19" viewBox="0 0 18 19" fill="none" xmlns="http://www.w3.org/2000/svg">
<path d="M16.5 11.75V7.25C16.5 3.5 15 2 11.25 2H6.75C3 2 1.5 3.5 1.5 7.25V11.75C1.5 15.5 3 17 6.75 17H11.25C15 17 16.5 15.5 16.5 11.75Z" stroke="#667085" stroke-width="1.2" stroke-linecap="round" stroke-linejoin="round"/>
<path d="M1.89001 5.83252H16.11" stroke="#667085" stroke-width="1.2" stroke-linecap="round" stroke-linejoin="round"/>
<path d="M6.39001 2.08252V5.72752" stroke="#667085" stroke-width="1.2" stroke-linecap="round" stroke-linejoin="round"/>
<path d="M11.61 2.08252V5.39002" stroke="#667085" stroke-width="1.2" stroke-linecap="round" stroke-linejoin="round"/>
<path d="M7.3125 11.3376V10.4376C7.3125 9.28259 8.13 8.81009 9.1275 9.38759L9.9075 9.83759L10.6875 10.2876C11.685 10.8651 11.685 11.8101 10.6875 12.3876L9.9075 12.8376L9.1275 13.2876C8.13 13.8651 7.3125 13.3926 7.3125 12.2376V11.3376V11.3376Z" stroke="#667085" stroke-width="1.2" stroke-miterlimit="10" stroke-linecap="round" stroke-linejoin="round"/>
</svg>
