<svg width="24" height="25" viewBox="0 0 24 25" fill="none" xmlns="http://www.w3.org/2000/svg">
<g clip-path="url(#clip0_8877_30034)">
<path d="M18.2987 6.21022C17.9087 5.82022 17.2787 5.82022 16.8887 6.21022L11.9988 11.0902L7.10875 6.20021C6.71875 5.81021 6.08875 5.81021 5.69875 6.20021C5.30875 6.59021 5.30875 7.22022 5.69875 7.61022L10.5888 12.5002L5.69875 17.3902C5.30875 17.7802 5.30875 18.4102 5.69875 18.8002C6.08875 19.1902 6.71875 19.1902 7.10875 18.8002L11.9988 13.9102L16.8887 18.8002C17.2787 19.1902 17.9087 19.1902 18.2987 18.8002C18.6887 18.4102 18.6887 17.7802 18.2987 17.3902L13.4087 12.5002L18.2987 7.61022C18.6787 7.23022 18.6787 6.59022 18.2987 6.21022Z" fill="#323232"/>
</g>
<defs>
<clipPath id="clip0_8877_30034">
<rect width="24" height="24" fill="white" transform="translate(0 0.5)"/>
</clipPath>
</defs>
</svg>
