<svg width="24" height="24" viewBox="0 0 24 24" fill="none" xmlns="http://www.w3.org/2000/svg">
<path d="M12 22C17.5228 22 22 17.5228 22 12C22 6.47715 17.5228 2 12 2C6.47715 2 2 6.47715 2 12C2 17.5228 6.47715 22 12 22Z" stroke="#323232" stroke-width="1.5" stroke-linecap="round" stroke-linejoin="round"/>
<path d="M14.4 7.5L15.315 8.67C15.842 9.343 15.745 9.545 14.897 9.545H9.6C8.138 9.545 8 10.313 8 11.591M9.6 16.5L8.685 15.33C8.159 14.657 8.255 14.454 9.103 14.454H14.4C15.861 14.454 16 13.687 16 12.409" stroke="#323232" stroke-width="1.5" stroke-linecap="round" stroke-linejoin="round"/>
</svg>
